<?xml version="1.0" encoding="UTF-8" standalone="no"?>
<svg
        xmlns:dc="http://purl.org/dc/elements/1.1/"
        xmlns:cc="http://creativecommons.org/ns#"
        xmlns:rdf="http://www.w3.org/1999/02/22-rdf-syntax-ns#"
        xmlns="http://www.w3.org/2000/svg"
        viewBox="0 0 239.38667 48.653332"
        height="48.653332"
        width="239.38667"
        xml:space="preserve"
        id="svg2"
        version="1.1"><metadata
     id="metadata8"><rdf:RDF><cc:Work
         rdf:about=""><dc:format>image/svg+xml</dc:format><dc:type
        rdf:resource="http://purl.org/dc/dcmitype/StillImage"/></cc:Work></rdf:RDF></metadata>
    <defs
            id="defs6"/>
    <g
            transform="matrix(1.3333333,0,0,-1.3333333,0,48.653333)"
            id="g10"><g
       transform="scale(0.1)"
       id="g12"><path
         id="path14"
         style="fill:#ed1c24;fill-opacity:1;fill-rule:nonzero;stroke:none"
         d="m 34.0586,285.945 c 22.1758,0 31.6836,13.922 31.6836,30.211 v 14.715 H 29.3008 v -14.258 h 20.4805 v -3.511 c 0,-6.442 -4.8633,-13.012 -15.7227,-13.012 -11.6602,0 -17.4258,8.824 -17.4258,25.461 0,16.406 5.9961,25.234 17.6485,25.234 7.6914,0 13.582,-4.191 14.7148,-11.433 h 16.1797 c -1.9297,14.148 -13.1289,25.574 -30.8945,25.574 -21.7266,0 -33.714894,-15.274 -33.714894,-39.375 0,-24.102 11.539094,-39.606 33.492194,-39.606" /><path
            id="path16"
            style="fill:#ed1c24;fill-opacity:1;fill-rule:nonzero;stroke:none"
            d="m 99.3594,330.977 c 6.2266,0 9.6206,-4.411 10.0706,-10.407 H 88.9492 c 1.1328,6.676 4.4141,10.407 10.4102,10.407 z m 0,-44.469 c 12.6836,0 20.3706,7.246 23.7656,18.558 l -14.824,0.114 c -1.805,-4.645 -5.317,-5.766 -8.8283,-5.766 -5.0938,0 -9.7266,2.254 -10.6329,10.293 h 35.0782 c 0.109,0.566 0.559,3.391 0.559,6.336 0,15.16 -8.934,27.609 -25.0043,27.609 -15.836,0 -25.5704,-10.98 -25.5704,-28.515 0,-17.989 9.8438,-28.629 25.4571,-28.629"/><path
            id="path18"
            style="fill:#ed1c24;fill-opacity:1;fill-rule:nonzero;stroke:none"
            d="m 156.066,287.301 9.735,33.269 9.84,-33.269 12.105,-0.004 16.18,55.445 h -14.93 l -8.262,-32.703 -8.707,32.707 h -12.113 l -8.828,-32.586 -8.027,32.586 h -15.051 l 16.066,-55.445 h 11.992"/><path
            id="path20"
            style="fill:#ed1c24;fill-opacity:1;fill-rule:nonzero;stroke:none"
            d="m 232.91,330.969 c 6.227,0 9.621,-4.406 10.074,-10.403 h -20.48 c 1.133,6.672 4.41,10.403 10.406,10.403 z m 0,-44.461 c 12.672,0 20.367,7.242 23.762,18.555 l -14.82,0.109 c -1.813,-4.637 -5.325,-5.766 -8.825,-5.766 -5.093,0 -9.734,2.258 -10.64,10.293 h 35.078 c 0.121,0.567 0.566,3.395 0.566,6.34 0,15.16 -8.937,27.606 -25.004,27.606 -15.843,0 -25.57,-10.977 -25.57,-28.516 0,-17.988 9.84,-28.621 25.453,-28.621"/><path
            id="path22"
            style="fill:#ed1c24;fill-opacity:1;fill-rule:nonzero;stroke:none"
            d="m 282.48,313.66 c 0,11.766 4.528,16.07 11.204,16.067 h 6.113 v 13.011 c -1.582,0.672 -3.055,0.789 -5.547,0.789 -3.613,0.008 -8.594,-2.035 -11.77,-6.445 l -0.218,5.66 h -14.371 v -55.445 h 14.589 v 26.363"/><path
            id="path24"
            style="fill:#ed1c24;fill-opacity:1;fill-rule:nonzero;stroke:none"
            d="m 322.66,303.477 5.992,6.554 14.602,-22.738 h 16.976 l -21.386,32.926 19.457,22.519 h -16.86 L 322.66,321.465 v 42.316 h -14.597 v -76.488 h 14.597 v 16.184"/><path
            id="path26"
            style="fill:#ed1c24;fill-opacity:1;fill-rule:nonzero;stroke:none"
            d="m 385.59,298.836 c -5.43,0 -8.371,2.598 -9.055,6.332 h -14.367 c 1.465,-9.73 8.707,-18.559 22.738,-18.559 15.051,0 23.762,7.579 23.762,17.875 0,9.395 -6.676,14.485 -13.805,16.075 -12.215,2.714 -16.402,2.039 -16.402,6.445 0,2.723 2.836,4.644 7.352,4.644 4.871,0 7.019,-2.378 7.585,-5.882 l 14.137,-0.004 c -0.898,9.613 -7.808,17.765 -21.722,17.765 -15.051,0 -21.95,-8.937 -21.95,-17.656 0,-8.141 6.68,-13.683 14.598,-15.379 11.09,-2.383 15.723,-1.816 15.723,-6.793 0,-2.601 -3.282,-4.863 -8.594,-4.863"/><path
            id="path28"
            style="fill:#ed1c24;fill-opacity:1;fill-rule:nonzero;stroke:none"
            d="m 441.613,286.496 c 12.559,0 20.934,7.586 23.422,19.578 h -14.711 c -1.355,-4.754 -4.179,-6.676 -8.711,-6.676 -7.586,0 -11.433,5.313 -11.433,15.723 0,10.641 3.847,15.613 10.984,15.613 4.414,0 7.461,-2.035 8.711,-7.125 h 14.816 c -1.804,11.766 -10.07,20.032 -23.527,20.032 -15.617,0 -25.691,-10.75 -25.691,-28.52 0,-17.875 10.074,-28.625 26.14,-28.625"/><path
            id="path30"
            style="fill:#ed1c24;fill-opacity:1;fill-rule:nonzero;stroke:none"
            d="m 520.949,287.285 v 34.285 c 0,12.903 -7.14,21.836 -19.129,21.836 -4.414,0 -9.386,-1.804 -13.234,-4.633 v 25.004 h -14.602 v -76.488 h 14.602 v 28.285 c 0,11.543 3.5,14.938 9.727,14.938 3.621,0 8.035,-2.379 8.035,-9.844 v -33.379 l 14.601,-0.004"/><path
            id="path32"
            style="fill:#ed1c24;fill-opacity:1;fill-rule:nonzero;stroke:none"
            d="m 555.363,299.395 c -7.359,0 -10.64,5.085 -10.64,16.062 0,9.391 3.398,15.277 10.64,15.277 6.895,0 10.176,-4.754 10.176,-15.613 0,-10.863 -3.281,-15.726 -10.176,-15.726 z m 29.414,-11.434 v 11.434 h -2.597 c -1.7,0 -2.727,1.355 -2.727,3.164 v 40.168 H 565.09 l -0.227,-3.168 c -2.718,2.488 -6.336,4.078 -10.98,4.078 -13.688,0 -23.871,-11.887 -23.871,-27.84 0,-17.766 8.937,-29.305 24.437,-29.305 4.871,0 9.391,1.582 13.469,4.977 2.492,-3.172 5.773,-4.528 10.297,-4.528 3.281,0 4.863,0.454 6.562,1.02"/><path
            id="path34"
            style="fill:#ed1c24;fill-opacity:1;fill-rule:nonzero;stroke:none"
            d="m 598.371,287.285 h 14.598 v 42.766 l 10.754,-0.004 v 12.676 l -10.754,0.004 v 3.961 c 0,3.73 1.359,4.863 4.746,4.863 l 6.008,-0.004 v 11.996 c -1.817,0.461 -4.309,0.91 -7.473,0.91 -11.543,0 -17.879,-4.871 -17.879,-18.785 v -2.941 h -8.594 v -12.676 h 8.594 v -42.766"/><path
            id="path36"
            style="fill:#ed1c24;fill-opacity:1;fill-rule:nonzero;stroke:none"
            d="m 635.715,303.344 c 0,-13.352 7.93,-16.406 15.848,-16.406 4.414,0 8.476,1.355 8.476,1.355 V 299.5 h -5.652 c -1.809,0 -4.074,1.246 -4.074,4.074 v 26.473 h 11.308 v 12.676 h -11.308 v 20.254 h -14.598 v -20.254 h -8.371 v -12.676 h 8.371 v -26.703"/><path
            id="path38"
            style="fill:#ed1c24;fill-opacity:1;fill-rule:nonzero;stroke:none"
            d="m 722.52,330.73 c 6.679,0 10.41,-4.867 10.41,-15.843 0,-10.52 -2.938,-15.5 -10.176,-15.5 -7.363,0 -10.418,5.312 -10.418,15.953 0,9.055 3.055,15.39 10.184,15.39 z m -2.598,-44.242 c 5.996,0 9.953,2.371 12.441,4.414 l 0.227,-3.625 14.375,-0.004 v 76.489 l -14.602,0.008 v -24.329 c -3.047,2.379 -6.113,4.192 -12.675,4.192 -13.231,0 -22.059,-12.676 -22.059,-27.949 0,-20.258 11.426,-29.196 22.293,-29.196"/><path
            id="path40"
            style="fill:#ed1c24;fill-opacity:1;fill-rule:nonzero;stroke:none"
            d="m 771.758,320.543 c 1.133,6.676 4.406,10.406 10.402,10.406 6.231,0 9.617,-4.414 10.078,-10.406 z m 10.519,23.082 c -15.839,0 -25.566,-10.977 -25.566,-28.516 0,-17.988 9.832,-28.629 25.449,-28.629 12.684,0 20.371,7.243 23.77,18.559 l -14.825,0.117 c -1.808,-4.644 -5.312,-5.773 -8.828,-5.773 -5.089,0 -9.726,2.262 -10.636,10.297 h 35.078 c 0.117,0.566 0.566,3.39 0.566,6.336 0,15.16 -8.945,27.609 -25.008,27.609"/><path
            id="path42"
            style="fill:#ed1c24;fill-opacity:1;fill-rule:nonzero;stroke:none"
            d="m 837.402,298.816 c -5.429,0 -8.379,2.602 -9.062,6.34 h -14.363 c 1.464,-9.734 8.711,-18.562 22.742,-18.562 15.051,-0.004 23.761,7.578 23.761,17.871 0,9.394 -6.679,14.488 -13.808,16.074 -12.219,2.715 -16.399,2.039 -16.399,6.449 0,2.723 2.832,4.641 7.344,4.641 4.875,0 7.024,-2.383 7.59,-5.891 h 14.141 c -0.899,9.621 -7.813,17.766 -21.731,17.77 -15.047,0 -21.941,-8.938 -21.941,-17.653 0,-8.14 6.679,-13.683 14.597,-15.382 11.086,-2.379 15.723,-1.817 15.723,-6.797 0,-2.602 -3.281,-4.86 -8.594,-4.86"/><path
            id="path44"
            style="fill:#ed1c24;fill-opacity:1;fill-rule:nonzero;stroke:none"
            d="m 933.027,287.27 26.7,76.257 -16.629,0.008 -17.2,-54.09 -17.644,54.09 H 891.73 l 26.7,-76.265 h 14.597"/><path
            id="path46"
            style="fill:#ed1c24;fill-opacity:1;fill-rule:nonzero;stroke:none"
            d="m 983.957,330.941 c 6.231,0 9.617,-4.414 10.078,-10.406 h -20.48 c 1.125,6.676 4.406,10.406 10.402,10.406 z m 0,-44.468 c 12.684,0 20.373,7.242 23.773,18.554 l -14.828,0.118 c -1.808,-4.645 -5.312,-5.77 -8.828,-5.77 -5.09,0 -9.726,2.258 -10.636,10.297 h 35.082 c 0.1,0.566 0.56,3.394 0.56,6.336 0,15.156 -8.94,27.609 -25.006,27.609 -15.84,0 -25.566,-10.976 -25.566,-28.515 0,-17.989 9.832,-28.629 25.449,-28.629"/><path
            id="path48"
            style="fill:#ed1c24;fill-opacity:1;fill-rule:nonzero;stroke:none"
            d="m 1033.54,313.625 c 0,11.773 4.53,16.074 11.2,16.074 h 6.11 v 13.008 c -1.58,0.68 -3.06,0.793 -5.55,0.793 -3.62,0 -8.6,-2.035 -11.76,-6.453 l -0.23,5.66 h -14.37 v -55.441 h 14.6 v 26.359"/><path
            id="path50"
            style="fill:#ed1c24;fill-opacity:1;fill-rule:nonzero;stroke:none"
            d="m 1111.28,287.258 -21.39,32.93 19.47,22.519 h -16.86 l -18.79,-21.273 v 42.316 l -14.59,0.004 v -76.488 l 14.59,-0.008 v 16.183 l 6,6.563 14.6,-22.746 h 16.97"/><path
            id="path52"
            style="fill:#ed1c24;fill-opacity:1;fill-rule:nonzero;stroke:none"
            d="m 1138.79,330.938 c 6.22,0 9.62,-4.411 10.07,-10.407 h -20.48 c 1.13,6.676 4.41,10.407 10.41,10.407 z m 0,-44.469 c 12.68,0 20.37,7.242 23.76,18.554 l -14.82,0.118 c -1.81,-4.645 -5.32,-5.774 -8.83,-5.774 -5.09,0 -9.73,2.262 -10.64,10.297 h 35.08 c 0.12,0.566 0.57,3.395 0.57,6.34 0,15.156 -8.95,27.605 -25.01,27.605 -15.83,0 -25.57,-10.972 -25.57,-28.511 0,-17.993 9.84,-28.629 25.46,-28.629"/><path
            id="path54"
            style="fill:#ed1c24;fill-opacity:1;fill-rule:nonzero;stroke:none"
            d="m 1188.25,315.539 c 0,11.551 3.51,14.941 9.73,14.941 3.62,0 8.04,-2.378 8.04,-9.843 v -33.383 h 14.59 v 34.285 c 0,12.902 -7.12,21.84 -19.13,21.84 -4.41,0 -9.39,-1.809 -13.23,-4.641 v 25.004 l -14.6,0.008 v -76.492 l 14.6,-0.004 v 28.285"/><path
            id="path56"
            style="fill:#ed1c24;fill-opacity:1;fill-rule:nonzero;stroke:none"
            d="m 1247.32,313.621 c 0,11.77 4.53,16.07 11.21,16.07 h 6.11 v 13.012 c -1.58,0.676 -3.06,0.793 -5.55,0.793 -3.61,0 -8.59,-2.043 -11.77,-6.453 l -0.22,5.66 h -14.37 v -55.449 h 14.59 v 26.367"/><path
            id="path58"
            style="fill:#ed1c24;fill-opacity:1;fill-rule:nonzero;stroke:none"
            d="m 1293.27,298.797 c -5.43,0 -8.37,2.601 -9.04,6.34 h -14.38 c 1.48,-9.735 8.72,-18.563 22.76,-18.567 15.05,0 23.75,7.582 23.75,17.883 0,9.395 -6.67,14.481 -13.8,16.067 -12.22,2.714 -16.41,2.039 -16.41,6.445 0,2.723 2.83,4.644 7.36,4.644 4.86,0 7.01,-2.379 7.57,-5.882 h 14.15 c -0.9,9.613 -7.81,17.761 -21.72,17.761 -15.05,0.008 -21.96,-8.933 -21.96,-17.648 0,-8.145 6.67,-13.688 14.6,-15.391 11.09,-2.379 15.73,-1.812 15.73,-6.789 0,-2.609 -3.29,-4.863 -8.61,-4.863"/><path
            id="path60"
            style="fill:#ed1c24;fill-opacity:1;fill-rule:nonzero;stroke:none"
            d="m 1340.13,315.086 c 0,10.523 2.95,15.504 10.18,15.504 7.37,0 10.41,-5.317 10.41,-15.953 0,-9.051 -3.04,-15.391 -10.17,-15.391 -6.69,0 -10.42,4.863 -10.42,15.84 z m 35.31,-0.793 c 0,20.254 -11.44,29.195 -22.29,29.195 -6,0 -9.96,-2.371 -12.46,-4.414 v 3.625 h -14.6 v -76.488 h 14.6 v 24.32 c 3.07,-2.375 6.12,-4.183 12.68,-4.183 13.24,0 22.07,12.675 22.07,27.945"/><path
            id="path62"
            style="fill:#ed1c24;fill-opacity:1;fill-rule:nonzero;stroke:none"
            d="m 1407.7,330.926 c 6.22,0 9.62,-4.414 10.06,-10.41 h -20.47 c 1.13,6.675 4.41,10.41 10.41,10.41 z m 0,-44.469 c 12.67,0 20.37,7.242 23.77,18.555 l -14.84,0.113 c -1.81,-4.641 -5.31,-5.766 -8.82,-5.766 -5.09,0 -9.72,2.254 -10.64,10.293 h 35.08 c 0.11,0.567 0.56,3.391 0.56,6.336 0,15.164 -8.93,27.61 -25,27.61 -15.84,0.004 -25.57,-10.973 -25.57,-28.512 0,-17.988 9.84,-28.629 25.46,-28.629"/><path
            id="path64"
            style="fill:#ed1c24;fill-opacity:1;fill-rule:nonzero;stroke:none"
            d="m 1457.28,313.609 c 0,11.77 4.52,16.071 11.2,16.071 h 6.1 v 13.015 c -1.58,0.672 -3.06,0.789 -5.54,0.789 -3.63,0 -8.6,-2.039 -11.76,-6.449 l -0.24,5.66 h -14.36 V 287.25 h 14.6 v 26.359"/><path
            id="path66"
            style="fill:#ed1c24;fill-opacity:1;fill-rule:nonzero;stroke:none"
            d="m 1503.21,298.793 c -5.43,0 -8.37,2.598 -9.04,6.332 h -14.37 c 1.47,-9.73 8.71,-18.559 22.74,-18.559 15.05,-0.003 23.76,7.579 23.76,17.875 0,9.395 -6.67,14.481 -13.8,16.071 -12.22,2.718 -16.42,2.039 -16.42,6.449 0,2.719 2.84,4.644 7.37,4.644 4.86,-0.003 7.01,-2.382 7.58,-5.89 h 14.14 c -0.9,9.617 -7.81,17.765 -21.72,17.769 -15.05,0 -21.96,-8.941 -21.96,-17.656 0,-8.14 6.67,-13.687 14.59,-15.379 11.1,-2.39 15.74,-1.824 15.74,-6.797 0,-2.605 -3.28,-4.863 -8.61,-4.859"/><path
            id="path68"
            style="fill:#ed1c24;fill-opacity:1;fill-rule:nonzero;stroke:none"
            d="m 1558.34,330.691 c 7.24,0 10.52,-5.765 10.52,-15.386 0,-11.086 -3.28,-15.953 -10.52,-15.953 -7.25,0 -10.53,4.867 -10.53,15.953 0,9.621 3.28,15.386 10.53,15.386 z m 0,-44.238 c 15.83,0 25.23,10.746 25.23,29.078 0,16.293 -9.05,28.063 -25.23,28.063 -16.18,0 -25.23,-11.77 -25.23,-28.063 0,-18.332 9.38,-29.078 25.23,-29.078"/><path
            id="path70"
            style="fill:#ed1c24;fill-opacity:1;fill-rule:nonzero;stroke:none"
            d="m 1607.91,315.531 c 0,11.543 3.39,14.938 9.62,14.938 3.61,-0.008 8.14,-2.156 8.14,-9.852 v -33.379 h 14.6 v 34.289 c 0,12.899 -7.12,21.836 -19.13,21.836 -4.41,0 -9.38,-1.691 -13.23,-4.523 l -0.22,3.848 h -14.38 v -55.442 h 14.6 v 28.285"/><path
            id="path72"
            style="fill:#ed1c24;fill-opacity:1;fill-rule:nonzero;stroke:none"
            d="m 1674.69,330.691 c 6.9,0 10.18,-4.753 10.18,-15.613 0,-10.867 -3.28,-15.73 -10.18,-15.73 -7.37,0 -10.65,5.09 -10.65,16.066 0,9.387 3.4,15.277 10.65,15.277 z m -0.91,-44.242 c 4.86,0 9.39,1.582 13.47,4.973 2.49,-3.168 5.77,-4.524 10.29,-4.524 3.28,0 4.86,0.454 6.56,1.02 v 11.43 h -2.6 c -1.69,0 -2.71,1.359 -2.71,3.164 v 40.172 h -14.38 l -0.22,-3.168 c -2.71,2.488 -6.34,4.078 -10.98,4.078 -13.69,0 -23.86,-11.887 -23.86,-27.84 0,-17.77 8.93,-29.305 24.43,-29.305"/><path
            id="path74"
            style="fill:#ed1c24;fill-opacity:1;fill-rule:nonzero;stroke:none"
            d="m 1727.77,286.898 c 3.62,-0.003 6.45,1.352 6.45,1.352 v 10.977 h -2.6 c -2.04,0 -4.2,1.027 -4.2,3.851 v 60.652 h -14.59 v -60.875 c 0,-13.355 7.47,-15.957 14.94,-15.957"/><path
            id="path76"
            style="fill:#ed1c24;fill-opacity:1;fill-rule:nonzero;stroke:none"
            d="m 1763.42,298.777 c -5.43,0 -8.38,2.598 -9.05,6.336 h -14.38 c 1.48,-9.73 8.72,-18.558 22.75,-18.558 15.05,0 23.76,7.578 23.76,17.879 0,9.394 -6.68,14.48 -13.8,16.066 -12.22,2.715 -16.41,2.039 -16.41,6.453 0,2.711 2.83,4.637 7.35,4.637 4.87,0 7.01,-2.379 7.58,-5.883 h 14.15 c -0.91,9.613 -7.81,17.762 -21.73,17.762 -15.05,0 -21.95,-8.938 -21.95,-17.649 0,-8.148 6.68,-13.691 14.6,-15.386 11.08,-2.379 15.73,-1.813 15.73,-6.793 0,-2.602 -3.28,-4.864 -8.6,-4.864"/><path
            id="path78"
            style="fill:#ed1c24;fill-opacity:1;fill-rule:nonzero;stroke:none"
            d="m 41.7539,198.785 c -13.8125,3.621 -23.2031,3.738 -23.2031,10.75 0,5.434 5.2109,8.598 11.9961,8.598 7.4648,0 11.4258,-4.414 12.2226,-9.731 h 16.2969 c -1.3594,11.2 -8.8359,23.422 -28.5195,23.422 -16.6289,0 -28.06252,-8.941 -28.06252,-22.515 0,-12.899 10.18752,-18.672 18.89842,-20.938 15.4961,-3.953 23.5352,-3.953 23.5352,-11.648 0,-6.114 -5.9961,-9.957 -14.4844,-9.957 -7.9219,0 -13.1172,4.976 -13.9141,11.539 L 0,178.305 c 1.23438,-12.45 10.1758,-25.461 30.0977,-25.461 18.332,0 30.7734,9.957 30.7734,24.215 0,11.656 -6.2188,18.332 -19.1172,21.726"/><path
            id="path80"
            style="fill:#ed1c24;fill-opacity:1;fill-rule:nonzero;stroke:none"
            d="m 102.984,209.641 -11.5465,-35.864 -11.3086,35.864 -15.2812,0.004 c 6.3398,-18.446 13.2382,-37.684 19.5781,-56.125 -0.5664,-1.582 -1.4649,-3.625 -2.2617,-5.207 -0.6836,-1.469 -2.0352,-2.829 -5.0938,-2.829 h -5.8828 v -12.332 c 2.4844,-0.336 5.1992,-0.453 6.793,-0.453 7.914,0 14.25,4.414 16.7461,11.543 l 23.3044,65.399 h -15.047"/><path
            id="path82"
            style="fill:#ed1c24;fill-opacity:1;fill-rule:nonzero;stroke:none"
            d="m 156.516,154.195 h 14.597 v 34.289 c 0,12.903 -7.133,21.836 -19.125,21.836 -4.414,0 -9.39,-1.695 -13.238,-4.519 l -0.23,3.84 h -14.368 v -55.446 h 14.598 v 28.289 c 0,11.543 3.398,14.942 9.613,14.942 3.625,0 8.153,-2.149 8.153,-9.852 v -33.379"/><path
            id="path84"
            style="fill:#ed1c24;fill-opacity:1;fill-rule:nonzero;stroke:none"
            d="m 215.484,181.805 c 0,-10.524 -2.945,-15.504 -10.187,-15.504 -7.356,0 -10.41,5.316 -10.41,15.953 0,9.059 3.054,15.391 10.183,15.391 6.672,0 10.414,-4.868 10.414,-15.84 z m -13.238,28.742 c -13.246,0 -22.07,-12.672 -22.07,-27.945 0,-20.254 11.437,-29.2 22.289,-29.2 6,0 9.957,2.375 12.453,4.414 l 0.219,-3.625 h 14.379 v 76.493 h -14.598 v -24.325 c -3.059,2.375 -6.109,4.188 -12.672,4.188"/><path
            id="path86"
            style="fill:#ed1c24;fill-opacity:1;fill-rule:nonzero;stroke:none"
            d="m 257.141,154.191 v 55.45 h -14.602 v -55.45 h 14.602"/><path
            id="path88"
            style="fill:#ed1c24;fill-opacity:1;fill-rule:nonzero;stroke:none"
            d="m 257.246,230.684 h -14.82 v -15.618 h 14.82 v 15.618"/><path
            id="path90"
            style="fill:#ed1c24;fill-opacity:1;fill-rule:nonzero;stroke:none"
            d="m 316.773,172.977 h -14.707 c -1.363,-4.754 -4.187,-6.676 -8.714,-6.676 -7.579,0 -11.426,5.316 -11.426,15.726 0,10.641 3.847,15.618 10.969,15.614 4.414,0 7.472,-2.036 8.71,-7.125 h 14.833 c -1.813,11.761 -10.075,20.023 -23.543,20.023 -15.614,0.008 -25.68,-10.746 -25.68,-28.512 0,-17.875 10.066,-28.625 26.137,-28.632 12.562,0 20.937,7.585 23.421,19.582"/><path
            id="path92"
            style="fill:#ed1c24;fill-opacity:1;fill-rule:nonzero;stroke:none"
            d="m 337.492,182.367 c 0,9.391 3.391,15.274 10.633,15.274 6.906,0 10.188,-4.75 10.188,-15.618 0,-10.859 -3.282,-15.722 -10.188,-15.722 -7.359,0 -10.633,5.09 -10.633,16.066 z m 23.196,-23.988 c 2.488,-3.172 5.769,-4.527 10.292,-4.527 3.282,0 4.864,0.453 6.567,1.019 v 11.43 h -2.606 c -1.695,0 -2.714,1.359 -2.714,3.164 v 40.172 h -14.364 l -0.23,-3.172 c -2.715,2.488 -6.344,4.074 -10.977,4.074 -13.695,0 -23.871,-11.883 -23.871,-27.832 0,-17.769 8.938,-29.312 24.438,-29.312 4.863,0 9.39,1.589 13.465,4.984"/><path
            id="path94"
            style="fill:#ed1c24;fill-opacity:1;fill-rule:nonzero;stroke:none"
            d="m 406.527,153.848 c 4.414,0 8.489,1.355 8.489,1.355 v 11.199 h -5.661 c -1.808,0 -4.07,1.25 -4.07,4.078 v 26.477 h 11.313 v 12.676 h -11.313 v 20.254 h -14.601 v -20.25 h -8.364 v -12.676 h 8.364 v -26.703 c 0,-13.356 7.921,-16.406 15.843,-16.41"/><path
            id="path96"
            style="fill:#ed1c24;fill-opacity:1;fill-rule:nonzero;stroke:none"
            d="m 477.715,166.297 c -7.352,0 -10.406,5.312 -10.406,15.945 0,9.059 3.054,15.395 10.175,15.395 6.676,0 10.418,-4.871 10.418,-15.84 0,-10.524 -2.945,-15.5 -10.187,-15.5 z m 9.625,40.055 c -3.063,2.371 -6.113,4.183 -12.672,4.183 -13.246,0 -22.07,-12.676 -22.07,-27.949 0,-20.254 11.429,-29.191 22.289,-29.191 5.996,0 9.957,2.375 12.453,4.41 l 0.219,-3.617 h 14.375 v 76.488 H 487.34 v -24.324"/><path
            id="path98"
            style="fill:#ed1c24;fill-opacity:1;fill-rule:nonzero;stroke:none"
            d="m 533.063,153.5 c 4.41,0 9.39,1.699 13.242,4.523 l 0.222,-3.839 h 14.368 v 55.445 h -14.59 v -28.18 c 0,-11.312 -3.395,-15.051 -9.621,-15.051 -3.621,0 -8.153,2.493 -8.153,9.957 v 33.274 h -14.59 V 175.34 c 0,-12.902 7.129,-21.84 19.122,-21.84"/><path
            id="path100"
            style="fill:#ed1c24;fill-opacity:1;fill-rule:nonzero;stroke:none"
            d="m 627.004,166.172 c -6.68,0.004 -10.41,4.867 -10.41,15.844 0,10.519 2.937,15.504 10.176,15.496 7.351,0 10.418,-5.313 10.418,-15.949 0,-9.055 -3.067,-15.391 -10.184,-15.391 z m 24.883,15.047 c 0,20.254 -11.418,29.195 -22.285,29.195 -5.997,0 -9.961,-2.367 -12.442,-4.41 v 3.625 h -14.601 v -76.492 h 14.601 v 24.328 c 3.047,-2.379 6.113,-4.195 12.664,-4.195 13.242,0 22.063,12.675 22.063,27.949"/><path
            id="path102"
            style="fill:#ed1c24;fill-opacity:1;fill-rule:nonzero;stroke:none"
            d="m 684.152,197.855 c 6.231,0 9.629,-4.414 10.078,-10.41 h -20.48 c 1.133,6.672 4.414,10.41 10.402,10.41 z m 23.758,-25.914 -14.812,0.114 c -1.817,-4.641 -5.325,-5.77 -8.828,-5.77 -5.09,0 -9.739,2.262 -10.637,10.301 h 35.078 c 0.117,0.559 0.566,3.387 0.566,6.332 0,15.16 -8.945,27.613 -25.007,27.613 -15.84,0 -25.567,-10.98 -25.567,-28.519 0,-17.992 9.832,-28.625 25.449,-28.625 12.676,0 20.371,7.242 23.758,18.554"/><path
            id="path104"
            style="fill:#ed1c24;fill-opacity:1;fill-rule:nonzero;stroke:none"
            d="m 733.723,203.957 -0.215,5.66 -14.375,0.004 V 154.18 l 14.59,-0.008 v 26.363 c 0,11.77 4.531,16.07 11.211,16.07 h 6.101 v 13.012 c -1.582,0.68 -3.047,0.789 -5.547,0.789 -3.613,0 -8.593,-2.035 -11.765,-6.449"/><path
            id="path106"
            style="fill:#ed1c24;fill-opacity:1;fill-rule:nonzero;stroke:none"
            d="m 779.68,165.715 c -5.43,0 -8.379,2.598 -9.055,6.34 H 756.25 c 1.477,-9.735 8.711,-18.567 22.746,-18.567 15.047,0 23.758,7.582 23.758,17.883 0,9.395 -6.68,14.481 -13.797,16.067 -12.227,2.714 -16.406,2.039 -16.406,6.449 0,2.718 2.832,4.64 7.351,4.64 4.864,0 7.012,-2.379 7.578,-5.882 h 14.141 c -0.898,9.613 -7.801,17.761 -21.719,17.761 -15.058,0 -21.953,-8.937 -21.953,-17.648 0,-8.145 6.68,-13.692 14.602,-15.387 11.094,-2.379 15.722,-1.812 15.722,-6.793 0,-2.601 -3.281,-4.863 -8.593,-4.863"/><path
            id="path108"
            style="fill:#ed1c24;fill-opacity:1;fill-rule:nonzero;stroke:none"
            d="m 834.797,197.625 c 7.234,0 10.516,-5.777 10.516,-15.395 0,-11.089 -3.282,-15.949 -10.516,-15.949 -7.246,0 -10.527,4.864 -10.527,15.953 0,9.621 3.281,15.391 10.527,15.391 z m 0,-44.242 c 15.84,-0.004 25.234,10.742 25.234,29.07 0,16.293 -9.062,28.067 -25.234,28.07 -16.184,0 -25.234,-11.769 -25.234,-28.062 0,-18.332 9.394,-29.078 25.234,-29.078"/><path
            id="path110"
            style="fill:#ed1c24;fill-opacity:1;fill-rule:nonzero;stroke:none"
            d="m 916.73,154.168 v 34.285 c 0,12.902 -7.128,21.836 -19.121,21.836 -4.414,0 -9.394,-1.691 -13.242,-4.523 l -0.226,3.847 h -14.375 v -55.445 h 14.601 v 28.285 c 0,11.543 3.399,14.942 9.617,14.942 3.625,0 8.145,-2.153 8.145,-9.848 v -33.379 h 14.601"/><path
            id="path112"
            style="fill:#ed1c24;fill-opacity:1;fill-rule:nonzero;stroke:none"
            d="m 975.695,154.164 v 34.285 c 0,12.903 -7.129,21.836 -19.132,21.836 -4.415,0.004 -9.383,-1.687 -13.231,-4.519 l -0.227,3.847 H 928.73 v -55.445 h 14.602 v 28.285 c 0,11.543 3.387,14.942 9.617,14.942 3.614,-0.004 8.145,-2.153 8.145,-9.852 v -33.379 h 14.601"/><path
            id="path114"
            style="fill:#ed1c24;fill-opacity:1;fill-rule:nonzero;stroke:none"
            d="m 1010.22,197.84 c 6.23,0 9.62,-4.414 10.07,-10.406 h -20.474 c 1.134,6.675 4.414,10.406 10.404,10.406 z M 984.766,182 c 0,-17.988 9.836,-28.629 25.454,-28.629 12.67,0 20.37,7.242 23.76,18.555 l -14.82,0.117 c -1.82,-4.645 -5.32,-5.77 -8.83,-5.77 -5.09,0 -9.73,2.258 -10.631,10.297 h 35.081 c 0.11,0.567 0.56,3.391 0.56,6.332 0,15.161 -8.94,27.614 -25.01,27.614 -15.838,0 -25.564,-10.977 -25.564,-28.516"/><path
            id="path116"
            style="fill:#ed1c24;fill-opacity:1;fill-rule:nonzero;stroke:none"
            d="m 1044.52,230.652 v -60.875 c 0,-13.347 7.46,-15.957 14.93,-15.957 3.63,0 6.46,1.356 6.46,1.356 v 10.98 l -2.61,0.004 c -2.03,0 -4.18,1.016 -4.18,3.844 v 60.648 h -14.6"/><path
            id="path118"
            style="fill:#ed1c24;fill-opacity:1;fill-rule:nonzero;stroke:none"
            d="m 1115.48,182.219 c 0,9.054 3.05,15.39 10.17,15.39 6.68,0 10.42,-4.867 10.42,-15.839 0,-10.524 -2.94,-15.5 -10.18,-15.5 -7.36,0 -10.41,5.316 -10.41,15.949 z m 20.03,-24.438 0.21,-3.625 h 14.39 v 76.492 h -14.6 V 206.32 c -3.07,2.379 -6.11,4.192 -12.68,4.192 -13.24,0 -22.07,-12.676 -22.07,-27.949 0,-20.254 11.44,-29.196 22.3,-29.196 5.99,0 9.95,2.371 12.45,4.414"/><path
            id="path120"
            style="fill:#ed1c24;fill-opacity:1;fill-rule:nonzero;stroke:none"
            d="m 1185.3,197.828 c 6.22,0 9.62,-4.406 10.07,-10.402 l -20.48,0.004 c 1.14,6.672 4.42,10.398 10.41,10.398 z m 23.76,-25.91 -14.82,0.117 c -1.81,-4.644 -5.32,-5.773 -8.82,-5.773 -5.1,0 -9.74,2.261 -10.63,10.304 l 35.06,-0.003 c 0.12,0.566 0.57,3.39 0.57,6.335 0,15.157 -8.94,27.61 -25,27.61 -15.85,0.004 -25.58,-10.973 -25.58,-28.512 0,-17.988 9.85,-28.629 25.46,-28.633 12.68,0 20.36,7.242 23.76,18.555"/><path
            id="path122"
            style="fill:#ed1c24;fill-opacity:1;fill-rule:nonzero;stroke:none"
            d="m 1233.41,177.352 c 11.08,-2.379 15.72,-1.813 15.72,-6.793 0,-2.602 -3.27,-4.864 -8.6,-4.864 -5.43,0 -8.37,2.606 -9.05,6.34 h -14.37 c 1.47,-9.73 8.72,-18.558 22.75,-18.558 15.05,0 23.76,7.582 23.76,17.875 0,9.398 -6.68,14.488 -13.8,16.074 -12.22,2.715 -16.41,2.031 -16.41,6.445 0,2.719 2.82,4.645 7.35,4.645 4.87,0 7.01,-2.383 7.58,-5.891 h 14.15 c -0.91,9.617 -7.81,17.766 -21.73,17.766 -15.05,0 -21.95,-8.938 -21.95,-17.653 0,-8.144 6.67,-13.687 14.6,-15.386"/><path
            id="path124"
            style="fill:#ed1c24;fill-opacity:1;fill-rule:nonzero;stroke:none"
            d="m 1320.77,229.848 h -14.6 v -20.25 h -8.36 v -12.676 h 8.36 v -26.703 c 0,-13.356 7.93,-16.406 15.85,-16.406 4.42,0 8.49,1.355 8.49,1.355 v 11.203 h -5.66 c -1.81,0 -4.08,1.242 -4.08,4.074 v 26.477 h 11.32 v 12.676 h -11.32 v 20.25"/><path
            id="path126"
            style="fill:#ed1c24;fill-opacity:1;fill-rule:nonzero;stroke:none"
            d="m 1374.08,209.598 c -1.58,0.672 -3.05,0.793 -5.54,0.793 -3.63,0 -8.61,-2.043 -11.77,-6.453 l -0.23,5.66 h -14.37 v -55.45 h 14.6 v 26.368 c 0,11.765 4.53,16.07 11.21,16.07 h 6.1 v 13.012"/><path
            id="path128"
            style="fill:#ed1c24;fill-opacity:1;fill-rule:nonzero;stroke:none"
            d="m 1404.76,166.254 c -7.36,0 -10.64,5.098 -10.64,16.074 0,9.391 3.4,15.27 10.64,15.27 6.89,0 10.17,-4.754 10.17,-15.618 0,-10.863 -3.28,-15.726 -10.17,-15.726 z m 22.86,-12.445 c 3.28,0 4.86,0.453 6.56,1.019 v 11.426 h -2.61 c -1.69,0 -2.72,1.355 -2.72,3.168 v 40.172 h -14.37 l -0.21,-3.176 c -2.73,2.492 -6.35,4.078 -10.99,4.078 -13.69,0.004 -23.88,-11.879 -23.88,-27.832 0,-17.766 8.95,-29.309 24.45,-29.312 4.87,0 9.38,1.586 13.47,4.98 2.49,-3.168 5.77,-4.523 10.3,-4.523"/><path
            id="path130"
            style="fill:#ed1c24;fill-opacity:1;fill-rule:nonzero;stroke:none"
            d="m 1490.43,154.145 v 34.285 c 0,12.902 -7.14,21.836 -19.12,21.836 -4.41,0 -9.4,-1.696 -13.24,-4.52 l -0.23,3.848 h -14.37 v -55.449 h 14.6 v 28.285 c 0,11.547 3.4,14.941 9.61,14.941 3.63,0 8.15,-2.148 8.15,-9.844 v -33.382 h 14.6"/><path
            id="path132"
            style="fill:#ed1c24;fill-opacity:1;fill-rule:nonzero;stroke:none"
            d="m 1545.88,171.34 c 0,9.394 -6.68,14.484 -13.8,16.07 -12.23,2.715 -16.41,2.035 -16.41,6.445 0,2.719 2.84,4.645 7.35,4.645 4.87,0 7.02,-2.379 7.59,-5.887 h 14.14 c -0.9,9.617 -7.81,17.766 -21.73,17.766 -15.05,0 -21.95,-8.938 -21.95,-17.652 0,-8.145 6.68,-13.692 14.6,-15.391 11.09,-2.375 15.73,-1.813 15.73,-6.785 0,-2.61 -3.28,-4.863 -8.6,-4.863 -5.43,0 -8.38,2.597 -9.05,6.332 l -14.37,0.003 c 1.47,-9.73 8.71,-18.562 22.74,-18.562 15.05,0 23.76,7.582 23.76,17.879"/><path
            id="path134"
            style="fill:#ed1c24;fill-opacity:1;fill-rule:nonzero;stroke:none"
            d="m 1579.84,197.48 c 7.36,0 10.4,-5.32 10.4,-15.953 0,-9.054 -3.04,-15.39 -10.17,-15.39 -6.68,0 -10.41,4.863 -10.41,15.84 0,10.519 2.94,15.503 10.18,15.503 z m -24.21,12.11 v -76.492 h 14.6 v 24.324 c 3.05,-2.375 6.1,-4.188 12.66,-4.188 13.25,0 22.07,12.676 22.07,27.95 0,20.254 -11.43,29.195 -22.28,29.195 -6,0 -9.96,-2.371 -12.45,-4.414 v 3.625 h -14.6"/><path
            id="path136"
            style="fill:#ed1c24;fill-opacity:1;fill-rule:nonzero;stroke:none"
            d="m 1626.48,182.199 c 0,9.621 3.28,15.387 10.52,15.387 7.24,0 10.52,-5.766 10.52,-15.387 0,-11.09 -3.28,-15.953 -10.52,-15.953 -7.24,0 -10.52,4.863 -10.52,15.953 z m 35.76,0.227 c 0,16.293 -9.06,28.058 -25.24,28.058 -16.18,0 -25.24,-11.761 -25.24,-28.054 0,-18.328 9.39,-29.082 25.24,-29.082 15.83,0 25.24,10.746 25.24,29.078"/><path
            id="path138"
            style="fill:#ed1c24;fill-opacity:1;fill-rule:nonzero;stroke:none"
            d="m 1686.68,203.926 -0.22,5.656 h -14.38 v -55.441 h 14.6 V 180.5 c 0,11.77 4.53,16.07 11.2,16.07 h 6.11 v 13.012 c -1.58,0.676 -3.05,0.793 -5.54,0.793 -3.63,0 -8.61,-2.043 -11.77,-6.449"/><path
            id="path140"
            style="fill:#ed1c24;fill-opacity:1;fill-rule:nonzero;stroke:none"
            d="m 1731.95,153.793 c 4.42,0 8.49,1.355 8.49,1.355 v 11.204 h -5.65 c -1.82,0 -4.09,1.25 -4.09,4.078 v 26.472 h 11.32 v 12.676 h -11.32 v 20.254 l -14.59,0.004 v -20.254 h -8.37 v -12.676 h 8.37 v -26.703 c 0,-13.348 7.92,-16.406 15.84,-16.41"/><path
            id="path142"
            style="fill:#ed1c24;fill-opacity:1;fill-rule:nonzero;stroke:none"
            d="m 1781.64,187.398 c -12.23,2.715 -16.41,2.04 -16.41,6.45 0,2.718 2.83,4.64 7.36,4.64 4.86,0 7.01,-2.379 7.58,-5.883 h 14.14 c -0.9,9.614 -7.81,17.762 -21.72,17.762 -15.05,0 -21.96,-8.937 -21.96,-17.648 0,-8.145 6.68,-13.692 14.6,-15.387 11.09,-2.383 15.73,-1.816 15.73,-6.793 0,-2.601 -3.28,-4.863 -8.61,-4.863 -5.43,0 -8.37,2.597 -9.04,6.336 h -14.37 c 1.47,-9.731 8.71,-18.563 22.74,-18.563 15.05,0 23.76,7.582 23.76,17.883 0,9.395 -6.67,14.481 -13.8,16.066"/><path
            id="path144"
            style="fill:#ed1c24;fill-opacity:1;fill-rule:nonzero;stroke:none"
            d="m 41.7539,65.6875 c -13.8125,3.6211 -23.2031,3.7383 -23.2031,10.75 0,5.4297 5.2109,8.5977 11.9961,8.5977 7.4648,0 11.4258,-4.4141 12.2226,-9.7305 H 59.0664 C 57.707,86.5078 50.2305,98.7305 30.5469,98.7305 13.918,98.7305 2.48438,89.7891 2.48438,76.2109 2.48438,63.3086 12.6719,57.543 21.3828,55.2773 36.8789,51.3203 44.918,51.3203 44.918,43.6211 c 0,-6.1094 -5.9961,-9.957 -14.4844,-9.957 -7.9219,0 -13.1172,4.9804 -13.9141,11.5429 L 0,45.207 C 1.23438,32.7617 10.1758,19.7539 30.0977,19.7539 c 18.332,0 30.7734,9.9492 30.7734,24.2109 0,11.6524 -6.2188,18.3282 -19.1172,21.7227"/><path
            id="path146"
            style="fill:#ed1c24;fill-opacity:1;fill-rule:nonzero;stroke:none"
            d="M 71.6406,81.9766 H 86.4609 V 97.5898 H 71.6406 V 81.9766"/><path
            id="path148"
            style="fill:#ed1c24;fill-opacity:1;fill-rule:nonzero;stroke:none"
            d="M 71.7539,21.1016 H 86.3516 V 76.5469 H 71.7539 V 21.1016"/><path
            id="path150"
            style="fill:#ed1c24;fill-opacity:1;fill-rule:nonzero;stroke:none"
            d="m 127.203,77.2305 c -4.41,0 -9.39,-1.6992 -13.238,-4.5313 l -0.231,3.8477 H 99.3711 V 21.1016 h 14.5939 v 28.2851 c 0,11.543 3.398,14.9414 9.613,14.9414 3.625,0 8.152,-2.1484 8.152,-9.8476 V 21.1016 h 14.598 v 34.289 c 0,12.8985 -7.133,21.8399 -19.125,21.8399"/><path
            id="path152"
            style="fill:#ed1c24;fill-opacity:1;fill-rule:nonzero;stroke:none"
            d="m 180.512,33.2109 c -7.356,0 -10.414,5.3125 -10.414,15.9532 0,9.0507 3.058,15.3906 10.187,15.3906 6.676,-0.0039 10.403,-4.875 10.403,-15.8438 0,-10.5234 -2.934,-15.5039 -10.176,-15.5 z m 9.609,40.0508 c -3.047,2.375 -6.105,4.1875 -12.668,4.1914 -13.234,0 -22.062,-12.6758 -22.062,-27.9492 0,-20.2578 11.425,-29.1914 22.297,-29.1914 5.988,0 9.953,2.3711 12.433,4.4023 l 0.231,-3.6132 h 14.371 V 97.5859 H 190.121 V 73.2617"/><path
            id="path154"
            style="fill:#ed1c24;fill-opacity:1;fill-rule:nonzero;stroke:none"
            d="m 239.82,33.207 c -7.359,0 -10.64,5.086 -10.64,16.0664 0,9.3907 3.394,15.2774 10.64,15.2774 6.895,0 10.176,-4.7539 10.176,-15.6172 0,-10.8633 -3.281,-15.7266 -10.176,-15.7266 z m 24.09,3.1641 V 76.543 h -14.363 l -0.227,-3.1719 c -2.718,2.4922 -6.336,4.0781 -10.98,4.0781 -13.688,0 -23.871,-11.8867 -23.871,-27.8359 0,-17.7695 8.941,-29.3008 24.437,-29.3008 4.875,0 9.391,1.582 13.469,4.9688 2.492,-3.1641 5.773,-4.5196 10.301,-4.5196 3.281,0 4.863,0.4492 6.558,1.0117 V 33.207 h -2.597 c -1.699,0 -2.727,1.3555 -2.727,3.1641"/><path
            id="path156"
            style="fill:#ed1c24;fill-opacity:1;fill-rule:nonzero;stroke:none"
            d="m 301.723,33.1992 c -7.578,0 -11.426,5.3242 -11.426,15.7344 0,10.6328 3.848,15.6094 10.973,15.6094 4.414,0 7.472,-2.0352 8.71,-7.1289 h 14.829 C 323,69.1836 314.738,77.4453 301.27,77.4453 c -15.614,0.0039 -25.684,-10.75 -25.684,-28.5117 0,-17.8789 10.07,-28.6211 26.137,-28.6328 12.566,0 20.937,7.5898 23.425,19.5742 h -14.707 c -1.363,-4.75 -4.191,-6.6758 -8.718,-6.6758"/><path
            id="path158"
            style="fill:#ed1c24;fill-opacity:1;fill-rule:nonzero;stroke:none"
            d="m 356.508,33.1992 c -7.356,0 -10.637,5.0899 -10.637,16.0703 0,9.3907 3.399,15.2735 10.637,15.2735 6.894,0 10.176,-4.75 10.176,-15.6133 0,-10.8672 -3.282,-15.7305 -10.176,-15.7305 z m 24.094,3.1719 v 40.1641 h -14.368 l -0.222,-3.168 c -2.719,2.4883 -6.34,4.0781 -10.981,4.0781 -13.687,0 -23.875,-11.8867 -23.875,-27.8398 0,-17.7657 8.942,-29.3047 24.442,-29.3047 4.871,0 9.386,1.582 13.465,4.9805 2.496,-3.1758 5.777,-4.5313 10.304,-4.5313 3.281,0 4.863,0.4609 6.563,1.0234 v 11.4258 h -2.606 c -1.695,0 -2.722,1.3594 -2.722,3.1719"/><path
            id="path160"
            style="fill:#ed1c24;fill-opacity:1;fill-rule:nonzero;stroke:none"
            d="m 413.652,96.7852 -14.593,0.0039 V 76.5352 h -8.364 V 63.8633 h 8.364 V 37.1602 c 0,-13.3516 7.918,-16.4102 15.843,-16.4102 4.411,0 8.489,1.3555 8.489,1.3555 v 11.2031 h -5.661 c -1.812,0 -4.078,1.2461 -4.078,4.0742 v 26.4766 h 11.321 v 12.6719 h -11.321 v 20.2539"/><path
            id="path162"
            style="fill:#ed1c24;fill-opacity:1;fill-rule:nonzero;stroke:none"
            d="m 457.227,33.1953 c -7.243,0 -10.516,4.8633 -10.516,15.9531 0,9.6211 3.273,15.3907 10.516,15.3907 7.246,0 10.523,-5.7696 10.523,-15.3907 0,-11.0898 -3.277,-15.9531 -10.523,-15.9531 z m 0,44.2422 c -16.176,0 -25.223,-11.7656 -25.223,-28.0664 0,-18.3281 9.387,-29.0703 25.223,-29.0703 15.851,0 25.238,10.7422 25.238,29.0703 0,16.3008 -9.055,28.0664 -25.238,28.0664"/><path
            id="path164"
            style="fill:#ed1c24;fill-opacity:1;fill-rule:nonzero;stroke:none"
            d="m 543.359,33.1914 c -7.351,0 -10.406,5.3164 -10.406,15.9531 0,9.0547 3.055,15.3907 10.176,15.3907 6.676,0 10.418,-4.8672 10.418,-15.8399 0,-10.5234 -2.945,-15.5039 -10.188,-15.5039 z M 552.98,73.25 c -3.058,2.3711 -6.109,4.1836 -12.671,4.1836 -13.243,0 -22.067,-12.6758 -22.067,-27.9492 0,-20.25 11.43,-29.1953 22.289,-29.1953 5.996,0 9.957,2.375 12.449,4.414 l 0.223,-3.6211 h 14.375 V 97.5703 H 552.98 V 73.25"/><path
            id="path166"
            style="fill:#ed1c24;fill-opacity:1;fill-rule:nonzero;stroke:none"
            d="m 592.375,54.3555 c 1.133,6.6718 4.414,10.4023 10.41,10.4023 6.219,0 9.617,-4.4062 10.067,-10.4023 z m 10.516,23.0781 c -15.84,0 -25.567,-10.9766 -25.567,-28.5156 0,-17.9922 9.844,-28.6289 25.461,-28.6289 12.664,0 20.36,7.2382 23.758,18.5586 l -14.824,0.1171 c -1.817,-4.6445 -5.321,-5.7734 -8.828,-5.7734 -5.086,0 -9.727,2.2617 -10.633,10.2969 l 35.078,-0.0039 c 0.117,0.5664 0.566,3.3945 0.566,6.3359 0,15.1641 -8.937,27.6133 -25.011,27.6133"/><path
            id="path168"
            style="fill:#ed1c24;fill-opacity:1;fill-rule:nonzero;stroke:none"
            d="m 651.68,36.9219 v 60.6484 h -14.598 v -60.875 c 0,-13.3476 7.461,-15.957 14.93,-15.957 3.625,0 6.457,1.3594 6.457,1.3594 v 10.9765 h -2.61 c -2.031,0 -4.179,1.0156 -4.179,3.8477"/><path
            id="path170"
            style="fill:#ed1c24;fill-opacity:1;fill-rule:nonzero;stroke:none"
            d="m 720.715,33.0742 c -6.68,0 -10.41,4.8633 -10.41,15.8399 0,10.5234 2.929,15.5039 10.175,15.5039 7.352,0 10.418,-5.3242 10.418,-15.9532 0,-9.0546 -3.066,-15.3906 -10.183,-15.3906 z m 2.598,44.2422 c -5.997,0 -9.961,-2.3711 -12.442,-4.4141 v 3.625 H 696.27 V 0.0351563 h 14.601 V 24.3633 c 3.047,-2.375 6.102,-4.1875 12.664,-4.1875 13.242,0 22.063,12.668 22.063,27.9414 0,20.2539 -11.418,29.1953 -22.285,29.1992"/><path
            id="path172"
            style="fill:#ed1c24;fill-opacity:1;fill-rule:nonzero;stroke:none"
            d="m 767.461,54.3438 c 1.125,6.6757 4.406,10.4062 10.402,10.4062 6.231,0 9.617,-4.4102 10.078,-10.4062 z m 10.519,23.082 c -15.839,0 -25.566,-10.9766 -25.566,-28.5156 0,-17.9844 9.832,-28.6289 25.449,-28.6289 12.676,0 20.371,7.246 23.758,18.5585 l -14.812,0.1133 c -1.817,-4.6406 -5.325,-5.7656 -8.829,-5.7656 -5.089,0 -9.738,2.2539 -10.636,10.293 h 35.078 c 0.109,0.5664 0.566,3.3906 0.566,6.3359 0,15.1641 -8.945,27.6094 -25.008,27.6094"/><path
            id="path174"
            style="fill:#ed1c24;fill-opacity:1;fill-rule:nonzero;stroke:none"
            d="m 827.434,70.8633 -0.215,5.6562 H 812.844 V 21.0703 h 14.59 v 26.3672 c 0,11.7695 4.531,16.0703 11.199,16.0703 l 6.113,-0.0039 v 13.0117 c -1.582,0.6836 -3.047,0.7969 -5.547,0.7969 -3.613,0 -8.594,-2.043 -11.765,-6.4492"/><path
            id="path176"
            style="fill:#ed1c24;fill-opacity:1;fill-rule:nonzero;stroke:none"
            d="m 882.668,54.3398 c -12.227,2.7149 -16.406,2.0352 -16.406,6.4454 0,2.7187 2.832,4.6445 7.343,4.6445 4.872,0 7.02,-2.3789 7.586,-5.8867 h 14.141 c -0.898,9.6133 -7.801,17.7656 -21.727,17.7656 -15.05,0 -21.945,-8.9414 -21.945,-17.6523 0,-8.1446 6.68,-13.6915 14.602,-15.3868 11.082,-2.3828 15.722,-1.8164 15.722,-6.789 0,-2.6055 -3.281,-4.8672 -8.593,-4.8672 -5.43,0 -8.379,2.6015 -9.055,6.3359 h -14.375 c 1.477,-9.7304 8.711,-18.5586 22.746,-18.5586 15.047,0 23.758,7.586 23.758,17.8789 0,9.3946 -6.68,14.4844 -13.797,16.0703"/><path
            id="path178"
            style="fill:#ed1c24;fill-opacity:1;fill-rule:nonzero;stroke:none"
            d="m 928.496,33.1836 c -7.234,0 -10.516,4.8633 -10.516,15.9492 0,9.6211 3.282,15.3867 10.516,15.3867 7.246,0 10.527,-5.7656 10.527,-15.3867 0,-11.0859 -3.281,-15.9492 -10.527,-15.9492 z m 0,44.2383 c -16.18,0 -25.223,-11.7696 -25.223,-28.0625 0,-18.336 9.395,-29.0781 25.223,-29.0781 15.852,0 25.234,10.7421 25.234,29.0781 0,16.2929 -9.05,28.0625 -25.234,28.0625"/><path
            id="path180"
            style="fill:#ed1c24;fill-opacity:1;fill-rule:nonzero;stroke:none"
            d="m 991.32,77.1914 c -4.414,0 -9.394,-1.6953 -13.242,-4.5273 l -0.226,3.8476 H 963.477 V 21.0625 h 14.601 v 28.293 c 0,11.539 3.399,14.9336 9.61,14.9336 3.632,0 8.152,-2.1485 8.152,-9.8438 V 21.0625 h 14.6 v 34.293 c 0,12.8984 -7.14,21.8359 -19.12,21.8359"/><path
            id="path182"
            style="fill:#ed1c24;fill-opacity:1;fill-rule:nonzero;stroke:none"
            d="m 1044.85,33.1758 c -7.35,0 -10.63,5.0898 -10.63,16.0664 0,9.3906 3.39,15.2773 10.63,15.2773 6.9,0 10.18,-4.7539 10.18,-15.6211 0,-10.8593 -3.28,-15.7226 -10.18,-15.7226 z m 24.1,3.1601 v 40.1719 l -14.37,0.0039 -0.22,-3.1679 c -2.72,2.4882 -6.34,4.0781 -10.98,4.0781 -13.69,0 -23.88,-11.8867 -23.88,-27.8399 0,-17.7695 8.95,-29.3125 24.45,-29.3125 4.87,0 9.38,1.586 13.46,4.9844 2.49,-3.1641 5.77,-4.5234 10.31,-4.5312 3.28,0 4.86,0.457 6.55,1.0234 v 11.4258 h -2.6 c -1.7,0 -2.72,1.3554 -2.72,3.164"/><path
            id="path184"
            style="fill:#ed1c24;fill-opacity:1;fill-rule:nonzero;stroke:none"
            d="M 1097.6,36.9023 V 97.5508 H 1083 V 36.6797 c 0,-13.3516 7.46,-15.957 14.93,-15.957 3.63,0 6.46,1.3554 6.46,1.3554 v 10.9766 h -2.61 c -2.03,0 -4.18,1.0195 -4.18,3.8476"/><path
            id="path186"
            style="fill:#ed1c24;fill-opacity:1;fill-rule:nonzero;stroke:none"
            d="m 1125.32,54.3281 c 1.14,6.6797 4.42,10.4102 10.41,10.4102 6.23,0 9.62,-4.4141 10.07,-10.4102 z m 10.53,23.086 c -15.85,0 -25.58,-10.9805 -25.58,-28.5157 0,-17.9921 9.85,-28.6289 25.46,-28.6289 12.68,0 20.36,7.2383 23.76,18.5547 l -14.81,0.1172 c -1.82,-4.6406 -5.33,-5.7695 -8.83,-5.7695 -5.1,0 -9.74,2.2617 -10.63,10.2969 h 35.07 c 0.11,0.5664 0.57,3.3906 0.57,6.3359 0,15.1601 -8.95,27.6094 -25.01,27.6094"/><path
            id="path188"
            style="fill:#ed1c24;fill-opacity:1;fill-rule:nonzero;stroke:none"
            d="m 1221.75,33.168 c -7.35,0 -10.41,5.3125 -10.41,15.9492 0,9.0547 3.06,15.3945 10.18,15.3945 6.67,0 10.4,-4.8711 10.4,-15.8398 0,-10.5235 -2.93,-15.5039 -10.17,-15.5039 z m 9.61,40.0547 c -3.05,2.375 -6.11,4.1875 -12.67,4.1875 -13.23,0 -22.06,-12.6758 -22.06,-27.9493 0,-20.2539 11.43,-29.1992 22.3,-29.1992 5.98,0 9.95,2.3828 12.43,4.4141 l 0.23,-3.6133 h 14.37 v 76.4844 h -14.6 V 73.2227"/><path
            id="path190"
            style="fill:#ed1c24;fill-opacity:1;fill-rule:nonzero;stroke:none"
            d="m 1270.75,54.3242 c 1.14,6.6797 4.42,10.4102 10.41,10.4102 6.22,-0.0039 9.62,-4.418 10.07,-10.4102 z m 10.53,23.086 c -15.84,0 -25.58,-10.9766 -25.58,-28.5157 0,-17.9882 9.85,-28.6328 25.46,-28.6328 12.68,0 20.37,7.2461 23.77,18.5547 l -14.83,0.1172 c -1.8,-4.6445 -5.31,-5.7656 -8.82,-5.7656 -5.1,0 -9.73,2.2617 -10.64,10.2968 l 35.07,-0.0039 c 0.12,0.5664 0.57,3.3868 0.57,6.3321 0,15.1601 -8.94,27.6133 -25,27.6172"/><path
            id="path192"
            style="fill:#ed1c24;fill-opacity:1;fill-rule:nonzero;stroke:none"
            d="m 1316.26,81.9258 h 14.81 V 97.543 h -14.81 V 81.9258"/><path
            id="path194"
            style="fill:#ed1c24;fill-opacity:1;fill-rule:nonzero;stroke:none"
            d="m 1316.37,21.0547 h 14.6 v 55.4414 h -14.6 V 21.0547"/><path
            id="path196"
            style="fill:#ed1c24;fill-opacity:1;fill-rule:nonzero;stroke:none"
            d="m 1391.41,96.75 h -14.6 V 76.4961 h -8.37 V 63.8203 h 8.37 V 37.1172 c 0,-13.3477 7.92,-16.4063 15.85,-16.4063 4.4,0 8.47,1.3555 8.47,1.3555 v 11.2031 l -5.66,0.0039 c -1.8,0 -4.06,1.2461 -4.06,4.0743 v 26.4726 l 11.31,-0.0039 v 12.6758 l -11.31,0.0039 V 96.75"/><path
            id="path198"
            style="fill:#ed1c24;fill-opacity:1;fill-rule:nonzero;stroke:none"
            d="m 1427.39,70.832 -0.22,5.6602 h -14.38 V 21.0547 h 14.6 v 26.3555 c 0,11.7734 4.53,16.0742 11.2,16.0742 h 6.12 v 13.0078 c -1.58,0.6836 -3.06,0.7891 -5.55,0.7891 -3.62,0 -8.6,-2.0352 -11.77,-6.4493"/><path
            id="path200"
            style="fill:#ed1c24;fill-opacity:1;fill-rule:nonzero;stroke:none"
            d="m 1475.38,33.1563 c -7.35,0 -10.63,5.0898 -10.63,16.0703 0,9.3906 3.39,15.2734 10.63,15.2734 6.9,0 10.18,-4.75 10.18,-15.6133 0,-10.8672 -3.28,-15.7304 -10.18,-15.7304 z m 24.09,3.1679 v 40.168 h -14.36 l -0.23,-3.168 c -2.72,2.4883 -6.33,4.0742 -10.97,4.0742 -13.69,0 -23.88,-11.8828 -23.88,-27.8359 0,-17.7656 8.94,-29.3008 24.44,-29.3008 4.88,0 9.39,1.5821 13.47,4.9688 2.49,-3.1641 5.77,-4.5196 10.29,-4.5196 3.28,0 4.87,0.4493 6.57,1.0157 v 11.4297 h -2.6 c -1.7,0 -2.73,1.3593 -2.73,3.1679"/><path
            id="path202"
            style="fill:#ed1c24;fill-opacity:1;fill-rule:nonzero;stroke:none"
            d="m 1543.74,54.3125 c -12.22,2.7148 -16.42,2.0352 -16.42,6.4492 0,2.7188 2.84,4.6406 7.37,4.6406 4.86,0 7.01,-2.3828 7.58,-5.8867 h 14.14 c -0.9,9.6172 -7.81,17.7657 -21.72,17.7657 -15.05,0 -21.96,-8.9375 -21.96,-17.6524 0,-8.1484 6.67,-13.6875 14.59,-15.3867 11.1,-2.3789 15.74,-1.8125 15.74,-6.793 0,-2.6015 -3.28,-4.8633 -8.61,-4.8633 -5.43,0 -8.37,2.6016 -9.04,6.3399 h -14.37 c 1.47,-9.7305 8.71,-18.5664 22.74,-18.5664 15.05,0 23.76,7.5859 23.76,17.8789 0,9.4023 -6.67,14.4883 -13.8,16.0742"/><path
            id="path204"
            style="fill:#ed1c24;fill-opacity:1;fill-rule:nonzero;stroke:none"
            d="m 1591.73,33.0391 c -6.68,0 -10.41,4.8632 -10.41,15.8398 0,10.5234 2.94,15.5 10.17,15.5 7.36,0 10.42,-5.3164 10.42,-15.9492 0,-9.0586 -3.06,-15.3906 -10.18,-15.3906 z m 2.6,44.2422 c -6,0 -9.96,-2.375 -12.44,-4.4141 v 3.6211 h -14.6 V -0.00390625 h 14.6 V 24.3242 c 3.04,-2.375 6.11,-4.1875 12.66,-4.1875 13.24,0 22.07,12.6797 22.07,27.9531 0,20.254 -11.42,29.1915 -22.29,29.1915"/><path
            id="path206"
            style="fill:#ed1c24;fill-opacity:1;fill-rule:nonzero;stroke:none"
            d="m 1648.65,33.1484 c -7.24,0 -10.52,4.8633 -10.52,15.9532 0,9.6172 3.28,15.3867 10.52,15.3867 7.24,0 10.52,-5.7695 10.52,-15.3867 0,-11.0899 -3.28,-15.9532 -10.52,-15.9532 z m 0,44.2422 c -16.18,0 -25.22,-11.7695 -25.22,-28.0664 0,-18.332 9.38,-29.0703 25.22,-29.0703 15.84,0 25.24,10.7383 25.24,29.0703 0,16.2969 -9.06,28.0664 -25.24,28.0664"/><path
            id="path208"
            style="fill:#ed1c24;fill-opacity:1;fill-rule:nonzero;stroke:none"
            d="m 1698.34,70.8281 -0.22,5.6602 h -14.37 V 21.043 h 14.59 v 26.3633 c 0,11.7656 4.52,16.0703 11.2,16.0703 h 6.11 v 13.0117 c -1.59,0.6797 -3.05,0.789 -5.54,0.789 -3.63,0 -8.6,-2.039 -11.77,-6.4492"/><path
            id="path210"
            style="fill:#ed1c24;fill-opacity:1;fill-rule:nonzero;stroke:none"
            d="m 1742.36,96.7305 -14.6,0.0039 V 76.4883 h -8.36 V 63.8125 h 8.36 v -26.707 c 0,-13.3477 7.92,-16.4141 15.84,-16.4141 4.42,0 8.5,1.3594 8.5,1.3594 v 11.2031 h -5.66 c -1.81,0 -4.08,1.2461 -4.08,4.0742 v 26.4805 h 11.32 v 12.6719 h -11.32 v 20.25"/><path
            id="path212"
            style="fill:#ed1c24;fill-opacity:1;fill-rule:nonzero;stroke:none"
            d="m 1763.88,81.9102 h 14.81 v 15.6171 h -14.81 V 81.9102"/><path
            id="path214"
            style="fill:#ed1c24;fill-opacity:1;fill-rule:nonzero;stroke:none"
            d="m 1763.98,21.0313 h 14.6 v 55.4492 h -14.6 V 21.0313"/></g></g></svg>
