<?xml version="1.0" encoding="UTF-8" standalone="no"?>
<svg
        xmlns:dc="http://purl.org/dc/elements/1.1/"
        xmlns:cc="http://creativecommons.org/ns#"
        xmlns:rdf="http://www.w3.org/1999/02/22-rdf-syntax-ns#"
        xmlns="http://www.w3.org/2000/svg"
        viewBox="0 0 408.09332 94.493332"
        height="94.493332"
        width="408.09332"
        xml:space="preserve"
        id="svg2"
        version="1.1"><metadata
     id="metadata8"><rdf:RDF><cc:Work
         rdf:about=""><dc:format>image/svg+xml</dc:format><dc:type
        rdf:resource="http://purl.org/dc/dcmitype/StillImage"/></cc:Work></rdf:RDF></metadata>
    <defs
            id="defs6"/>
    <g
            transform="matrix(1.3333333,0,0,-1.3333333,0,94.493333)"
            id="g10"><g
       transform="scale(0.1)"
       id="g12"><path
         id="path14"
         style="fill:#ed1c24;fill-opacity:1;fill-rule:nonzero;stroke:none"
         d="M 581.777,449.836 581.77,431.43 633.781,415.047 581.77,398.238 v -18.289 l 78.07,27.071 v 15.746 l -76.856,26.648 -1.207,0.422" /><path
            id="path16"
            style="fill:#ed1c24;fill-opacity:1;fill-rule:nonzero;stroke:none"
            d="m 607.238,506.93 c 3.367,0 8.707,-2.309 8.707,-8.504 v -17.137 h -17.769 v 17.137 c 0,6.195 5.562,8.504 9.062,8.504 z m 25.114,-8.391 c 0,19.16 -14.957,26.117 -25.012,26.117 -12.313,0 -25.563,-8.179 -25.563,-26.117 v -34.855 h 78.071 v 17.605 h -27.496 v 17.25"/><path
            id="path18"
            style="fill:#ed1c24;fill-opacity:1;fill-rule:nonzero;stroke:none"
            d="m 598.41,575.301 v 21.176 h -16.633 v -60.192 h 16.629 l 0.004,21.403 h 61.438 v 17.613 H 598.41"/><path
            id="path20"
            style="fill:#ed1c24;fill-opacity:1;fill-rule:nonzero;stroke:none"
            d="m 391.801,192.828 c 24.894,0 41.371,19.766 48.328,45.762 9.148,34.414 9.148,54.922 26.355,54.922 11.719,0 18.317,-12.078 18.309,-33.321 0,-18.308 -9.891,-30.019 -23.063,-31.855 v -40.633 c 31.852,2.559 58.579,26.356 58.579,72.129 0,45.762 -23.43,73.223 -55.653,73.223 -27.09,0 -44.297,-16.477 -51.246,-44.309 -9.535,-38.074 -9.898,-56.375 -24.176,-56.375 -8.789,0 -18.668,8.777 -18.668,27.09 0,17.937 9.524,28.555 23.071,30.75 v 40.644 c -32.59,-2.929 -57.856,-28.925 -57.856,-71.394 0,-45.762 27.828,-66.633 56.02,-66.633"/><path
            id="path22"
            style="fill:#ed1c24;fill-opacity:1;fill-rule:nonzero;stroke:none"
            d="m 410.48,479.852 -0.011,-75.793 c -24.524,2.558 -38.797,17.941 -38.797,38.812 0,22.699 16.113,36.242 38.808,36.981 z M 428.051,362.32 c 58.941,0 92.258,30.391 92.269,79.817 0,37.715 -21.601,65.172 -58.582,74.691 v -41.004 c 16.473,-5.859 22.325,-19.043 22.325,-33.32 0,-19.035 -10.247,-36.246 -40.637,-38.805 v 116.422 c 0,0 -6.223,1.098 -17.942,1.098 -51.25,0 -89.691,-26.36 -89.691,-78.715 -0.012,-47.594 33.305,-80.184 92.258,-80.184"/><path
            id="path24"
            style="fill:#ed1c24;fill-opacity:1;fill-rule:nonzero;stroke:none"
            d="m 518.129,644.953 -179.762,63.707 -0.012,-42.836 123.754,-39.91 -123.754,-39.906 v -43.203 l 179.774,63.707 v 38.441"/><path
            id="path26"
            style="fill:#ed1c24;fill-opacity:1;fill-rule:nonzero;stroke:none"
            d="M 620.605,331.266 V 329.91 C 620.605,169.625 490.211,39.2266 329.93,39.2266 169.637,39.2266 39.2344,169.625 39.2344,329.91 c 0,149.149 118.4176,271.11 266.1676,276.934 v 39.222 C 136.023,640.219 0,500.691 0,329.91 0,147.996 148.012,-0.00390625 329.93,-0.00390625 511.84,-0.00390625 659.84,147.996 659.84,329.91 v 1.356 h -39.235"/><path
            id="path28"
            style="fill:#ed1c24;fill-opacity:1;fill-rule:nonzero;stroke:none"
            d="m 855.68,659.148 v -19.582 h 18.039 c 6.5,0 9.41,5.547 9.41,9.622 0,4.3 -2.91,9.96 -9.41,9.96 z m 18.156,14.59 c 18.035,0 25.211,-13.8 25.211,-24.664 0,-10.297 -7.176,-24.105 -25.211,-24.105 H 855.68 v -27.492 h -15.801 v 76.261 h 33.957"/><path
            id="path30"
            style="fill:#ed1c24;fill-opacity:1;fill-rule:nonzero;stroke:none"
            d="m 917.637,630.738 h 20.285 c -0.449,5.996 -3.813,10.407 -9.977,10.407 -5.941,0 -9.183,-3.731 -10.308,-10.407 z m 33.84,-15.5 c -3.36,-11.316 -10.981,-18.554 -23.532,-18.554 -15.465,0 -25.211,10.636 -25.211,28.625 0,17.539 9.641,28.511 25.329,28.511 15.91,0 24.757,-12.445 24.757,-27.605 0,-2.945 -0.441,-5.774 -0.558,-6.34 h -34.731 c 0.895,-8.035 5.492,-10.293 10.532,-10.293 3.476,0 6.941,1.129 8.738,5.766 l 14.676,-0.11"/><path
            id="path32"
            style="fill:#ed1c24;fill-opacity:1;fill-rule:nonzero;stroke:none"
            d="m 962.574,597.473 v 55.445 h 14.227 l 0.222,-5.66 c 3.141,4.41 8.071,6.449 11.653,6.449 2.469,0 3.922,-0.117 5.492,-0.789 v -13.012 h -6.051 c -6.609,0 -11.094,-4.304 -11.094,-16.07 v -26.363 h -14.449"/><path
            id="path34"
            style="fill:#ed1c24;fill-opacity:1;fill-rule:nonzero;stroke:none"
            d="m 1013.55,615.348 c 0.67,-3.735 3.59,-6.336 8.97,-6.336 5.26,0 8.51,2.261 8.51,4.863 0,4.977 -4.6,4.41 -15.58,6.793 -7.84,1.699 -14.45,7.246 -14.45,15.383 0,8.719 6.84,17.656 21.74,17.652 13.78,0 20.62,-8.148 21.51,-17.762 h -14.01 c -0.56,3.504 -2.68,5.883 -7.5,5.883 -4.49,0 -7.29,-1.918 -7.29,-4.64 0,-4.407 4.15,-3.735 16.25,-6.45 7.06,-1.586 13.67,-6.675 13.67,-16.07 0,-10.297 -8.63,-17.879 -23.53,-17.879 -13.9,0.004 -21.07,8.832 -22.516,18.563 h 14.226"/><path
            id="path36"
            style="fill:#ed1c24;fill-opacity:1;fill-rule:nonzero;stroke:none"
            d="m 1087.51,625.531 c 0,9.617 -3.26,15.383 -10.43,15.383 -7.17,0 -10.42,-5.766 -10.42,-15.383 0,-11.09 3.25,-15.953 10.42,-15.953 7.17,0 10.43,4.863 10.43,15.953 z m -35.42,0.223 c 0,16.293 8.97,28.062 24.99,28.062 16.02,0 24.99,-11.769 24.99,-28.062 0,-18.328 -9.3,-29.078 -24.99,-29.078 -15.69,0 -24.99,10.75 -24.99,29.078"/><path
            id="path38"
            style="fill:#ed1c24;fill-opacity:1;fill-rule:nonzero;stroke:none"
            d="m 1111.71,597.469 v 55.445 h 14.22 l 0.23,-3.848 c 3.8,2.825 8.74,4.516 13.11,4.516 11.87,0 18.93,-8.93 18.93,-21.832 v -34.285 h -14.45 v 33.379 c 0,7.695 -4.48,9.844 -8.06,9.844 -6.17,0 -9.53,-3.391 -9.53,-14.934 v -28.285 h -14.45"/><path
            id="path40"
            style="fill:#ed1c24;fill-opacity:1;fill-rule:nonzero;stroke:none"
            d="m 1192.27,609.574 c 6.83,0 10.08,4.864 10.08,15.723 0,10.863 -3.25,15.613 -10.08,15.613 -7.18,0 -10.53,-5.883 -10.53,-15.273 0,-10.977 3.24,-16.063 10.53,-16.063 z m -1.46,44.242 c 4.6,0 8.18,-1.586 10.87,-4.078 l 0.23,3.168 h 14.22 v -40.168 c 0,-1.808 1.01,-3.164 2.69,-3.164 h 2.58 v -11.433 c -1.68,-0.567 -3.25,-1.02 -6.5,-1.02 -4.48,0 -7.74,1.359 -10.2,4.527 -4.03,-3.394 -8.52,-4.976 -13.33,-4.976 -15.35,0 -24.21,11.539 -24.21,29.308 0,15.95 10.09,27.836 23.65,27.836"/><path
            id="path42"
            style="fill:#ed1c24;fill-opacity:1;fill-rule:nonzero;stroke:none"
            d="m 1244.48,613.297 c 0,-2.824 2.12,-3.848 4.14,-3.848 h 2.58 v -10.976 c 0,0 -2.8,-1.356 -6.38,-1.356 -7.41,0.004 -14.8,2.606 -14.8,15.961 v 60.875 l 14.46,-0.004 v -60.652"/><path
            id="path44"
            style="fill:#ed1c24;fill-opacity:1;fill-rule:nonzero;stroke:none"
            d="m 1302.52,625.297 c 0,-10.984 3.7,-15.848 10.31,-15.848 7.05,0 10.08,6.34 10.08,15.391 0,10.64 -3.03,15.953 -10.31,15.953 -7.17,0 -10.08,-4.977 -10.08,-15.496 z m 13.11,-28.746 c -6.5,0 -9.53,1.816 -12.55,4.187 v -24.324 h -14.46 v 76.488 h 14.46 v -3.621 c 2.46,2.039 6.38,4.414 12.32,4.414 10.75,0 22.07,-8.941 22.07,-29.195 0,-15.273 -8.73,-27.949 -21.84,-27.949"/><path
            id="path46"
            style="fill:#ed1c24;fill-opacity:1;fill-rule:nonzero;stroke:none"
            d="m 1347.23,597.457 v 55.445 l 14.22,-0.004 0.23,-5.66 c 3.14,4.414 8.07,6.45 11.66,6.45 2.46,0 3.91,-0.11 5.49,-0.79 v -13.011 h -6.06 c -6.6,0 -11.09,-4.305 -11.09,-16.071 v -26.363 l -14.45,0.004"/><path
            id="path48"
            style="fill:#ed1c24;fill-opacity:1;fill-rule:nonzero;stroke:none"
            d="m 1401.79,597.453 h -14.45 v 55.445 h 14.45 z m 0.12,60.875 h -14.68 v 15.613 h 14.68 v -15.613"/><path
            id="path50"
            style="fill:#ed1c24;fill-opacity:1;fill-rule:nonzero;stroke:none"
            d="m 1441.11,597.453 h -13.55 l -19.38,55.445 h 15.23 l 11.1,-35.414 11.42,35.414 14.91,-0.003 -19.73,-55.442"/><path
            id="path52"
            style="fill:#ed1c24;fill-opacity:1;fill-rule:nonzero;stroke:none"
            d="m 1489.07,609.559 c 6.84,0 10.08,4.863 10.08,15.726 0,10.86 -3.24,15.617 -10.08,15.617 -7.17,0 -10.53,-5.886 -10.53,-15.281 0,-10.976 3.25,-16.062 10.53,-16.062 z m -1.46,44.242 c 4.6,0 8.18,-1.586 10.87,-4.078 l 0.23,3.172 h 14.23 v -40.172 c 0,-1.809 1.01,-3.164 2.69,-3.164 h 2.57 v -11.426 c -1.67,-0.567 -3.25,-1.028 -6.49,-1.028 -4.48,0 -7.73,1.36 -10.2,4.532 -4.04,-3.399 -8.52,-4.981 -13.33,-4.981 -15.36,0 -24.21,11.539 -24.21,29.309 0,15.953 10.09,27.836 23.64,27.836"/><path
            id="path54"
            style="fill:#ed1c24;fill-opacity:1;fill-rule:nonzero;stroke:none"
            d="m 1545.66,652.895 h 11.21 v -12.676 h -11.21 v -26.473 c 0,-2.832 2.24,-4.074 4.04,-4.074 h 5.59 v -11.207 c 0,0 -4.03,-1.36 -8.39,-1.36 -7.86,0 -15.7,3.059 -15.7,16.407 v 26.707 h -8.29 v 12.676 h 8.29 v 20.253 h 14.46 v -20.253"/><path
            id="path56"
            style="fill:#ed1c24;fill-opacity:1;fill-rule:nonzero;stroke:none"
            d="m 1578.71,630.715 h 20.28 c -0.44,5.992 -3.8,10.406 -9.96,10.406 -5.94,0 -9.2,-3.73 -10.32,-10.406 z m 33.84,-15.508 c -3.36,-11.312 -10.98,-18.555 -23.52,-18.555 -15.47,0 -25.22,10.645 -25.22,28.633 0,17.539 9.64,28.512 25.32,28.512 15.92,0 24.77,-12.453 24.77,-27.613 0,-2.946 -0.45,-5.766 -0.57,-6.332 h -34.73 c 0.89,-8.039 5.49,-10.297 10.53,-10.297 3.48,0 6.96,1.125 8.74,5.769 l 14.68,-0.117"/><path
            id="path58"
            style="fill:#ed1c24;fill-opacity:1;fill-rule:nonzero;stroke:none"
            d="m 1623.64,597.445 v 55.442 h 14.23 l 0.23,-5.657 c 3.14,4.415 8.06,6.45 11.66,6.45 2.45,0 3.91,-0.114 5.49,-0.793 v -13.008 h -6.06 c -6.61,0 -11.09,-4.301 -11.09,-16.074 v -26.36 h -14.46"/><path
            id="path60"
            style="fill:#ed1c24;fill-opacity:1;fill-rule:nonzero;stroke:none"
            d="m 1745.32,658.879 h -21.17 v -61.441 h -15.8 v 61.441 h -21.4 v 14.824 h 58.37 v -14.824"/><path
            id="path62"
            style="fill:#ed1c24;fill-opacity:1;fill-rule:nonzero;stroke:none"
            d="m 1747.45,597.438 v 55.445 h 14.23 l 0.23,-5.66 c 3.14,4.414 8.06,6.453 11.66,6.453 2.45,0 3.91,-0.113 5.48,-0.793 V 639.875 H 1773 c -6.61,0 -11.09,-4.301 -11.09,-16.074 v -26.363 h -14.46"/><path
            id="path64"
            style="fill:#ed1c24;fill-opacity:1;fill-rule:nonzero;stroke:none"
            d="m 1809.42,609.543 c 6.83,0 10.07,4.863 10.07,15.727 0,10.867 -3.24,15.617 -10.07,15.617 -7.17,0 -10.53,-5.883 -10.53,-15.274 0,-10.976 3.24,-16.07 10.53,-16.07 z m -1.46,44.242 c 4.6,0 8.17,-1.586 10.86,-4.074 l 0.23,3.172 h 14.23 v -40.172 c 0,-1.809 1.01,-3.168 2.69,-3.168 h 2.59 v -11.426 c -1.69,-0.566 -3.27,-1.019 -6.51,-1.019 -4.48,0 -7.73,1.355 -10.2,4.523 -4.04,-3.394 -8.52,-4.976 -13.32,-4.976 -15.36,0 -24.21,11.543 -24.21,29.308 0,15.953 10.09,27.832 23.64,27.832"/><path
            id="path66"
            style="fill:#ed1c24;fill-opacity:1;fill-rule:nonzero;stroke:none"
            d="m 1847.73,597.434 v 55.449 h 14.23 l 0.23,-3.848 c 3.81,2.828 8.73,4.524 13.11,4.524 11.88,0 18.93,-8.938 18.93,-21.836 v -34.289 h -14.44 v 33.379 c 0,7.699 -4.49,9.847 -8.08,9.847 -6.16,0 -9.52,-3.398 -9.52,-14.941 v -28.285 h -14.46"/><path
            id="path68"
            style="fill:#ed1c24;fill-opacity:1;fill-rule:nonzero;stroke:none"
            d="m 1917.32,615.309 c 0.67,-3.735 3.58,-6.332 8.95,-6.332 5.27,0 8.52,2.257 8.52,4.863 0,4.976 -4.59,4.41 -15.57,6.789 -7.84,1.699 -14.46,7.238 -14.46,15.383 0,8.718 6.83,17.656 21.75,17.656 13.77,0 20.6,-8.148 21.51,-17.762 h -14 c -0.57,3.504 -2.7,5.883 -7.51,5.883 -4.49,0 -7.29,-1.922 -7.29,-4.644 0,-4.415 4.14,-3.731 16.24,-6.446 7.07,-1.586 13.67,-6.672 13.67,-16.066 0,-10.301 -8.62,-17.883 -23.52,-17.883 -13.9,0 -21.07,8.828 -22.53,18.559 h 14.24"/><path
            id="path70"
            style="fill:#ed1c24;fill-opacity:1;fill-rule:nonzero;stroke:none"
            d="m 1972.67,625.266 c 0,-10.977 3.7,-15.84 10.31,-15.84 7.06,0 10.08,6.332 10.08,15.39 0,10.637 -3.02,15.954 -10.31,15.954 -7.17,0 -10.08,-4.981 -10.08,-15.504 z m 13.1,-28.739 c -6.49,0 -9.52,1.809 -12.55,4.184 v -24.32 h -14.45 v 76.488 h 14.45 v -3.625 c 2.48,2.039 6.39,4.414 12.33,4.414 10.75,0 22.07,-8.938 22.07,-29.191 0,-15.274 -8.73,-27.95 -21.85,-27.95"/><path
            id="path72"
            style="fill:#ed1c24;fill-opacity:1;fill-rule:nonzero;stroke:none"
            d="m 2049.76,625.484 c 0,9.625 -3.25,15.391 -10.43,15.391 -7.17,0 -10.41,-5.766 -10.41,-15.391 0,-11.082 3.24,-15.945 10.41,-15.945 7.18,0 10.43,4.863 10.43,15.945 z m -35.41,0.231 c 0,16.293 8.96,28.062 24.98,28.062 16.02,0 24.99,-11.769 24.99,-28.062 0,-18.328 -9.3,-29.082 -24.99,-29.082 -15.69,0 -24.98,10.754 -24.98,29.082"/><path
            id="path74"
            style="fill:#ed1c24;fill-opacity:1;fill-rule:nonzero;stroke:none"
            d="m 2074.07,597.43 v 55.445 h 14.23 l 0.22,-5.66 c 3.14,4.41 8.07,6.449 11.66,6.449 2.46,0 3.92,-0.117 5.49,-0.789 v -13.016 h -6.05 c -6.62,0 -11.1,-4.3 -11.1,-16.066 V 597.43 h -14.45"/><path
            id="path76"
            style="fill:#ed1c24;fill-opacity:1;fill-rule:nonzero;stroke:none"
            d="m 2132.1,652.867 h 11.21 v -12.676 h -11.21 v -26.472 c 0,-2.828 2.25,-4.078 4.04,-4.078 h 5.6 v -11.2 c 0,0 -4.03,-1.359 -8.4,-1.359 -7.84,0 -15.68,3.063 -15.68,16.41 v 26.707 h -8.3 v 12.676 h 8.3 v 20.254 l 14.44,-0.008 v -20.254"/><path
            id="path78"
            style="fill:#ed1c24;fill-opacity:1;fill-rule:nonzero;stroke:none"
            d="m 2199.01,652.867 v -55.441 h -14.24 l -0.23,3.84 c -3.81,-2.825 -8.73,-4.524 -13.1,-4.524 -11.88,0 -18.94,8.938 -18.94,21.84 v 34.285 h 14.45 v -33.269 c 0,-7.465 4.49,-9.957 8.07,-9.957 6.16,0 9.52,3.734 9.52,15.05 v 28.176 h 14.47"/><path
            id="path80"
            style="fill:#ed1c24;fill-opacity:1;fill-rule:nonzero;stroke:none"
            d="m 2211.55,597.426 v 55.441 h 14.22 l 0.24,-3.847 c 3.8,2.832 8.74,4.519 13.1,4.519 11.88,0 18.94,-8.934 18.94,-21.836 v -34.285 h -14.45 v 33.379 c 0,7.695 -4.49,9.844 -8.07,9.844 -6.16,0.007 -9.52,-3.387 -9.52,-14.93 v -28.285 h -14.46"/><path
            id="path82"
            style="fill:#ed1c24;fill-opacity:1;fill-rule:nonzero;stroke:none"
            d="m 2288.19,652.863 h 11.21 v -12.675 h -11.21 v -26.473 c 0,-2.828 2.24,-4.078 4.04,-4.078 h 5.59 v -11.203 c 0,0 -4.03,-1.356 -8.39,-1.356 -7.85,0 -15.69,3.055 -15.69,16.406 v 26.704 h -8.3 v 12.675 h 8.3 v 20.254 h 14.45 v -20.254"/><path
            id="path84"
            style="fill:#ed1c24;fill-opacity:1;fill-rule:nonzero;stroke:none"
            d="m 2321.24,630.688 h 20.29 c -0.46,5.996 -3.82,10.41 -9.99,10.41 -5.93,0 -9.18,-3.739 -10.3,-10.41 z m 33.84,-15.508 c -3.36,-11.317 -10.99,-18.559 -23.54,-18.551 -15.45,0 -25.2,10.633 -25.2,28.621 0,17.539 9.64,28.523 25.32,28.523 15.91,-0.007 24.76,-12.457 24.76,-27.617 0,-2.945 -0.44,-5.769 -0.56,-6.336 l -34.73,0.008 c 0.89,-8.043 5.49,-10.301 10.53,-10.301 3.48,0 6.95,1.129 8.74,5.77 l 14.68,-0.117"/><path
            id="path86"
            style="fill:#ed1c24;fill-opacity:1;fill-rule:nonzero;stroke:none"
            d="m 2366.17,597.414 v 55.445 h 14.23 l 0.23,-5.66 c 3.14,4.414 8.06,6.449 11.66,6.449 2.46,0 3.91,-0.109 5.49,-0.789 v -13.011 h -6.06 c -6.61,0 -11.09,-4.305 -11.09,-16.071 v -26.363 h -14.46"/><path
            id="path88"
            style="fill:#ed1c24;fill-opacity:1;fill-rule:nonzero;stroke:none"
            d="m 2405.95,597.414 v 55.445 h 14.23 l 0.22,-3.847 c 3.81,2.832 8.74,4.527 13.12,4.527 11.87,0 18.92,-8.937 18.92,-21.836 V 597.414 H 2438 v 33.379 c 0,7.695 -4.48,9.844 -8.08,9.844 -6.16,0 -9.52,-3.395 -9.52,-14.938 v -28.285 h -14.45"/><path
            id="path90"
            style="fill:#ed1c24;fill-opacity:1;fill-rule:nonzero;stroke:none"
            d="m 2476.31,630.676 h 20.28 c -0.45,5.996 -3.81,10.41 -9.97,10.41 -5.94,0 -9.19,-3.731 -10.31,-10.41 z m 33.84,-15.504 c -3.36,-11.313 -10.98,-18.555 -23.53,-18.555 -15.47,0 -25.2,10.637 -25.2,28.629 0,17.535 9.63,28.516 25.32,28.516 15.91,0 24.76,-12.449 24.76,-27.614 0,-2.941 -0.44,-5.765 -0.56,-6.332 h -34.74 c 0.9,-8.035 5.5,-10.296 10.54,-10.296 3.48,0 6.93,1.128 8.73,5.769 l 14.68,-0.117"/><path
            id="path92"
            style="fill:#ed1c24;fill-opacity:1;fill-rule:nonzero;stroke:none"
            d="m 2521.13,597.41 v 76.488 h 14.46 v -25.003 c 3.81,2.828 8.74,4.636 13.1,4.636 11.88,0 18.95,-8.937 18.95,-21.84 v -34.285 l -14.46,0.004 v 33.379 c 0,7.465 -4.37,9.844 -7.96,9.844 -6.17,0 -9.63,-3.395 -9.63,-14.938 V 597.41 h -14.46"/><path
            id="path94"
            style="fill:#ed1c24;fill-opacity:1;fill-rule:nonzero;stroke:none"
            d="m 2579.51,597.406 v 55.442 h 14.22 l 0.24,-3.848 c 3.24,2.715 8.18,4.527 11.2,4.527 6.04,0 11.32,-2.379 14.34,-6.218 3.92,4.183 8.07,6.218 14.23,6.218 13.21,0 18.37,-8.933 18.37,-21.726 v -34.395 h -14.44 v 33.719 c 0,6.793 -2.47,9.508 -6.4,9.508 -6.04,0 -8.07,-4.758 -8.07,-16.41 v -26.817 h -14.33 v 33.719 c 0,6.793 -2.59,9.508 -6.39,9.508 -5.83,0 -8.51,-4.301 -8.51,-14.824 v -28.403 h -14.46"/><path
            id="path96"
            style="fill:#ed1c24;fill-opacity:1;fill-rule:nonzero;stroke:none"
            d="m 2675.98,630.672 h 20.28 c -0.45,5.992 -3.81,10.406 -9.97,10.406 -5.95,0 -9.19,-3.73 -10.31,-10.406 z m 33.84,-15.508 c -3.36,-11.312 -10.98,-18.555 -23.53,-18.555 -15.47,0.004 -25.21,10.637 -25.21,28.633 0,17.539 9.63,28.516 25.32,28.512 15.91,0 24.76,-12.453 24.76,-27.613 0,-2.946 -0.45,-5.766 -0.55,-6.332 h -34.74 c 0.9,-8.039 5.49,-10.301 10.53,-10.301 3.47,0 6.94,1.129 8.74,5.773 l 14.68,-0.117"/><path
            id="path98"
            style="fill:#ed1c24;fill-opacity:1;fill-rule:nonzero;stroke:none"
            d="m 2720.8,597.398 v 55.446 h 14.22 l 0.24,-3.844 c 3.79,2.828 8.74,4.523 13.1,4.523 11.88,0 18.94,-8.937 18.94,-21.835 v -34.29 h -14.46 v 33.379 c 0,7.703 -4.48,9.852 -8.06,9.852 -6.16,0 -9.52,-3.399 -9.52,-14.941 v -28.29 h -14.46"/><path
            id="path100"
            style="fill:#ed1c24;fill-opacity:1;fill-rule:nonzero;stroke:none"
            d="m 855.68,526.043 v -19.574 h 18.039 c 6.5,0 9.41,5.539 9.41,9.613 0,4.301 -2.91,9.961 -9.41,9.961 z m 18.156,14.594 c 18.035,0 25.211,-13.805 25.211,-24.664 0,-10.297 -7.176,-24.106 -25.211,-24.106 H 855.68 v -27.496 h -15.801 v 76.266 h 33.957"/><path
            id="path102"
            style="fill:#ed1c24;fill-opacity:1;fill-rule:nonzero;stroke:none"
            d="m 917.637,497.641 h 20.285 c -0.449,5.996 -3.813,10.402 -9.977,10.402 -5.941,0 -9.183,-3.73 -10.308,-10.402 z m 33.84,-15.504 c -3.36,-11.321 -10.981,-18.559 -23.532,-18.559 -15.465,0 -25.211,10.645 -25.211,28.629 0,17.539 9.641,28.512 25.329,28.512 15.91,0 24.757,-12.449 24.757,-27.606 0,-2.945 -0.441,-5.773 -0.558,-6.34 h -34.731 c 0.895,-8.035 5.492,-10.296 10.532,-10.296 3.476,0 6.941,1.128 8.738,5.769 l 14.676,-0.109"/><path
            id="path104"
            style="fill:#ed1c24;fill-opacity:1;fill-rule:nonzero;stroke:none"
            d="m 962.574,464.367 v 55.449 h 14.227 l 0.222,-5.66 c 3.141,4.41 8.071,6.453 11.653,6.453 2.469,0 3.922,-0.117 5.492,-0.793 v -13.011 h -6.051 c -6.609,0 -11.094,-4.301 -11.094,-16.071 v -26.367 h -14.449"/><path
            id="path106"
            style="fill:#ed1c24;fill-opacity:1;fill-rule:nonzero;stroke:none"
            d="m 1013.55,482.246 c 0.67,-3.734 3.59,-6.336 8.97,-6.336 5.26,0 8.51,2.254 8.51,4.863 0,4.977 -4.6,4.411 -15.58,6.793 -7.84,1.7 -14.45,7.243 -14.45,15.387 0,8.715 6.84,17.656 21.74,17.649 13.78,0 20.62,-8.149 21.51,-17.762 h -14.01 c -0.56,3.504 -2.68,5.883 -7.5,5.883 -4.49,0 -7.29,-1.918 -7.29,-4.641 0,-4.41 4.15,-3.734 16.25,-6.449 7.06,-1.586 13.67,-6.676 13.67,-16.067 0,-10.3 -8.63,-17.882 -23.53,-17.882 -13.9,0.004 -21.07,8.832 -22.516,18.562 h 14.226"/><path
            id="path108"
            style="fill:#ed1c24;fill-opacity:1;fill-rule:nonzero;stroke:none"
            d="m 1087.51,492.426 c 0,9.621 -3.26,15.39 -10.43,15.39 -7.17,0 -10.42,-5.769 -10.42,-15.39 0,-11.086 3.25,-15.949 10.42,-15.949 7.17,0 10.43,4.863 10.43,15.949 z m -35.42,0.226 c 0,16.297 8.97,28.063 24.99,28.063 16.02,0 24.99,-11.766 24.99,-28.063 0,-18.328 -9.3,-29.082 -24.99,-29.082 -15.69,0 -24.99,10.754 -24.99,29.082"/><path
            id="path110"
            style="fill:#ed1c24;fill-opacity:1;fill-rule:nonzero;stroke:none"
            d="m 1111.71,464.367 v 55.446 h 14.22 l 0.23,-3.848 c 3.8,2.824 8.74,4.515 13.11,4.515 11.87,0 18.93,-8.933 18.93,-21.835 v -34.282 h -14.45 v 33.379 c 0,7.696 -4.48,9.844 -8.06,9.844 -6.17,0 -9.53,-3.391 -9.53,-14.934 v -28.285 h -14.45"/><path
            id="path112"
            style="fill:#ed1c24;fill-opacity:1;fill-rule:nonzero;stroke:none"
            d="m 1170.08,464.363 v 55.446 h 14.23 l 0.23,-3.852 c 3.8,2.832 8.73,4.523 13.1,4.523 11.88,0 18.94,-8.933 18.94,-21.835 v -34.282 h -14.45 v 33.379 c 0,7.696 -4.49,9.844 -8.07,9.844 -6.16,0 -9.52,-3.395 -9.52,-14.938 v -28.285 h -14.46"/><path
            id="path114"
            style="fill:#ed1c24;fill-opacity:1;fill-rule:nonzero;stroke:none"
            d="m 1240.45,497.625 h 20.27 c -0.44,5.996 -3.8,10.41 -9.96,10.41 -5.94,0 -9.2,-3.734 -10.31,-10.41 z m 33.84,-15.504 c -3.36,-11.312 -10.98,-18.555 -23.53,-18.555 -15.47,0.004 -25.22,10.641 -25.22,28.629 0,17.539 9.64,28.516 25.33,28.508 15.91,0 24.76,-12.445 24.76,-27.605 0,-2.946 -0.45,-5.77 -0.56,-6.336 h -34.74 c 0.9,-8.039 5.49,-10.293 10.54,-10.293 3.47,0 6.94,1.125 8.74,5.765 l 14.68,-0.113"/><path
            id="path116"
            style="fill:#ed1c24;fill-opacity:1;fill-rule:nonzero;stroke:none"
            d="m 1299.16,480.199 c 0,-2.832 2.12,-3.847 4.15,-3.847 h 2.57 v -10.981 c 0,0 -2.8,-1.355 -6.39,-1.355 -7.39,0 -14.79,2.601 -14.79,15.957 v 60.875 h 14.46 v -60.649"/><path
            id="path118"
            style="fill:#ed1c24;fill-opacity:1;fill-rule:nonzero;stroke:none"
            d="m 1375.35,491.961 c 0,10.977 -3.7,15.84 -10.3,15.84 -7.07,0 -10.1,-6.332 -10.1,-15.387 0,-10.641 3.03,-15.953 10.32,-15.953 7.16,0 10.08,4.977 10.08,15.5 z m -13.11,28.742 c 6.5,0 9.52,-1.812 12.55,-4.187 v 24.328 h 14.45 v -76.492 h -14.22 l -0.23,3.621 c -2.47,-2.039 -6.39,-4.41 -12.33,-4.41 -10.75,0 -22.07,8.941 -22.07,29.195 0,15.277 8.74,27.945 21.85,27.945"/><path
            id="path120"
            style="fill:#ed1c24;fill-opacity:1;fill-rule:nonzero;stroke:none"
            d="m 1413.78,497.621 h 20.27 c -0.44,5.996 -3.79,10.41 -9.96,10.41 -5.94,0 -9.2,-3.738 -10.31,-10.41 z m 33.84,-15.504 c -3.36,-11.312 -10.98,-18.554 -23.53,-18.554 -15.47,0 -25.22,10.632 -25.22,28.621 0,17.539 9.64,28.519 25.33,28.519 15.91,0 24.77,-12.449 24.77,-27.609 0,-2.946 -0.46,-5.774 -0.57,-6.332 h -34.73 c 0.89,-8.039 5.49,-10.301 10.53,-10.301 3.47,0 6.95,1.129 8.74,5.769 l 14.68,-0.113"/><path
            id="path122"
            style="fill:#ed1c24;fill-opacity:1;fill-rule:nonzero;stroke:none"
            d="m 1469.81,482.23 c 0.67,-3.742 3.58,-6.339 8.95,-6.339 5.27,0 8.52,2.261 8.52,4.863 0,4.98 -4.59,4.414 -15.57,6.793 -7.85,1.695 -14.46,7.246 -14.46,15.391 0,8.71 6.83,17.644 21.74,17.644 13.78,0 20.61,-8.148 21.52,-17.762 h -14.01 c -0.57,3.504 -2.69,5.883 -7.51,5.883 -4.48,0 -7.28,-1.922 -7.28,-4.644 0,-4.407 4.14,-3.731 16.24,-6.446 7.06,-1.586 13.67,-6.672 13.67,-16.066 0,-10.301 -8.62,-17.883 -23.53,-17.883 -13.89,0 -21.06,8.84 -22.52,18.566 h 14.24"/><path
            id="path124"
            style="fill:#ed1c24;fill-opacity:1;fill-rule:nonzero;stroke:none"
            d="m 1551.94,497.613 20.28,-0.004 c -0.45,5.996 -3.82,10.414 -9.98,10.414 -5.94,0 -9.18,-3.73 -10.3,-10.41 z m 33.83,-15.508 c -3.36,-11.312 -10.98,-18.554 -23.53,-18.546 -15.46,0 -25.21,10.632 -25.21,28.625 0,17.535 9.64,28.515 25.33,28.515 15.9,-0.004 24.75,-12.453 24.75,-27.617 0,-2.941 -0.44,-5.766 -0.56,-6.332 l -34.72,0.004 c 0.89,-8.035 5.49,-10.297 10.53,-10.297 3.47,0 6.94,1.129 8.74,5.766 l 14.67,-0.118"/><path
            id="path126"
            style="fill:#ed1c24;fill-opacity:1;fill-rule:nonzero;stroke:none"
            d="m 1596.75,464.344 v 55.445 h 14.23 l 0.23,-3.848 c 3.8,2.832 8.73,4.524 13.11,4.524 11.87,0 18.93,-8.934 18.93,-21.836 v -34.285 h -14.45 v 33.379 c 0,7.695 -4.48,9.843 -8.07,9.843 -6.16,0 -9.52,-3.394 -9.52,-14.937 v -28.285 h -14.46"/><path
            id="path128"
            style="fill:#ed1c24;fill-opacity:1;fill-rule:nonzero;stroke:none"
            d="m 1673.39,519.789 11.21,-0.008 v -12.676 l -11.21,0.008 v -26.476 c 0,-2.828 2.25,-4.071 4.04,-4.071 l 5.6,-0.007 v -11.204 c 0,0 -4.03,-1.355 -8.4,-1.355 -7.85,0 -15.69,3.059 -15.69,16.406 v 26.707 h -8.29 v 12.676 h 8.29 v 20.25 h 14.45 v -20.25"/><path
            id="path130"
            style="fill:#ed1c24;fill-opacity:1;fill-rule:nonzero;stroke:none"
            d="m 1694.56,464.34 v 55.441 h 14.23 l 0.24,-5.66 c 3.13,4.418 8.05,6.453 11.65,6.453 2.46,0 3.91,-0.113 5.48,-0.793 v -13.008 h -6.05 c -6.6,0 -11.08,-4.3 -11.08,-16.074 V 464.34 h -14.47"/><path
            id="path132"
            style="fill:#ed1c24;fill-opacity:1;fill-rule:nonzero;stroke:none"
            d="m 1746.34,497.609 h 20.27 c -0.44,5.993 -3.8,10.407 -9.97,10.407 -5.94,0 -9.19,-3.731 -10.3,-10.407 z m 33.84,-15.507 c -3.36,-11.313 -10.99,-18.555 -23.54,-18.555 -15.46,0 -25.21,10.641 -25.21,28.629 0,17.539 9.64,28.515 25.32,28.515 15.92,0 24.77,-12.453 24.77,-27.613 0,-2.945 -0.45,-5.765 -0.57,-6.332 h -34.73 c 0.89,-8.039 5.49,-10.297 10.53,-10.297 3.48,0 6.95,1.125 8.75,5.77 l 14.68,-0.117"/><path
            id="path134"
            style="fill:#ed1c24;fill-opacity:1;fill-rule:nonzero;stroke:none"
            d="m 1805.05,492.172 c 0,-10.977 3.69,-15.844 10.31,-15.844 7.05,0 10.08,6.336 10.08,15.387 0,10.64 -3.03,15.953 -10.31,15.953 -7.17,0 -10.08,-4.977 -10.08,-15.496 z m 13.11,-28.742 c -6.51,0 -9.54,1.812 -12.55,4.183 v -24.324 h -14.47 v 76.488 h 14.47 v -3.617 c 2.46,2.035 6.38,4.41 12.32,4.41 10.75,0 22.07,-8.937 22.07,-29.191 0,-15.277 -8.74,-27.949 -21.84,-27.949"/><path
            id="path136"
            style="fill:#ed1c24;fill-opacity:1;fill-rule:nonzero;stroke:none"
            d="m 1849.76,464.332 v 55.445 h 14.23 l 0.21,-5.66 c 3.15,4.414 8.08,6.453 11.66,6.453 2.46,0 3.93,-0.113 5.49,-0.793 V 506.77 h -6.05 c -6.62,0 -11.1,-4.301 -11.1,-16.075 v -26.363 h -14.44"/><path
            id="path138"
            style="fill:#ed1c24;fill-opacity:1;fill-rule:nonzero;stroke:none"
            d="m 1904.32,464.328 -14.46,0.004 v 55.445 l 14.46,-0.004 z m 0.11,60.875 -14.68,0.004 v 15.617 l 14.68,-0.008 v -15.613"/><path
            id="path140"
            style="fill:#ed1c24;fill-opacity:1;fill-rule:nonzero;stroke:none"
            d="m 1928.41,482.207 c 0.66,-3.734 3.58,-6.336 8.96,-6.336 5.26,0 8.52,2.262 8.52,4.863 0,4.981 -4.6,4.414 -15.59,6.793 -7.84,1.7 -14.44,7.243 -14.44,15.387 0,8.715 6.84,17.649 21.73,17.649 13.79,0 20.62,-8.145 21.51,-17.762 h -14 c -0.56,3.504 -2.69,5.887 -7.51,5.887 -4.48,0 -7.29,-1.922 -7.29,-4.641 0,-4.414 4.15,-3.731 16.25,-6.445 7.06,-1.59 13.68,-6.676 13.68,-16.075 0,-10.293 -8.63,-17.879 -23.53,-17.879 -13.9,0 -21.07,8.829 -22.52,18.559 h 14.23"/><path
            id="path142"
            style="fill:#ed1c24;fill-opacity:1;fill-rule:nonzero;stroke:none"
            d="m 1981.85,497.602 h 20.28 c -0.45,5.996 -3.81,10.402 -9.97,10.402 -5.95,0 -9.19,-3.731 -10.31,-10.402 z m 33.84,-15.516 c -3.36,-11.313 -10.98,-18.547 -23.53,-18.547 -15.47,0 -25.21,10.637 -25.21,28.625 0,17.539 9.63,28.516 25.33,28.516 15.9,0 24.75,-12.453 24.75,-27.61 0,-2.945 -0.44,-5.773 -0.55,-6.34 l -34.74,0.004 c 0.9,-8.035 5.49,-10.296 10.54,-10.296 3.46,0 6.93,1.128 8.73,5.769 l 14.68,-0.121"/><path
            id="path144"
            style="fill:#ed1c24;fill-opacity:1;fill-rule:nonzero;stroke:none"
            d="m 2037.87,482.203 c 0.68,-3.734 3.6,-6.336 8.97,-6.336 5.26,0 8.51,2.262 8.51,4.863 0,4.981 -4.6,4.415 -15.57,6.793 -7.85,1.7 -14.46,7.239 -14.46,15.383 0,8.715 6.84,17.657 21.74,17.657 13.78,0 20.62,-8.149 21.52,-17.762 h -14.02 c -0.55,3.504 -2.68,5.883 -7.5,5.883 -4.48,0 -7.28,-1.922 -7.28,-4.645 0,-4.414 4.14,-3.73 16.25,-6.445 7.05,-1.586 13.67,-6.672 13.67,-16.067 0,-10.3 -8.63,-17.882 -23.54,-17.882 -13.89,0 -21.06,8.828 -22.52,18.558 h 14.23"/><path
            id="path146"
            style="fill:#ed1c24;fill-opacity:1;fill-rule:nonzero;stroke:none"
            d="m 2140.06,491.93 c 0,10.972 -3.69,15.84 -10.31,15.84 -7.05,0 -10.08,-6.329 -10.08,-15.383 0,-10.637 3.03,-15.957 10.31,-15.957 7.17,0 10.08,4.98 10.08,15.5 z m -13.11,28.742 c 6.5,0 9.53,-1.813 12.55,-4.184 v 24.325 h 14.46 V 464.32 h -14.23 l -0.23,3.621 c -2.47,-2.035 -6.39,-4.414 -12.32,-4.414 -10.76,0.004 -22.08,8.946 -22.08,29.2 0,15.273 8.74,27.949 21.85,27.945"/><path
            id="path148"
            style="fill:#ed1c24;fill-opacity:1;fill-rule:nonzero;stroke:none"
            d="m 2178.49,497.59 h 20.28 c -0.45,5.996 -3.81,10.406 -9.97,10.406 -5.95,0 -9.19,-3.73 -10.31,-10.406 z m 33.84,-15.504 c -3.36,-11.313 -10.98,-18.559 -23.53,-18.559 -15.47,0 -25.21,10.641 -25.21,28.629 0,17.539 9.63,28.516 25.33,28.516 15.91,0 24.75,-12.445 24.75,-27.609 0,-2.942 -0.44,-5.77 -0.55,-6.336 h -34.74 c 0.9,-8.039 5.5,-10.297 10.54,-10.297 3.47,0 6.93,1.125 8.73,5.769 l 14.68,-0.113"/><path
            id="path150"
            style="fill:#ed1c24;fill-opacity:1;fill-rule:nonzero;stroke:none"
            d="m 2270.26,519.762 h 11.21 v -12.676 h -11.21 v -26.473 c 0,-2.828 2.24,-4.078 4.04,-4.078 h 5.59 v -11.203 c 0,0 -4.03,-1.355 -8.39,-1.355 -7.86,0 -15.7,3.058 -15.7,16.406 v 26.703 h -8.29 v 12.676 h 8.29 v 20.254 h 14.46 v -20.254"/><path
            id="path152"
            style="fill:#ed1c24;fill-opacity:1;fill-rule:nonzero;stroke:none"
            d="m 2291.44,464.32 v 55.442 h 14.23 l 0.22,-5.657 c 3.14,4.407 8.07,6.45 11.65,6.45 2.47,0 3.93,-0.117 5.49,-0.793 V 506.75 h -6.05 c -6.61,0 -11.09,-4.301 -11.09,-16.07 v -26.36 h -14.45"/><path
            id="path154"
            style="fill:#ed1c24;fill-opacity:1;fill-rule:nonzero;stroke:none"
            d="m 2353.4,476.422 c 6.84,0 10.08,4.863 10.08,15.723 0,10.867 -3.24,15.617 -10.08,15.617 -7.18,0 -10.54,-5.879 -10.54,-15.27 0,-10.976 3.25,-16.07 10.54,-16.07 z m -1.46,44.238 c 4.59,0 8.18,-1.586 10.86,-4.07 l 0.24,3.168 h 14.22 v -40.172 c 0,-1.805 1.01,-3.164 2.69,-3.164 h 2.58 v -11.43 c -1.68,-0.566 -3.25,-1.019 -6.49,-1.019 -4.49,0 -7.75,1.355 -10.21,4.523 -4.03,-3.391 -8.51,-4.973 -13.33,-4.973 -15.36,0.004 -24.21,11.543 -24.21,29.309 0,15.949 10.09,27.832 23.65,27.828"/><path
            id="path156"
            style="fill:#ed1c24;fill-opacity:1;fill-rule:nonzero;stroke:none"
            d="m 2391.71,464.313 v 55.445 h 14.24 l 0.21,-3.848 c 3.82,2.832 8.74,4.524 13.12,4.524 11.87,0 18.93,-8.938 18.93,-21.836 v -34.285 h -14.45 v 33.378 c 0,7.696 -4.48,9.844 -8.07,9.844 -6.17,0 -9.53,-3.39 -9.53,-14.933 v -28.289 h -14.45"/><path
            id="path158"
            style="fill:#ed1c24;fill-opacity:1;fill-rule:nonzero;stroke:none"
            d="m 2461.3,482.184 c 0.67,-3.735 3.57,-6.332 8.96,-6.332 5.27,0 8.51,2.261 8.51,4.863 0,4.976 -4.59,4.41 -15.57,6.793 -7.85,1.695 -14.46,7.246 -14.46,15.387 0,8.714 6.84,17.648 21.75,17.648 13.77,0 20.61,-8.148 21.5,-17.762 h -14 c -0.57,3.504 -2.69,5.883 -7.5,5.883 -4.49,0 -7.29,-1.922 -7.29,-4.644 0,-4.407 4.15,-3.731 16.25,-6.446 7.06,-1.586 13.67,-6.672 13.67,-16.066 0,-10.301 -8.63,-17.883 -23.54,-17.883 -13.88,0 -21.06,8.832 -22.52,18.566 l 14.24,-0.007"/><path
            id="path160"
            style="fill:#ed1c24;fill-opacity:1;fill-rule:nonzero;stroke:none"
            d="m 2516.65,492.141 c 0,-10.977 3.69,-15.84 10.31,-15.84 7.06,0 10.08,6.34 10.08,15.39 0,10.641 -3.02,15.954 -10.31,15.954 -7.17,0 -10.08,-4.981 -10.08,-15.504 z m 13.11,-28.739 c -6.51,0 -9.52,1.809 -12.55,4.188 v -24.324 h -14.46 v 76.488 h 14.46 v -3.625 c 2.46,2.043 6.39,4.414 12.32,4.414 10.75,0 22.07,-8.938 22.07,-29.191 0,-15.274 -8.74,-27.95 -21.84,-27.95"/><path
            id="path162"
            style="fill:#ed1c24;fill-opacity:1;fill-rule:nonzero;stroke:none"
            d="m 2593.73,492.367 c 0,9.617 -3.25,15.391 -10.42,15.391 -7.17,0 -10.42,-5.774 -10.42,-15.391 0,-11.09 3.25,-15.953 10.42,-15.953 7.17,0 10.42,4.863 10.42,15.953 z m -35.41,0.227 c 0,16.297 8.97,28.062 24.99,28.062 16.03,0 24.99,-11.773 24.99,-28.066 0,-18.328 -9.3,-29.078 -24.99,-29.078 -15.68,0 -24.99,10.754 -24.99,29.082"/><path
            id="path164"
            style="fill:#ed1c24;fill-opacity:1;fill-rule:nonzero;stroke:none"
            d="m 2618.05,464.305 v 55.441 h 14.23 l 0.22,-5.656 c 3.14,4.414 8.08,6.449 11.65,6.449 2.47,0 3.93,-0.113 5.5,-0.793 v -13.012 h -6.05 c -6.62,0 -11.1,-4.3 -11.1,-16.07 v -26.359 h -14.45"/><path
            id="path166"
            style="fill:#ed1c24;fill-opacity:1;fill-rule:nonzero;stroke:none"
            d="m 2676.09,519.742 h 11.21 v -12.676 h -11.21 v -26.472 c 0,-2.828 2.24,-4.074 4.04,-4.074 h 5.59 v -11.204 c 0,0 -4.03,-1.359 -8.39,-1.359 -7.86,0.004 -15.7,3.063 -15.7,16.41 v 26.707 h -8.29 v 12.672 h 8.29 v 20.258 l 14.46,-0.008 v -20.254"/><path
            id="path168"
            style="fill:#ed1c24;fill-opacity:1;fill-rule:nonzero;stroke:none"
            d="m 2739.73,492.137 c 0,-10.981 3.7,-15.848 10.31,-15.848 7.05,0 10.08,6.34 10.08,15.395 0,10.636 -3.03,15.949 -10.3,15.949 -7.17,0 -10.09,-4.973 -10.09,-15.496 z m 13.11,-28.746 c -6.5,0 -9.52,1.816 -12.55,4.187 v -24.324 h -14.45 v 76.488 h 14.45 v -3.617 c 2.47,2.035 6.39,4.41 12.32,4.41 10.76,0 22.08,-8.941 22.08,-29.191 0,-15.278 -8.74,-27.953 -21.85,-27.953"/><path
            id="path170"
            style="fill:#ed1c24;fill-opacity:1;fill-rule:nonzero;stroke:none"
            d="m 2784.44,464.301 v 55.441 l 14.22,-0.004 0.23,-5.66 c 3.14,4.414 8.06,6.453 11.66,6.453 2.46,0 3.91,-0.113 5.49,-0.793 v -13.011 h -6.06 c -6.6,0 -11.09,-4.301 -11.09,-16.071 v -26.363 l -14.45,0.008"/><path
            id="path172"
            style="fill:#ed1c24;fill-opacity:1;fill-rule:nonzero;stroke:none"
            d="m 2839.01,464.293 h -14.47 v 55.445 h 14.47 z m 0.1,60.875 h -14.67 v 15.617 h 14.67 v -15.617"/><path
            id="path174"
            style="fill:#ed1c24;fill-opacity:1;fill-rule:nonzero;stroke:none"
            d="m 2878.33,464.293 h -13.55 l -19.4,55.445 h 15.25 l 11.09,-35.414 11.43,35.414 14.9,-0.004 -19.72,-55.441"/><path
            id="path176"
            style="fill:#ed1c24;fill-opacity:1;fill-rule:nonzero;stroke:none"
            d="m 2916.09,497.563 h 20.28 c -0.45,5.988 -3.81,10.402 -9.97,10.402 -5.95,0 -9.19,-3.731 -10.31,-10.402 z m -0.56,28.167 11.76,17.313 h 16.14 l -13.56,-17.313 z m 34.39,-43.675 c -3.36,-11.317 -10.97,-18.559 -23.52,-18.559 -15.47,0 -25.21,10.641 -25.21,28.629 0,17.539 9.63,28.516 25.33,28.516 15.9,0 24.75,-12.45 24.75,-27.61 0,-2.945 -0.44,-5.769 -0.56,-6.336 h -34.73 c 0.9,-8.035 5.5,-10.297 10.54,-10.297 3.47,0 6.93,1.129 8.73,5.774 l 14.67,-0.117"/><path
            id="path178"
            style="fill:#ed1c24;fill-opacity:1;fill-rule:nonzero;stroke:none"
            d="m 2972.9,497.563 h 20.28 c -0.44,5.988 -3.81,10.402 -9.98,10.402 -5.93,0 -9.18,-3.731 -10.3,-10.402 z m 33.84,-15.516 c -3.36,-11.309 -10.99,-18.551 -23.54,-18.551 -15.45,0 -25.21,10.641 -25.21,28.629 0,17.539 9.64,28.516 25.32,28.516 15.92,0 24.77,-12.453 24.77,-27.61 0,-2.953 -0.45,-5.773 -0.57,-6.34 l -34.72,0.004 c 0.88,-8.035 5.48,-10.297 10.52,-10.297 3.48,0 6.96,1.129 8.75,5.774 l 14.68,-0.125"/><path
            id="path180"
            style="fill:#ed1c24;fill-opacity:1;fill-rule:nonzero;stroke:none"
            d="m 3028.92,482.164 c 0.67,-3.734 3.58,-6.336 8.96,-6.336 5.27,0 8.52,2.262 8.52,4.863 0,4.981 -4.59,4.414 -15.58,6.793 -7.84,1.7 -14.45,7.239 -14.45,15.383 0,8.715 6.83,17.653 21.74,17.653 13.78,0 20.61,-8.145 21.51,-17.762 h -14 c -0.57,3.504 -2.69,5.887 -7.51,5.887 -4.49,0 -7.29,-1.922 -7.29,-4.645 0,-4.414 4.15,-3.73 16.24,-6.445 7.07,-1.586 13.67,-6.68 13.67,-16.075 0,-10.292 -8.62,-17.875 -23.52,-17.875 -13.9,0 -21.07,8.829 -22.52,18.559 h 14.23"/><path
            id="path182"
            style="fill:#ed1c24;fill-opacity:1;fill-rule:nonzero;stroke:none"
            d="m 855.68,392.945 v -19.578 h 18.039 c 6.5,0 9.41,5.547 9.41,9.617 0,4.309 -2.91,9.961 -9.41,9.961 z m 18.156,14.59 c 18.035,0 25.211,-13.797 25.211,-24.656 0,-10.305 -7.176,-24.102 -25.211,-24.102 H 855.68 v -27.5 h -15.801 v 76.258 h 33.957"/><path
            id="path184"
            style="fill:#ed1c24;fill-opacity:1;fill-rule:nonzero;stroke:none"
            d="m 917.637,364.539 h 20.285 c -0.449,5.996 -3.813,10.41 -9.977,10.41 -5.941,0 -9.183,-3.73 -10.308,-10.41 z m 33.84,-15.5 c -3.36,-11.316 -10.981,-18.555 -23.532,-18.555 -15.465,0 -25.211,10.637 -25.211,28.625 0,17.539 9.641,28.516 25.329,28.516 15.91,0 24.757,-12.453 24.757,-27.609 0,-2.95 -0.441,-5.77 -0.558,-6.336 h -34.731 c 0.895,-8.039 5.492,-10.293 10.532,-10.293 3.476,0 6.941,1.121 8.738,5.761 l 14.676,-0.109"/><path
            id="path186"
            style="fill:#ed1c24;fill-opacity:1;fill-rule:nonzero;stroke:none"
            d="m 962.574,331.277 v 55.438 h 14.227 l 0.222,-5.652 c 3.141,4.402 8.071,6.445 11.653,6.445 2.469,0 3.922,-0.11 5.492,-0.793 v -13.008 h -6.051 c -6.609,0 -11.094,-4.305 -11.094,-16.074 v -26.356 h -14.449"/><path
            id="path188"
            style="fill:#ed1c24;fill-opacity:1;fill-rule:nonzero;stroke:none"
            d="m 1013.55,349.148 c 0.67,-3.73 3.59,-6.339 8.97,-6.339 5.26,0 8.51,2.265 8.51,4.863 0,4.98 -4.6,4.414 -15.58,6.797 -7.84,1.699 -14.45,7.246 -14.45,15.383 0,8.718 6.84,17.656 21.74,17.656 13.78,0 20.62,-8.156 21.51,-17.766 h -14.01 c -0.56,3.508 -2.68,5.879 -7.5,5.879 -4.49,0 -7.29,-1.914 -7.29,-4.637 0,-4.406 4.15,-3.73 16.25,-6.445 7.06,-1.594 13.67,-6.68 13.67,-16.074 0,-10.293 -8.63,-17.883 -23.53,-17.883 -13.9,0.012 -21.07,8.84 -22.516,18.566 h 14.226"/><path
            id="path190"
            style="fill:#ed1c24;fill-opacity:1;fill-rule:nonzero;stroke:none"
            d="m 1087.51,359.332 c 0,9.621 -3.26,15.383 -10.43,15.383 -7.17,0 -10.42,-5.762 -10.42,-15.383 0,-11.094 3.25,-15.957 10.42,-15.957 7.17,0 10.43,4.863 10.43,15.957 z m -35.42,0.227 c 0,16.289 8.97,28.054 24.99,28.054 16.02,0 24.99,-11.765 24.99,-28.054 0,-18.332 -9.3,-29.082 -24.99,-29.082 -15.69,0 -24.99,10.75 -24.99,29.082"/><path
            id="path192"
            style="fill:#ed1c24;fill-opacity:1;fill-rule:nonzero;stroke:none"
            d="m 1111.71,331.266 v 55.449 h 14.22 l 0.23,-3.848 c 3.8,2.824 8.74,4.524 13.11,4.524 11.87,0 18.93,-8.938 18.93,-21.836 v -34.289 h -14.45 v 33.379 c 0,7.695 -4.48,9.843 -8.06,9.843 -6.17,0 -9.53,-3.386 -9.53,-14.929 v -28.293 h -14.45"/><path
            id="path194"
            style="fill:#ed1c24;fill-opacity:1;fill-rule:nonzero;stroke:none"
            d="m 1192.27,343.375 c 6.83,0 10.08,4.863 10.08,15.723 0,10.859 -3.25,15.617 -10.08,15.617 -7.18,0 -10.53,-5.891 -10.53,-15.274 0,-10.976 3.24,-16.066 10.53,-16.066 z m -1.46,44.238 c 4.6,0 8.18,-1.582 10.87,-4.07 l 0.23,3.164 h 14.22 v -40.168 c 0,-1.805 1.01,-3.164 2.69,-3.164 h 2.58 v -11.434 c -1.68,-0.566 -3.25,-1.015 -6.5,-1.015 -4.48,0 -7.74,1.355 -10.2,4.519 -4.03,-3.386 -8.52,-4.968 -13.33,-4.968 -15.35,0 -24.21,11.531 -24.21,29.304 0,15.949 10.09,27.832 23.65,27.832"/><path
            id="path196"
            style="fill:#ed1c24;fill-opacity:1;fill-rule:nonzero;stroke:none"
            d="m 1244.48,347.098 c 0,-2.825 2.12,-3.848 4.14,-3.848 h 2.58 v -10.977 c 0,0 -2.8,-1.359 -6.38,-1.359 -7.41,0.012 -14.8,2.609 -14.8,15.969 v 60.867 h 14.46 v -60.652"/><path
            id="path198"
            style="fill:#ed1c24;fill-opacity:1;fill-rule:nonzero;stroke:none"
            d="m 1271.93,364.527 h 20.28 c -0.45,5.996 -3.81,10.411 -9.97,10.411 -5.94,0 -9.19,-3.731 -10.31,-10.411 z m 33.83,-15.507 c -3.36,-11.309 -10.98,-18.555 -23.52,-18.555 -15.47,0 -25.21,10.637 -25.21,28.633 0,17.531 9.64,28.515 25.32,28.515 15.91,0 24.76,-12.449 24.76,-27.617 0,-2.937 -0.44,-5.762 -0.56,-6.328 h -34.73 c 0.89,-8.035 5.49,-10.301 10.53,-10.301 3.48,0 6.94,1.133 8.74,5.77 l 14.67,-0.117"/><path
            id="path200"
            style="fill:#ed1c24;fill-opacity:1;fill-rule:nonzero;stroke:none"
            d="m 1377.48,358.863 c 0,10.977 -3.7,15.84 -10.32,15.84 -7.05,0 -10.07,-6.336 -10.07,-15.39 0,-10.633 3.02,-15.946 10.3,-15.946 7.18,0 10.09,4.981 10.09,15.496 z m -13.12,28.742 c 6.5,0 9.53,-1.808 12.56,-4.191 v 24.328 h 14.45 v -76.484 h -14.23 l -0.22,3.621 c -2.47,-2.039 -6.4,-4.414 -12.33,-4.414 -10.76,0 -22.08,8.945 -22.08,29.191 0,15.282 8.75,27.949 21.85,27.949"/><path
            id="path202"
            style="fill:#ed1c24;fill-opacity:1;fill-rule:nonzero;stroke:none"
            d="m 1415.91,364.52 h 20.28 c -0.45,5.996 -3.81,10.41 -9.97,10.41 -5.94,0 -9.19,-3.731 -10.31,-10.41 z m 33.84,-15.5 c -3.36,-11.317 -10.98,-18.555 -23.53,-18.555 -15.46,0 -25.22,10.637 -25.22,28.625 0,17.539 9.64,28.515 25.33,28.515 15.91,0 24.77,-12.453 24.77,-27.609 0,-2.949 -0.45,-5.769 -0.57,-6.336 h -34.73 c 0.89,-8.039 5.49,-10.293 10.53,-10.293 3.47,0 6.95,1.121 8.74,5.77 l 14.68,-0.117"/><path
            id="path204"
            style="fill:#ed1c24;fill-opacity:1;fill-rule:nonzero;stroke:none"
            d="m 1474.63,347.086 c 0,-2.82 2.11,-3.836 4.14,-3.836 h 2.57 v -10.988 c 0,0 -2.8,-1.356 -6.38,-1.356 -7.4,0 -14.79,2.606 -14.79,15.957 v 60.879 h 14.46 v -60.656"/><path
            id="path206"
            style="fill:#ed1c24;fill-opacity:1;fill-rule:nonzero;stroke:none"
            d="m 1503.98,347.086 c 0,-2.82 2.13,-3.836 4.15,-3.836 h 2.57 v -10.988 c 0,0 -2.8,-1.356 -6.38,-1.356 -7.4,0 -14.8,2.606 -14.8,15.957 v 60.879 h 14.46 v -60.656"/><path
            id="path208"
            style="fill:#ed1c24;fill-opacity:1;fill-rule:nonzero;stroke:none"
            d="m 1531.43,364.52 h 20.28 c -0.45,5.996 -3.81,10.41 -9.97,10.41 -5.95,0 -9.19,-3.731 -10.31,-10.41 z m 33.84,-15.508 c -3.36,-11.309 -10.98,-18.555 -23.53,-18.555 -15.47,0 -25.21,10.645 -25.21,28.633 0,17.539 9.63,28.515 25.32,28.515 15.91,0 24.76,-12.453 24.76,-27.617 0,-2.941 -0.45,-5.761 -0.55,-6.328 h -34.74 c 0.9,-8.039 5.49,-10.305 10.53,-10.305 3.47,0 6.94,1.133 8.74,5.774 l 14.68,-0.117"/><path
            id="path210"
            style="fill:#ed1c24;fill-opacity:1;fill-rule:nonzero;stroke:none"
            d="m 1627.12,343.355 c 6.84,0 10.08,4.864 10.08,15.723 0,10.871 -3.24,15.617 -10.08,15.617 -7.18,0 -10.54,-5.879 -10.54,-15.273 0,-10.977 3.26,-16.067 10.54,-16.067 z m -1.46,44.239 c 4.6,0 8.18,-1.582 10.87,-4.071 l 0.23,3.165 h 14.22 V 346.52 c 0,-1.805 1.01,-3.165 2.69,-3.165 h 2.58 V 331.93 c -1.68,-0.567 -3.25,-1.024 -6.49,-1.024 -4.49,0 -7.75,1.356 -10.21,4.532 -4.03,-3.399 -8.51,-4.981 -13.33,-4.981 -15.36,0 -24.21,11.531 -24.21,29.305 0,15.949 10.09,27.832 23.65,27.832"/><path
            id="path212"
            style="fill:#ed1c24;fill-opacity:1;fill-rule:nonzero;stroke:none"
            d="m 1705.32,376.051 -24.42,-31.914 h 24.77 v -12.899 l -43.82,0.008 v 10.859 l 25.21,31.68 h -24.99 v 12.903 h 43.25 v -10.637"/><path
            id="path214"
            style="fill:#ed1c24;fill-opacity:1;fill-rule:nonzero;stroke:none"
            d="m 1730.08,331.238 h -14.45 v 55.45 h 14.45 z m 0.12,60.879 h -14.68 v 15.613 h 14.68 v -15.613"/><path
            id="path216"
            style="fill:#ed1c24;fill-opacity:1;fill-rule:nonzero;stroke:none"
            d="m 1754.95,364.508 h 20.3 c -0.46,5.996 -3.82,10.41 -9.98,10.41 -5.94,0 -9.19,-3.73 -10.32,-10.41 z M 1788.8,349 c -3.36,-11.309 -10.99,-18.555 -23.53,-18.555 -15.46,0 -25.21,10.645 -25.21,28.633 0,17.539 9.64,28.516 25.32,28.516 15.91,0 24.76,-12.449 24.76,-27.606 0,-2.949 -0.44,-5.773 -0.56,-6.34 h -34.72 c 0.88,-8.035 5.48,-10.3 10.52,-10.3 3.48,0 6.95,1.132 8.74,5.769 L 1788.8,349"/><path
            id="path218"
            style="fill:#ed1c24;fill-opacity:1;fill-rule:nonzero;stroke:none"
            d="m 1799.78,331.238 v 55.45 h 14.23 l 0.23,-3.848 c 3.8,2.82 8.73,4.519 13.1,4.519 11.87,0 18.94,-8.933 18.94,-21.836 v -34.285 h -14.46 v 33.379 c 0,7.696 -4.48,9.844 -8.06,9.844 -6.16,0 -9.52,-3.391 -9.52,-14.941 v -28.282 h -14.46"/><path
            id="path220"
            style="fill:#ed1c24;fill-opacity:1;fill-rule:nonzero;stroke:none"
            d="m 1890.2,358.844 c 0,10.976 -3.69,15.84 -10.32,15.84 -7.05,0 -10.07,-6.329 -10.07,-15.391 0,-10.633 3.02,-15.945 10.31,-15.945 7.17,0 10.08,4.98 10.08,15.496 z m -13.12,28.742 c 6.51,0 9.53,-1.809 12.56,-4.18 v 24.317 h 14.45 v -76.485 h -14.23 l -0.22,3.621 c -2.46,-2.039 -6.39,-4.414 -12.32,-4.414 -10.77,0 -22.08,8.938 -22.08,29.192 0,15.273 8.75,27.949 21.84,27.949"/><path
            id="path222"
            style="fill:#ed1c24;fill-opacity:1;fill-rule:nonzero;stroke:none"
            d="m 1928.62,364.5 h 20.29 c -0.45,5.996 -3.81,10.41 -9.97,10.41 -5.94,0 -9.19,-3.73 -10.32,-10.41 z m 33.84,-15.5 c -3.36,-11.316 -10.97,-18.562 -23.52,-18.562 -15.47,0 -25.21,10.644 -25.21,28.632 0,17.539 9.63,28.516 25.32,28.516 15.91,0 24.76,-12.453 24.76,-27.609 0,-2.95 -0.44,-5.77 -0.56,-6.336 h -34.73 c 0.9,-8.039 5.5,-10.293 10.53,-10.293 3.48,0 6.95,1.121 8.73,5.761 L 1962.46,349"/><path
            id="path224"
            style="fill:#ed1c24;fill-opacity:1;fill-rule:nonzero;stroke:none"
            d="m 2016.03,359.059 c 0,-10.977 3.69,-15.84 10.3,-15.84 7.06,0 10.09,6.34 10.09,15.39 0,10.637 -3.03,15.957 -10.31,15.957 -7.17,0 -10.08,-4.98 -10.08,-15.507 z m 13.1,-28.739 c -6.49,0 -9.52,1.817 -12.54,4.188 v -24.324 l -14.46,0.007 v 76.485 h 14.46 v -3.621 c 2.45,2.039 6.38,4.414 12.32,4.414 10.76,0 22.08,-8.946 22.08,-29.199 0,-15.274 -8.75,-27.95 -21.86,-27.95"/><path
            id="path226"
            style="fill:#ed1c24;fill-opacity:1;fill-rule:nonzero;stroke:none"
            d="m 2060.73,331.227 v 55.449 h 14.23 l 0.23,-5.664 c 3.13,4.414 8.07,6.457 11.65,6.457 2.47,0 3.92,-0.117 5.5,-0.793 V 373.66 h -6.06 c -6.61,0 -11.09,-4.297 -11.09,-16.066 v -26.367 h -14.46"/><path
            id="path228"
            style="fill:#ed1c24;fill-opacity:1;fill-rule:nonzero;stroke:none"
            d="m 2115.3,331.227 h -14.46 v 55.449 h 14.46 z m 0.11,60.878 h -14.68 v 15.618 h 14.68 v -15.618"/><path
            id="path230"
            style="fill:#ed1c24;fill-opacity:1;fill-rule:nonzero;stroke:none"
            d="m 2154.62,331.227 h -13.55 l -19.38,55.449 15.24,-0.008 11.09,-35.422 11.43,35.422 h 14.9 l -19.73,-55.441"/><path
            id="path232"
            style="fill:#ed1c24;fill-opacity:1;fill-rule:nonzero;stroke:none"
            d="m 2202.58,343.336 c 6.84,0 10.09,4.863 10.09,15.723 0,10.859 -3.25,15.617 -10.09,15.617 -7.17,0 -10.53,-5.891 -10.53,-15.274 0,-10.976 3.24,-16.066 10.53,-16.066 z m -1.46,44.238 c 4.6,0 8.19,-1.59 10.87,-4.07 l 0.23,3.164 h 14.23 V 346.5 c 0,-1.805 1,-3.164 2.69,-3.164 h 2.58 v -11.434 c -1.68,-0.566 -3.25,-1.015 -6.5,-1.015 -4.49,0 -7.74,1.355 -10.2,4.519 -4.03,-3.386 -8.51,-4.968 -13.33,-4.968 -15.36,0 -24.21,11.531 -24.21,29.304 0,15.949 10.09,27.832 23.64,27.832"/><path
            id="path234"
            style="fill:#ed1c24;fill-opacity:1;fill-rule:nonzero;stroke:none"
            d="m 2259.16,386.668 h 11.21 v -12.676 h -11.21 v -26.484 c 0,-2.824 2.24,-4.074 4.04,-4.074 h 5.6 v -11.2 c 0,0 -4.03,-1.359 -8.41,-1.359 -7.84,0 -15.68,3.059 -15.68,16.406 v 26.711 h -8.28 v 12.676 h 8.28 v 20.254 h 14.45 v -20.254"/><path
            id="path236"
            style="fill:#ed1c24;fill-opacity:1;fill-rule:nonzero;stroke:none"
            d="m 2292.22,364.488 h 20.28 c -0.45,5.996 -3.81,10.41 -9.97,10.41 -5.95,0 -9.19,-3.738 -10.31,-10.41 z m 33.84,-15.508 c -3.36,-11.308 -10.99,-18.554 -23.53,-18.554 -15.47,0 -25.21,10.637 -25.21,28.625 0,17.539 9.63,28.523 25.32,28.523 15.91,0 24.76,-12.449 24.76,-27.617 0,-2.937 -0.45,-5.769 -0.55,-6.328 h -34.74 c 0.9,-8.047 5.49,-10.301 10.53,-10.301 3.47,0 6.94,1.133 8.74,5.77 l 14.68,-0.118"/><path
            id="path238"
            style="fill:#ed1c24;fill-opacity:1;fill-rule:nonzero;stroke:none"
            d="m 2397.77,358.824 c 0,10.977 -3.7,15.84 -10.32,15.84 -7.05,0 -10.08,-6.336 -10.08,-15.391 0,-10.632 3.03,-15.945 10.32,-15.945 7.17,0 10.08,4.969 10.08,15.496 z m -13.12,28.742 c 6.5,0 9.53,-1.816 12.56,-4.191 v 24.328 h 14.45 v -76.484 h -14.23 l -0.22,3.613 c -2.46,-2.031 -6.4,-4.406 -12.33,-4.406 -10.76,0 -22.08,8.937 -22.08,29.191 0,15.274 8.75,27.949 21.85,27.949"/><path
            id="path240"
            style="fill:#ed1c24;fill-opacity:1;fill-rule:nonzero;stroke:none"
            d="m 2439,331.219 h -14.46 v 55.437 H 2439 Z m 0.11,60.867 h -14.67 v 15.617 h 14.67 v -15.617"/><path
            id="path242"
            style="fill:#ed1c24;fill-opacity:1;fill-rule:nonzero;stroke:none"
            d="m 2498.83,386.656 h 11.21 V 373.98 h -11.21 v -26.472 c 0,-2.832 2.24,-4.074 4.03,-4.074 h 5.61 v -11.211 c 0,0 -4.04,-1.356 -8.41,-1.356 -7.84,0 -15.68,3.055 -15.68,16.406 v 26.707 h -8.28 v 12.676 h 8.28 v 20.254 h 14.45 v -20.254"/><path
            id="path244"
            style="fill:#ed1c24;fill-opacity:1;fill-rule:nonzero;stroke:none"
            d="m 2520.01,331.207 v 55.449 h 14.23 l 0.22,-5.664 c 3.15,4.414 8.07,6.457 11.66,6.457 2.46,0 3.92,-0.109 5.49,-0.793 v -13.015 h -6.05 c -6.61,0 -11.1,-4.297 -11.1,-16.067 v -26.367 h -14.45"/><path
            id="path246"
            style="fill:#ed1c24;fill-opacity:1;fill-rule:nonzero;stroke:none"
            d="m 2581.96,343.316 c 6.84,0 10.09,4.864 10.09,15.723 0,10.859 -3.25,15.617 -10.09,15.617 -7.16,0 -10.52,-5.879 -10.52,-15.273 0,-10.977 3.25,-16.067 10.52,-16.067 z m -1.44,44.239 c 4.59,0 8.17,-1.582 10.87,-4.071 l 0.21,3.164 h 14.24 V 346.48 c 0,-1.804 1.01,-3.164 2.69,-3.164 h 2.58 v -11.425 c -1.68,-0.567 -3.26,-1.024 -6.51,-1.024 -4.48,0 -7.72,1.356 -10.19,4.531 -4.04,-3.398 -8.52,-4.98 -13.33,-4.98 -15.36,0 -24.2,11.543 -24.2,29.305 0,15.957 10.07,27.832 23.64,27.832"/><path
            id="path248"
            style="fill:#ed1c24;fill-opacity:1;fill-rule:nonzero;stroke:none"
            d="m 2631.5,349.09 c 0.66,-3.742 3.58,-6.34 8.96,-6.34 5.26,0 8.52,2.258 8.52,4.863 0,4.981 -4.6,4.414 -15.59,6.789 -7.84,1.7 -14.44,7.246 -14.44,15.391 0,8.711 6.83,17.645 21.73,17.645 13.78,0 20.62,-8.145 21.51,-17.762 h -14 c -0.56,3.504 -2.69,5.887 -7.51,5.887 -4.49,0 -7.29,-1.922 -7.29,-4.637 0,-4.414 4.15,-3.742 16.26,-6.446 7.05,-1.593 13.66,-6.679 13.66,-16.074 0,-10.304 -8.62,-17.883 -23.52,-17.883 -13.9,0 -21.08,8.829 -22.52,18.567 h 14.23"/><path
            id="path250"
            style="fill:#ed1c24;fill-opacity:1;fill-rule:nonzero;stroke:none"
            d="m 2686.85,359.039 c 0,-10.976 3.69,-15.84 10.3,-15.84 7.06,0 10.09,6.328 10.09,15.383 0,10.633 -3.03,15.957 -10.3,15.957 -7.17,0 -10.09,-4.98 -10.09,-15.5 z m 13.1,-28.738 c -6.49,0 -9.52,1.804 -12.54,4.179 v -24.328 l -14.46,0.012 v 76.484 h 14.46 v -3.625 c 2.46,2.043 6.38,4.415 12.32,4.415 10.76,0 22.08,-8.934 22.08,-29.188 0,-15.285 -8.75,-27.949 -21.86,-27.949"/><path
            id="path252"
            style="fill:#ed1c24;fill-opacity:1;fill-rule:nonzero;stroke:none"
            d="m 2763.93,359.266 c 0,9.617 -3.24,15.39 -10.41,15.39 -7.18,0 -10.43,-5.773 -10.43,-15.39 0,-11.094 3.25,-15.957 10.43,-15.957 7.17,0 10.41,4.863 10.41,15.957 z m -35.4,0.222 c 0,16.301 8.96,28.067 24.99,28.067 16.01,0 24.99,-11.766 24.99,-28.067 0,-18.328 -9.31,-29.082 -24.99,-29.082 -15.7,0 -24.99,10.754 -24.99,29.082"/><path
            id="path254"
            style="fill:#ed1c24;fill-opacity:1;fill-rule:nonzero;stroke:none"
            d="m 2788.24,331.199 v 55.438 h 14.23 l 0.24,-5.653 c 3.13,4.414 8.05,6.446 11.65,6.446 2.46,0 3.91,-0.11 5.49,-0.793 v -13.008 h -6.06 c -6.6,0 -11.08,-4.297 -11.08,-16.074 v -26.356 h -14.47"/><path
            id="path256"
            style="fill:#ed1c24;fill-opacity:1;fill-rule:nonzero;stroke:none"
            d="m 2846.29,386.637 h 11.2 v -12.676 h -11.2 v -26.473 c 0,-2.824 2.24,-4.074 4.03,-4.074 h 5.61 v -11.199 c 0,0 -4.04,-1.36 -8.42,-1.36 -7.84,0 -15.68,3.059 -15.68,16.407 v 26.699 h -8.28 v 12.676 h 8.28 v 20.254 h 14.46 v -20.254"/><path
            id="path258"
            style="fill:#ed1c24;fill-opacity:1;fill-rule:nonzero;stroke:none"
            d="m 2899.85,359.254 c 0,9.621 -3.25,15.391 -10.42,15.391 -7.17,0 -10.42,-5.77 -10.42,-15.391 0,-11.082 3.25,-15.945 10.42,-15.945 7.17,-0.012 10.42,4.851 10.42,15.945 z m -35.41,0.226 c 0,16.297 8.97,28.067 24.99,28.067 16.02,0 24.99,-11.77 24.99,-28.067 0,-18.332 -9.3,-29.082 -24.99,-29.074 -15.69,0 -24.99,10.742 -24.99,29.074"/></g></g></svg>
