<?xml version="1.0" encoding="UTF-8" standalone="no"?>
<svg
        xmlns:dc="http://purl.org/dc/elements/1.1/"
        xmlns:cc="http://creativecommons.org/ns#"
        xmlns:rdf="http://www.w3.org/1999/02/22-rdf-syntax-ns#"
        xmlns="http://www.w3.org/2000/svg"
        viewBox="0 0 350.89334 94.493332"
        height="94.493332"
        width="350.89334"
        xml:space="preserve"
        id="svg2"
        version="1.1"><metadata
     id="metadata8"><rdf:RDF><cc:Work
         rdf:about=""><dc:format>image/svg+xml</dc:format><dc:type
        rdf:resource="http://purl.org/dc/dcmitype/StillImage"/></cc:Work></rdf:RDF></metadata>
    <defs
            id="defs6"/>
    <g
            transform="matrix(1.3333333,0,0,-1.3333333,0,94.493333)"
            id="g10"><g
       transform="scale(0.1)"
       id="g12"><path
         id="path14"
         style="fill:#ed1c24;fill-opacity:1;fill-rule:nonzero;stroke:none"
         d="m 391.797,192.82 c 24.902,0 41.371,19.778 48.336,45.774 9.148,34.414 9.148,54.922 26.355,54.922 11.715,0 18.309,-12.09 18.301,-33.321 0,-18.308 -9.883,-30.031 -23.059,-31.855 v -40.637 c 31.848,2.563 58.583,26.36 58.583,72.121 0,45.762 -23.434,73.223 -55.657,73.223 -27.093,0 -44.301,-16.477 -51.25,-44.297 -9.531,-38.074 -9.89,-56.387 -24.176,-56.387 -8.789,0 -18.664,8.789 -18.664,27.102 0,17.937 9.524,28.551 23.071,30.75 v 40.644 c -32.594,-2.929 -57.856,-28.925 -57.856,-71.394 0,-45.766 27.824,-66.645 56.016,-66.645" /><path
            id="path16"
            style="fill:#ed1c24;fill-opacity:1;fill-rule:nonzero;stroke:none"
            d="m 410.48,479.848 -0.007,-75.789 c -24.528,2.562 -38.801,17.945 -38.801,38.812 0,22.699 16.109,36.246 38.808,36.977 z m 17.571,-117.524 c 58.941,0 92.262,30.387 92.265,79.817 0,37.707 -21.597,65.168 -58.578,74.683 V 475.82 c 16.473,-5.855 22.328,-19.039 22.328,-33.316 0,-19.035 -10.25,-36.25 -40.64,-38.809 v 116.426 c 0,0 -6.227,1.094 -17.938,1.094 -51.25,0 -89.699,-26.356 -89.699,-78.711 -0.008,-47.598 33.313,-80.18 92.262,-80.18"/><path
            id="path18"
            style="fill:#ed1c24;fill-opacity:1;fill-rule:nonzero;stroke:none"
            d="m 518.125,644.949 -179.762,63.711 -0.011,-42.84 123.757,-39.902 -123.757,-39.91 v -43.203 l 179.773,63.711 v 38.433"/><path
            id="path20"
            style="fill:#ed1c24;fill-opacity:1;fill-rule:nonzero;stroke:none"
            d="M 620.605,329.91 C 620.605,169.617 490.211,39.2188 329.93,39.2188 169.637,39.2188 39.2305,169.617 39.2305,329.91 c 0,149.153 118.4175,271.106 266.1675,276.93 v 39.223 C 136.02,640.215 0,500.688 0,329.91 0,147.996 148.012,0 329.93,0 511.84,0 659.84,147.996 659.84,329.91 v 1.36 h -39.235 v -1.36"/><path
            id="path22"
            style="fill:#ed1c24;fill-opacity:1;fill-rule:nonzero;stroke:none"
            d="m 870.277,596.113 c 22.176,0 31.684,13.922 31.684,30.211 v 14.715 H 865.52 V 626.781 H 886 v -3.511 c 0,-6.446 -4.863,-13.012 -15.723,-13.012 -11.66,0 -17.425,8.824 -17.425,25.461 0,16.406 5.996,25.234 17.652,25.234 7.687,0 13.578,-4.191 14.711,-11.433 h 16.18 c -1.93,14.148 -13.129,25.574 -30.891,25.574 -21.731,0 -33.719,-15.274 -33.719,-39.375 0,-24.102 11.539,-39.606 33.492,-39.606"/><path
            id="path24"
            style="fill:#ed1c24;fill-opacity:1;fill-rule:nonzero;stroke:none"
            d="m 935.578,641.141 c 6.227,0 9.621,-4.407 10.07,-10.403 h -20.476 c 1.129,6.672 4.414,10.403 10.406,10.403 z m 0,-44.465 c 12.684,0 20.371,7.246 23.766,18.558 l -14.824,0.114 c -1.805,-4.645 -5.317,-5.77 -8.829,-5.77 -5.093,0 -9.726,2.258 -10.632,10.293 h 35.078 c 0.113,0.567 0.558,3.395 0.558,6.34 0,15.16 -8.933,27.605 -25.004,27.605 -15.836,0 -25.57,-10.976 -25.57,-28.515 0,-17.988 9.844,-28.625 25.457,-28.625"/><path
            id="path26"
            style="fill:#ed1c24;fill-opacity:1;fill-rule:nonzero;stroke:none"
            d="m 992.285,597.473 9.735,33.265 9.84,-33.265 12.1,-0.008 16.19,55.445 h -14.94 l -8.26,-32.707 -8.7,32.711 h -12.117 l -8.828,-32.586 -8.028,32.586 h -15.05 l 16.066,-55.441 h 11.992"/><path
            id="path28"
            style="fill:#ed1c24;fill-opacity:1;fill-rule:nonzero;stroke:none"
            d="m 1069.13,641.137 c 6.23,0 9.62,-4.41 10.07,-10.407 h -20.48 c 1.14,6.676 4.41,10.407 10.41,10.407 z m 0,-44.461 c 12.67,0 20.37,7.238 23.76,18.554 l -14.82,0.11 c -1.81,-4.637 -5.32,-5.766 -8.82,-5.766 -5.1,0 -9.74,2.258 -10.64,10.293 h 35.08 c 0.11,0.567 0.56,3.395 0.56,6.34 0,15.16 -8.94,27.606 -25,27.606 -15.85,0 -25.57,-10.977 -25.57,-28.516 0,-17.988 9.83,-28.621 25.45,-28.621"/><path
            id="path30"
            style="fill:#ed1c24;fill-opacity:1;fill-rule:nonzero;stroke:none"
            d="m 1118.7,623.828 c 0,11.766 4.53,16.07 11.2,16.063 h 6.11 v 13.015 c -1.58,0.672 -3.05,0.789 -5.54,0.789 -3.62,0.004 -8.6,-2.035 -11.77,-6.445 l -0.22,5.66 h -14.37 v -55.445 h 14.59 v 26.363"/><path
            id="path32"
            style="fill:#ed1c24;fill-opacity:1;fill-rule:nonzero;stroke:none"
            d="m 1158.88,613.641 5.99,6.558 14.6,-22.738 h 16.98 l -21.39,32.926 19.46,22.519 h -16.86 l -18.78,-21.277 v 42.32 h -14.6 v -76.488 h 14.6 v 16.18"/><path
            id="path34"
            style="fill:#ed1c24;fill-opacity:1;fill-rule:nonzero;stroke:none"
            d="m 1221.81,609.004 c -5.43,0 -8.37,2.598 -9.06,6.332 h -14.36 c 1.46,-9.731 8.7,-18.559 22.74,-18.559 15.05,0 23.76,7.578 23.76,17.875 0,9.395 -6.68,14.485 -13.81,16.075 -12.21,2.714 -16.4,2.035 -16.4,6.445 0,2.719 2.83,4.644 7.35,4.644 4.87,0 7.02,-2.378 7.59,-5.882 l 14.13,-0.008 c -0.89,9.617 -7.8,17.769 -21.72,17.769 -15.05,0 -21.95,-8.941 -21.95,-17.656 0,-8.141 6.68,-13.687 14.6,-15.379 11.09,-2.383 15.72,-1.816 15.72,-6.793 0,-2.601 -3.28,-4.863 -8.59,-4.863"/><path
            id="path36"
            style="fill:#ed1c24;fill-opacity:1;fill-rule:nonzero;stroke:none"
            d="m 1277.83,596.664 c 12.56,0 20.93,7.582 23.42,19.574 h -14.71 c -1.35,-4.75 -4.18,-6.672 -8.71,-6.672 -7.58,0 -11.43,5.313 -11.43,15.723 0,10.637 3.85,15.613 10.98,15.613 4.42,0 7.46,-2.035 8.71,-7.125 h 14.82 c -1.8,11.766 -10.07,20.032 -23.53,20.032 -15.61,0 -25.69,-10.754 -25.69,-28.52 0,-17.879 10.08,-28.625 26.14,-28.625"/><path
            id="path38"
            style="fill:#ed1c24;fill-opacity:1;fill-rule:nonzero;stroke:none"
            d="m 1357.17,597.449 v 34.289 c 0,12.899 -7.14,21.836 -19.13,21.836 -4.41,0 -9.39,-1.808 -13.24,-4.633 v 25.004 h -14.6 v -76.488 h 14.6 v 28.285 c 0,11.543 3.5,14.938 9.73,14.938 3.62,0 8.04,-2.379 8.04,-9.844 v -33.379 l 14.6,-0.008"/><path
            id="path40"
            style="fill:#ed1c24;fill-opacity:1;fill-rule:nonzero;stroke:none"
            d="m 1391.58,609.559 c -7.36,0 -10.64,5.089 -10.64,16.066 0,9.391 3.4,15.277 10.64,15.277 6.9,0 10.18,-4.754 10.18,-15.613 0,-10.867 -3.28,-15.73 -10.18,-15.73 z m 29.41,-11.43 v 11.43 h -2.59 c -1.7,0 -2.73,1.359 -2.73,3.164 v 40.172 h -14.36 l -0.23,-3.168 c -2.72,2.488 -6.34,4.078 -10.98,4.078 -13.69,0 -23.87,-11.887 -23.87,-27.84 0,-17.766 8.94,-29.305 24.44,-29.305 4.87,0 9.39,1.582 13.46,4.977 2.5,-3.168 5.78,-4.528 10.3,-4.528 3.28,0 4.87,0.454 6.56,1.02"/><path
            id="path42"
            style="fill:#ed1c24;fill-opacity:1;fill-rule:nonzero;stroke:none"
            d="m 1434.59,597.449 h 14.6 v 42.77 l 10.75,-0.004 v 12.676 l -10.75,0.004 v 3.96 c 0,3.731 1.36,4.864 4.74,4.864 l 6.01,-0.004 v 11.996 c -1.82,0.457 -4.31,0.906 -7.47,0.906 -11.54,0 -17.88,-4.867 -17.88,-18.781 v -2.941 h -8.6 v -12.676 h 8.6 v -42.77"/><path
            id="path44"
            style="fill:#ed1c24;fill-opacity:1;fill-rule:nonzero;stroke:none"
            d="m 1471.93,613.512 c 0,-13.352 7.93,-16.407 15.85,-16.407 4.42,0 8.48,1.356 8.48,1.356 v 11.207 h -5.66 c -1.8,0 -4.07,1.246 -4.07,4.07 v 26.477 h 11.31 v 12.676 h -11.31 v 20.254 h -14.6 v -20.254 h -8.37 v -12.676 h 8.37 v -26.703"/><path
            id="path46"
            style="fill:#ed1c24;fill-opacity:1;fill-rule:nonzero;stroke:none"
            d="m 1558.74,640.898 c 6.68,0 10.41,-4.867 10.41,-15.843 0,-10.52 -2.94,-15.5 -10.18,-15.5 -7.36,0 -10.42,5.312 -10.42,15.953 0,9.051 3.06,15.39 10.19,15.39 z m -2.6,-44.242 c 6,0 9.95,2.371 12.44,4.414 l 0.23,-3.625 14.37,-0.004 v 76.489 l -14.6,0.004 v -24.325 c -3.04,2.379 -6.11,4.188 -12.67,4.188 -13.24,0 -22.06,-12.676 -22.06,-27.949 0,-20.25 11.42,-29.192 22.29,-29.192"/><path
            id="path48"
            style="fill:#ed1c24;fill-opacity:1;fill-rule:nonzero;stroke:none"
            d="m 1607.98,630.711 c 1.13,6.676 4.4,10.406 10.4,10.406 6.23,0 9.62,-4.414 10.08,-10.406 z m 10.51,23.082 c -15.84,0 -25.56,-10.977 -25.56,-28.516 0,-17.988 9.83,-28.629 25.45,-28.629 12.68,0 20.37,7.243 23.77,18.555 l -14.83,0.117 c -1.8,-4.64 -5.31,-5.769 -8.83,-5.769 -5.08,0 -9.72,2.262 -10.63,10.297 h 35.08 c 0.12,0.566 0.56,3.39 0.56,6.332 0,15.164 -8.94,27.613 -25.01,27.613"/><path
            id="path50"
            style="fill:#ed1c24;fill-opacity:1;fill-rule:nonzero;stroke:none"
            d="m 1673.62,608.984 c -5.43,0 -8.38,2.602 -9.06,6.336 h -14.37 c 1.47,-9.73 8.71,-18.558 22.75,-18.558 15.05,-0.004 23.76,7.578 23.76,17.871 0,9.394 -6.68,14.488 -13.81,16.074 -12.22,2.715 -16.4,2.035 -16.4,6.449 0,2.723 2.83,4.641 7.35,4.641 4.87,0 7.02,-2.383 7.58,-5.891 h 14.15 c -0.9,9.621 -7.82,17.766 -21.73,17.77 -15.05,0 -21.95,-8.942 -21.95,-17.653 0,-8.144 6.68,-13.683 14.6,-15.382 11.09,-2.379 15.73,-1.817 15.73,-6.797 0,-2.606 -3.29,-4.86 -8.6,-4.86"/><path
            id="path52"
            style="fill:#ed1c24;fill-opacity:1;fill-rule:nonzero;stroke:none"
            d="m 1769.25,597.438 26.7,76.257 -16.63,0.004 -17.2,-54.086 -17.65,54.086 h -16.52 l 26.7,-76.261 h 14.6"/><path
            id="path54"
            style="fill:#ed1c24;fill-opacity:1;fill-rule:nonzero;stroke:none"
            d="m 1820.17,641.109 c 6.23,0 9.62,-4.414 10.08,-10.406 h -20.48 c 1.13,6.676 4.41,10.406 10.4,10.406 z m 0,-44.468 c 12.69,0 20.38,7.242 23.77,18.554 l -14.82,0.118 c -1.81,-4.645 -5.31,-5.774 -8.83,-5.774 -5.09,0 -9.72,2.262 -10.63,10.301 h 35.07 c 0.11,0.566 0.57,3.39 0.57,6.336 0,15.156 -8.94,27.609 -25.01,27.609 -15.84,0 -25.56,-10.976 -25.56,-28.515 0,-17.989 9.83,-28.629 25.44,-28.629"/><path
            id="path56"
            style="fill:#ed1c24;fill-opacity:1;fill-rule:nonzero;stroke:none"
            d="m 1869.75,623.793 c 0,11.773 4.54,16.074 11.21,16.074 h 6.11 v 13.008 c -1.58,0.68 -3.06,0.793 -5.55,0.793 -3.62,0 -8.6,-2.039 -11.77,-6.453 l -0.22,5.66 h -14.38 v -55.441 h 14.6 v 26.359"/><path
            id="path58"
            style="fill:#ed1c24;fill-opacity:1;fill-rule:nonzero;stroke:none"
            d="m 1947.5,597.426 -21.39,32.929 19.46,22.52 h -16.85 l -18.79,-21.273 v 42.312 l -14.59,0.008 v -76.488 l 14.59,-0.008 v 16.183 l 6,6.563 14.6,-22.746 h 16.97"/><path
            id="path60"
            style="fill:#ed1c24;fill-opacity:1;fill-rule:nonzero;stroke:none"
            d="m 1975.01,641.102 c 6.22,0 9.62,-4.407 10.07,-10.403 h -20.48 c 1.13,6.672 4.41,10.403 10.41,10.403 z m 0,-44.465 c 12.67,0 20.37,7.242 23.76,18.554 l -14.83,0.118 c -1.8,-4.645 -5.31,-5.774 -8.82,-5.774 -5.09,0 -9.73,2.262 -10.64,10.297 h 35.08 c 0.12,0.566 0.57,3.395 0.57,6.34 0,15.156 -8.95,27.605 -25.01,27.605 -15.83,0 -25.57,-10.976 -25.57,-28.515 0,-17.989 9.84,-28.625 25.46,-28.625"/><path
            id="path62"
            style="fill:#ed1c24;fill-opacity:1;fill-rule:nonzero;stroke:none"
            d="m 2024.47,625.707 c 0,11.547 3.51,14.941 9.73,14.941 3.62,0 8.03,-2.378 8.03,-9.843 v -33.383 h 14.59 v 34.285 c 0,12.902 -7.11,21.836 -19.12,21.836 -4.41,0 -9.39,-1.805 -13.23,-4.637 v 25.004 l -14.6,0.004 v -76.488 l 14.6,-0.004 v 28.285"/><path
            id="path64"
            style="fill:#ed1c24;fill-opacity:1;fill-rule:nonzero;stroke:none"
            d="m 2083.54,623.789 c 0,11.766 4.53,16.07 11.2,16.07 h 6.12 v 13.012 c -1.58,0.672 -3.06,0.789 -5.55,0.789 -3.61,0 -8.59,-2.039 -11.77,-6.449 l -0.22,5.66 h -14.37 v -55.449 h 14.59 v 26.367"/><path
            id="path66"
            style="fill:#ed1c24;fill-opacity:1;fill-rule:nonzero;stroke:none"
            d="m 2129.49,608.965 c -5.43,0 -8.37,2.601 -9.04,6.336 h -14.38 c 1.48,-9.731 8.72,-18.559 22.76,-18.563 15.05,0 23.75,7.582 23.75,17.879 0,9.395 -6.67,14.485 -13.8,16.071 -12.22,2.714 -16.41,2.035 -16.41,6.445 0,2.719 2.82,4.644 7.36,4.644 4.86,0 7.01,-2.379 7.57,-5.882 h 14.15 c -0.9,9.613 -7.81,17.761 -21.72,17.761 -15.05,0.004 -21.96,-8.933 -21.96,-17.652 0,-8.145 6.67,-13.684 14.6,-15.391 11.09,-2.375 15.72,-1.808 15.72,-6.785 0,-2.609 -3.28,-4.863 -8.6,-4.863"/><path
            id="path68"
            style="fill:#ed1c24;fill-opacity:1;fill-rule:nonzero;stroke:none"
            d="m 2176.35,625.254 c 0,10.523 2.95,15.504 10.18,15.504 7.37,0 10.41,-5.32 10.41,-15.953 0,-9.055 -3.04,-15.391 -10.17,-15.391 -6.69,0 -10.42,4.863 -10.42,15.84 z m 35.31,-0.793 c 0,20.254 -11.44,29.195 -22.3,29.195 -5.99,0 -9.95,-2.371 -12.45,-4.414 v 3.625 h -14.6 v -76.488 h 14.6 v 24.32 c 3.07,-2.375 6.12,-4.183 12.68,-4.183 13.24,0 22.07,12.672 22.07,27.945"/><path
            id="path70"
            style="fill:#ed1c24;fill-opacity:1;fill-rule:nonzero;stroke:none"
            d="m 2243.91,641.094 c 6.23,0 9.62,-4.414 10.07,-10.41 h -20.48 c 1.14,6.675 4.42,10.41 10.41,10.41 z m 0,-44.469 c 12.68,0 20.38,7.242 23.77,18.555 l -14.83,0.113 c -1.81,-4.641 -5.31,-5.766 -8.82,-5.766 -5.1,0 -9.72,2.254 -10.64,10.293 h 35.08 c 0.11,0.567 0.56,3.391 0.56,6.336 0,15.16 -8.93,27.61 -25,27.61 -15.84,0.004 -25.57,-10.973 -25.57,-28.512 0,-17.988 9.84,-28.629 25.45,-28.629"/><path
            id="path72"
            style="fill:#ed1c24;fill-opacity:1;fill-rule:nonzero;stroke:none"
            d="m 2293.49,623.777 c 0,11.77 4.53,16.071 11.21,16.071 h 6.1 v 13.011 c -1.58,0.676 -3.06,0.793 -5.54,0.793 -3.63,0 -8.6,-2.043 -11.77,-6.449 l -0.23,5.656 h -14.36 v -55.441 h 14.59 v 26.359"/><path
            id="path74"
            style="fill:#ed1c24;fill-opacity:1;fill-rule:nonzero;stroke:none"
            d="m 2339.43,608.961 c -5.43,0 -8.37,2.598 -9.04,6.332 h -14.38 c 1.48,-9.73 8.72,-18.559 22.75,-18.559 15.05,-0.007 23.76,7.579 23.76,17.875 0,9.395 -6.67,14.481 -13.8,16.071 -12.22,2.718 -16.42,2.039 -16.42,6.449 0,2.719 2.84,4.644 7.37,4.644 4.86,-0.007 7.01,-2.382 7.57,-5.89 h 14.15 c -0.9,9.613 -7.81,17.765 -21.72,17.769 -15.05,0 -21.96,-8.941 -21.96,-17.656 0,-8.141 6.67,-13.687 14.59,-15.383 11.1,-2.386 15.74,-1.82 15.74,-6.797 0,-2.601 -3.29,-4.863 -8.61,-4.855"/><path
            id="path76"
            style="fill:#ed1c24;fill-opacity:1;fill-rule:nonzero;stroke:none"
            d="m 2394.56,640.859 c 7.24,0 10.52,-5.765 10.52,-15.386 0,-11.09 -3.28,-15.953 -10.52,-15.953 -7.25,0 -10.53,4.863 -10.53,15.953 0,9.621 3.28,15.386 10.53,15.386 z m 0,-44.238 c 15.83,0 25.23,10.746 25.23,29.078 0,16.293 -9.05,28.059 -25.23,28.059 -16.18,0 -25.24,-11.766 -25.24,-28.059 0,-18.332 9.39,-29.078 25.24,-29.078"/><path
            id="path78"
            style="fill:#ed1c24;fill-opacity:1;fill-rule:nonzero;stroke:none"
            d="m 2444.13,625.699 c 0,11.543 3.39,14.934 9.62,14.934 3.61,-0.004 8.14,-2.153 8.14,-9.848 v -33.379 h 14.6 v 34.289 c 0,12.899 -7.13,21.836 -19.13,21.836 -4.41,0 -9.38,-1.691 -13.23,-4.523 l -0.23,3.847 h -14.37 V 597.41 h 14.6 v 28.289"/><path
            id="path80"
            style="fill:#ed1c24;fill-opacity:1;fill-rule:nonzero;stroke:none"
            d="m 2510.91,640.859 c 6.9,0 10.18,-4.757 10.18,-15.617 0,-10.863 -3.28,-15.726 -10.18,-15.726 -7.37,0 -10.65,5.089 -10.65,16.066 0,9.387 3.4,15.277 10.65,15.277 z M 2510,596.617 c 4.86,0 9.39,1.582 13.47,4.977 2.49,-3.172 5.77,-4.528 10.29,-4.528 3.28,0 4.86,0.454 6.56,1.02 v 11.43 h -2.6 c -1.7,0 -2.71,1.359 -2.71,3.164 v 40.172 h -14.38 l -0.22,-3.168 c -2.72,2.488 -6.34,4.074 -10.98,4.074 -13.69,0 -23.86,-11.883 -23.86,-27.836 0,-17.77 8.93,-29.305 24.43,-29.305"/><path
            id="path82"
            style="fill:#ed1c24;fill-opacity:1;fill-rule:nonzero;stroke:none"
            d="m 2563.99,597.066 c 3.62,-0.007 6.45,1.352 6.45,1.352 v 10.977 h -2.6 c -2.04,0 -4.2,1.023 -4.2,3.851 v 60.649 h -14.59 v -60.872 c 0,-13.355 7.47,-15.957 14.94,-15.957"/><path
            id="path84"
            style="fill:#ed1c24;fill-opacity:1;fill-rule:nonzero;stroke:none"
            d="m 2599.64,608.945 c -5.43,0 -8.38,2.598 -9.06,6.336 h -14.37 c 1.47,-9.73 8.72,-18.558 22.75,-18.558 15.05,0 23.76,7.578 23.76,17.875 0,9.394 -6.68,14.484 -13.81,16.07 -12.21,2.715 -16.4,2.035 -16.4,6.449 0,2.715 2.83,4.641 7.35,4.641 4.87,0 7.01,-2.379 7.58,-5.883 h 14.15 c -0.91,9.613 -7.81,17.762 -21.73,17.762 -15.05,0 -21.95,-8.942 -21.95,-17.653 0,-8.144 6.68,-13.691 14.6,-15.382 11.08,-2.379 15.73,-1.813 15.73,-6.793 0,-2.602 -3.28,-4.864 -8.6,-4.864"/><path
            id="path86"
            style="fill:#ed1c24;fill-opacity:1;fill-rule:nonzero;stroke:none"
            d="m 877.973,508.953 c -13.813,3.621 -23.203,3.738 -23.203,10.75 0,5.434 5.21,8.598 11.996,8.598 7.464,0 11.425,-4.414 12.222,-9.731 h 16.297 c -1.359,11.2 -8.836,23.422 -28.519,23.422 -16.629,0 -28.063,-8.941 -28.063,-22.515 0,-12.899 10.188,-18.672 18.899,-20.938 15.496,-3.953 23.535,-3.953 23.535,-11.648 0,-6.114 -5.996,-9.957 -14.485,-9.957 -7.922,0 -13.117,4.976 -13.914,11.539 h -16.519 c 1.234,-12.45 10.176,-25.461 30.097,-25.461 18.332,0 30.774,9.957 30.774,24.215 0,11.656 -6.215,18.332 -19.117,21.726"/><path
            id="path88"
            style="fill:#ed1c24;fill-opacity:1;fill-rule:nonzero;stroke:none"
            d="m 939.203,519.809 -11.547,-35.864 -11.308,35.864 -15.282,0.004 c 6.34,-18.446 13.239,-37.684 19.579,-56.125 -0.567,-1.583 -1.465,-3.625 -2.262,-5.208 -0.684,-1.468 -2.035,-2.828 -5.094,-2.828 h -5.883 V 443.32 c 2.485,-0.336 5.199,-0.453 6.793,-0.453 7.914,0 14.25,4.414 16.746,11.543 l 23.309,65.399 h -15.051"/><path
            id="path90"
            style="fill:#ed1c24;fill-opacity:1;fill-rule:nonzero;stroke:none"
            d="m 992.734,464.363 h 14.596 v 34.289 c 0,12.903 -7.13,21.836 -19.123,21.836 -4.414,0 -9.391,-1.695 -13.238,-4.519 l -0.231,3.84 h -14.367 v -55.446 h 14.598 v 28.289 c 0,11.543 3.398,14.942 9.617,14.942 3.621,0 8.148,-2.149 8.148,-9.852 v -33.379"/><path
            id="path92"
            style="fill:#ed1c24;fill-opacity:1;fill-rule:nonzero;stroke:none"
            d="m 1051.7,491.973 c 0,-10.524 -2.94,-15.504 -10.18,-15.504 -7.36,0 -10.41,5.316 -10.41,15.953 0,9.058 3.05,15.391 10.18,15.391 6.67,0 10.41,-4.868 10.41,-15.84 z m -13.23,28.742 c -13.25,0 -22.07,-12.672 -22.07,-27.945 0,-20.254 11.43,-29.2 22.29,-29.2 5.99,0 9.95,2.375 12.45,4.414 l 0.22,-3.625 h 14.38 v 76.493 h -14.6 v -24.325 c -3.06,2.375 -6.11,4.188 -12.67,4.188"/><path
            id="path94"
            style="fill:#ed1c24;fill-opacity:1;fill-rule:nonzero;stroke:none"
            d="m 1093.36,464.359 v 55.45 h -14.6 v -55.45 h 14.6"/><path
            id="path96"
            style="fill:#ed1c24;fill-opacity:1;fill-rule:nonzero;stroke:none"
            d="m 1093.47,540.852 h -14.82 v -15.618 h 14.82 v 15.618"/><path
            id="path98"
            style="fill:#ed1c24;fill-opacity:1;fill-rule:nonzero;stroke:none"
            d="m 1152.99,483.145 h -14.71 c -1.36,-4.754 -4.18,-6.676 -8.71,-6.676 -7.58,0 -11.43,5.316 -11.43,15.726 0,10.641 3.85,15.618 10.97,15.614 4.42,0 7.48,-2.039 8.72,-7.125 h 14.82 c -1.81,11.761 -10.07,20.023 -23.54,20.023 -15.61,0.008 -25.68,-10.746 -25.68,-28.512 0,-17.875 10.07,-28.625 26.14,-28.632 12.56,0 20.94,7.585 23.42,19.582"/><path
            id="path100"
            style="fill:#ed1c24;fill-opacity:1;fill-rule:nonzero;stroke:none"
            d="m 1173.71,492.535 c 0,9.391 3.39,15.274 10.63,15.274 6.91,0 10.19,-4.75 10.19,-15.618 0,-10.859 -3.28,-15.722 -10.19,-15.722 -7.35,0 -10.63,5.09 -10.63,16.066 z m 23.2,-23.988 c 2.48,-3.172 5.76,-4.527 10.29,-4.527 3.28,0 4.86,0.453 6.56,1.019 v 11.43 h -2.6 c -1.69,0 -2.71,1.359 -2.71,3.164 v 40.172 h -14.37 l -0.23,-3.172 c -2.71,2.488 -6.34,4.074 -10.98,4.074 -13.69,0 -23.87,-11.883 -23.87,-27.832 0,-17.77 8.94,-29.312 24.44,-29.312 4.86,0 9.39,1.589 13.47,4.984"/><path
            id="path102"
            style="fill:#ed1c24;fill-opacity:1;fill-rule:nonzero;stroke:none"
            d="m 1242.75,464.016 c 4.41,0 8.48,1.355 8.48,1.355 v 11.199 h -5.66 c -1.81,0 -4.07,1.25 -4.07,4.078 v 26.477 h 11.32 v 12.676 h -11.32 v 20.254 h -14.6 v -20.25 h -8.36 v -12.676 h 8.36 v -26.703 c 0,-13.356 7.92,-16.406 15.85,-16.41"/><path
            id="path104"
            style="fill:#ed1c24;fill-opacity:1;fill-rule:nonzero;stroke:none"
            d="m 1313.93,476.465 c -7.35,0 -10.4,5.312 -10.4,15.945 0,9.059 3.05,15.395 10.17,15.395 6.68,0 10.42,-4.871 10.42,-15.84 0,-10.524 -2.94,-15.5 -10.19,-15.5 z m 9.63,40.055 c -3.06,2.371 -6.12,4.183 -12.67,4.183 -13.25,0 -22.07,-12.676 -22.07,-27.949 0,-20.254 11.43,-29.191 22.29,-29.191 5.99,0 9.95,2.375 12.45,4.41 l 0.22,-3.618 h 14.37 v 76.489 h -14.59 V 516.52"/><path
            id="path106"
            style="fill:#ed1c24;fill-opacity:1;fill-rule:nonzero;stroke:none"
            d="m 1369.28,463.668 c 4.41,0 9.39,1.699 13.24,4.523 l 0.23,-3.839 h 14.36 v 55.445 h -14.59 v -28.18 c 0,-11.312 -3.39,-15.051 -9.62,-15.051 -3.62,0 -8.15,2.493 -8.15,9.957 v 33.274 h -14.59 v -34.289 c 0,-12.903 7.13,-21.84 19.12,-21.84"/><path
            id="path108"
            style="fill:#ed1c24;fill-opacity:1;fill-rule:nonzero;stroke:none"
            d="m 1463.22,476.34 c -6.68,0.004 -10.41,4.867 -10.41,15.844 0,10.519 2.94,15.5 10.18,15.496 7.35,0 10.42,-5.313 10.42,-15.953 0,-9.051 -3.07,-15.387 -10.19,-15.387 z m 24.88,15.047 c 0,20.254 -11.41,29.195 -22.28,29.195 -6,0 -9.96,-2.367 -12.44,-4.41 v 3.625 h -14.6 v -76.492 h 14.6 v 24.328 c 3.04,-2.379 6.11,-4.195 12.66,-4.195 13.25,0 22.06,12.675 22.06,27.949"/><path
            id="path110"
            style="fill:#ed1c24;fill-opacity:1;fill-rule:nonzero;stroke:none"
            d="m 1520.37,508.023 c 6.23,0 9.63,-4.414 10.08,-10.41 h -20.48 c 1.13,6.672 4.41,10.41 10.4,10.41 z m 23.76,-25.914 -14.81,0.114 c -1.82,-4.641 -5.33,-5.77 -8.83,-5.77 -5.09,0 -9.74,2.262 -10.64,10.301 h 35.08 c 0.12,0.559 0.57,3.387 0.57,6.332 0,15.16 -8.95,27.613 -25.01,27.613 -15.84,0 -25.57,-10.98 -25.57,-28.519 0,-17.992 9.83,-28.625 25.45,-28.625 12.68,0 20.37,7.242 23.76,18.554"/><path
            id="path112"
            style="fill:#ed1c24;fill-opacity:1;fill-rule:nonzero;stroke:none"
            d="m 1569.94,514.125 -0.21,5.66 -14.38,0.004 v -55.441 l 14.59,-0.008 v 26.363 c 0,11.77 4.53,16.07 11.21,16.07 h 6.1 v 13.012 c -1.58,0.68 -3.04,0.789 -5.54,0.789 -3.62,0 -8.6,-2.035 -11.77,-6.449"/><path
            id="path114"
            style="fill:#ed1c24;fill-opacity:1;fill-rule:nonzero;stroke:none"
            d="m 1615.9,475.883 c -5.43,0 -8.38,2.597 -9.06,6.34 h -14.37 c 1.47,-9.735 8.71,-18.567 22.74,-18.567 15.05,0 23.76,7.582 23.76,17.883 0,9.395 -6.68,14.481 -13.8,16.066 -12.22,2.715 -16.4,2.04 -16.4,6.45 0,2.718 2.83,4.64 7.35,4.64 4.86,0 7.01,-2.379 7.58,-5.882 h 14.14 c -0.9,9.613 -7.8,17.761 -21.72,17.761 -15.06,0 -21.95,-8.937 -21.95,-17.648 0,-8.145 6.68,-13.692 14.6,-15.387 11.09,-2.379 15.72,-1.812 15.72,-6.793 0,-2.601 -3.28,-4.863 -8.59,-4.863"/><path
            id="path116"
            style="fill:#ed1c24;fill-opacity:1;fill-rule:nonzero;stroke:none"
            d="m 1671.01,507.793 c 7.24,0 10.52,-5.777 10.52,-15.395 0,-11.089 -3.28,-15.949 -10.52,-15.949 -7.24,0 -10.52,4.864 -10.52,15.953 0,9.618 3.28,15.391 10.52,15.391 z m 0,-44.242 c 15.84,-0.004 25.24,10.742 25.24,29.07 0,16.293 -9.06,28.067 -25.24,28.07 -16.18,0 -25.23,-11.769 -25.23,-28.062 0,-18.332 9.39,-29.078 25.23,-29.078"/><path
            id="path118"
            style="fill:#ed1c24;fill-opacity:1;fill-rule:nonzero;stroke:none"
            d="m 1752.95,464.336 v 34.285 c 0,12.902 -7.13,21.84 -19.12,21.84 -4.42,0 -9.4,-1.695 -13.25,-4.527 l -0.22,3.847 h -14.38 v -55.445 h 14.6 v 28.285 c 0,11.543 3.4,14.942 9.62,14.942 3.63,0 8.15,-2.153 8.15,-9.848 v -33.379 h 14.6"/><path
            id="path120"
            style="fill:#ed1c24;fill-opacity:1;fill-rule:nonzero;stroke:none"
            d="m 1811.91,464.332 v 34.285 c 0,12.903 -7.13,21.836 -19.13,21.836 -4.41,0.008 -9.38,-1.687 -13.23,-4.519 l -0.23,3.847 h -14.37 v -55.445 h 14.6 v 28.285 c 0,11.543 3.39,14.942 9.62,14.942 3.61,-0.004 8.14,-2.153 8.14,-9.852 v -33.379 h 14.6"/><path
            id="path122"
            style="fill:#ed1c24;fill-opacity:1;fill-rule:nonzero;stroke:none"
            d="m 1846.43,508.008 c 6.23,0 9.63,-4.414 10.08,-10.406 h -20.48 c 1.14,6.675 4.42,10.406 10.4,10.406 z m -25.45,-15.84 c 0,-17.988 9.84,-28.629 25.45,-28.629 12.68,0 20.38,7.242 23.76,18.555 l -14.81,0.117 c -1.82,-4.645 -5.32,-5.77 -8.83,-5.77 -5.09,0 -9.73,2.258 -10.63,10.297 h 35.07 c 0.12,0.567 0.57,3.391 0.57,6.332 0,15.16 -8.94,27.614 -25.01,27.614 -15.84,0 -25.57,-10.977 -25.57,-28.516"/><path
            id="path124"
            style="fill:#ed1c24;fill-opacity:1;fill-rule:nonzero;stroke:none"
            d="m 1880.74,540.82 v -60.875 c 0,-13.347 7.46,-15.957 14.93,-15.957 3.63,0 6.46,1.356 6.46,1.356 v 10.98 l -2.61,0.004 c -2.03,0 -4.18,1.016 -4.18,3.844 v 60.648 h -14.6"/><path
            id="path126"
            style="fill:#ed1c24;fill-opacity:1;fill-rule:nonzero;stroke:none"
            d="m 1951.7,492.387 c 0,9.054 3.04,15.39 10.17,15.39 6.68,0 10.42,-4.867 10.42,-15.839 0,-10.524 -2.95,-15.504 -10.18,-15.504 -7.37,0 -10.41,5.32 -10.41,15.953 z m 20.03,-24.438 0.21,-3.625 h 14.39 v 76.492 h -14.6 v -24.328 c -3.07,2.379 -6.12,4.192 -12.68,4.192 -13.24,0 -22.07,-12.676 -22.07,-27.95 0,-20.253 11.44,-29.195 22.3,-29.195 5.99,0 9.95,2.371 12.45,4.414"/><path
            id="path128"
            style="fill:#ed1c24;fill-opacity:1;fill-rule:nonzero;stroke:none"
            d="m 2021.52,507.996 c 6.22,0 9.62,-4.406 10.07,-10.402 l -20.48,0.004 c 1.13,6.668 4.42,10.398 10.41,10.398 z m 23.76,-25.91 -14.82,0.117 c -1.81,-4.644 -5.32,-5.773 -8.82,-5.773 -5.1,0 -9.74,2.261 -10.64,10.304 l 35.07,-0.007 c 0.12,0.57 0.57,3.394 0.57,6.339 0,15.157 -8.94,27.61 -25,27.61 -15.85,0.004 -25.58,-10.973 -25.58,-28.512 0,-17.988 9.85,-28.629 25.46,-28.633 12.68,0 20.36,7.239 23.76,18.555"/><path
            id="path130"
            style="fill:#ed1c24;fill-opacity:1;fill-rule:nonzero;stroke:none"
            d="m 2069.63,487.52 c 11.08,-2.379 15.72,-1.813 15.72,-6.793 0,-2.602 -3.27,-4.864 -8.6,-4.864 -5.43,0 -8.37,2.606 -9.05,6.34 h -14.37 c 1.47,-9.73 8.72,-18.562 22.75,-18.562 15.05,0 23.76,7.586 23.76,17.879 0,9.398 -6.68,14.488 -13.81,16.074 -12.21,2.715 -16.4,2.031 -16.4,6.445 0,2.719 2.82,4.645 7.35,4.645 4.86,0 7.01,-2.383 7.58,-5.891 h 14.15 c -0.91,9.617 -7.81,17.766 -21.73,17.766 -15.05,0 -21.95,-8.938 -21.95,-17.653 0,-8.144 6.67,-13.687 14.6,-15.386"/><path
            id="path132"
            style="fill:#ed1c24;fill-opacity:1;fill-rule:nonzero;stroke:none"
            d="m 2156.99,540.016 h -14.6 v -20.25 h -8.36 V 507.09 h 8.36 v -26.703 c 0,-13.356 7.93,-16.407 15.85,-16.407 4.41,0 8.49,1.356 8.49,1.356 v 11.203 h -5.66 c -1.81,0 -4.08,1.242 -4.08,4.074 v 26.477 h 11.32 v 12.676 h -11.32 v 20.25"/><path
            id="path134"
            style="fill:#ed1c24;fill-opacity:1;fill-rule:nonzero;stroke:none"
            d="m 2210.3,519.766 c -1.58,0.672 -3.06,0.793 -5.55,0.793 -3.62,0 -8.6,-2.043 -11.76,-6.454 l -0.23,5.661 h -14.37 v -55.45 h 14.6 v 26.368 c 0,11.765 4.53,16.07 11.21,16.07 h 6.1 v 13.012"/><path
            id="path136"
            style="fill:#ed1c24;fill-opacity:1;fill-rule:nonzero;stroke:none"
            d="m 2240.98,476.422 c -7.36,0 -10.64,5.098 -10.64,16.074 0,9.391 3.4,15.27 10.64,15.27 6.89,0 10.17,-4.754 10.17,-15.618 0,-10.863 -3.28,-15.726 -10.17,-15.726 z m 22.86,-12.445 c 3.28,0 4.86,0.453 6.56,1.019 v 11.426 h -2.61 c -1.69,0 -2.72,1.355 -2.72,3.168 v 40.172 h -14.37 l -0.21,-3.176 c -2.73,2.492 -6.35,4.078 -10.99,4.078 -13.69,0.004 -23.88,-11.879 -23.88,-27.832 0,-17.766 8.95,-29.309 24.45,-29.312 4.87,0 9.38,1.585 13.46,4.98 2.49,-3.168 5.78,-4.523 10.31,-4.523"/><path
            id="path138"
            style="fill:#ed1c24;fill-opacity:1;fill-rule:nonzero;stroke:none"
            d="m 2326.65,464.313 v 34.285 c 0,12.902 -7.14,21.836 -19.12,21.836 -4.42,0 -9.4,-1.696 -13.24,-4.52 l -0.23,3.848 h -14.37 v -55.449 h 14.6 v 28.285 c 0,11.547 3.39,14.941 9.61,14.941 3.63,0 8.15,-2.148 8.15,-9.844 v -33.382 h 14.6"/><path
            id="path140"
            style="fill:#ed1c24;fill-opacity:1;fill-rule:nonzero;stroke:none"
            d="m 2382.1,481.508 c 0,9.394 -6.68,14.484 -13.8,16.07 -12.23,2.715 -16.41,2.035 -16.41,6.445 0,2.719 2.84,4.645 7.35,4.645 4.87,0 7.02,-2.379 7.58,-5.887 h 14.15 c -0.9,9.617 -7.81,17.766 -21.73,17.766 -15.05,0 -21.95,-8.938 -21.95,-17.652 0,-8.145 6.68,-13.692 14.6,-15.391 11.09,-2.375 15.73,-1.813 15.73,-6.785 0,-2.61 -3.29,-4.864 -8.6,-4.864 -5.43,0 -8.38,2.598 -9.05,6.333 l -14.38,0.003 c 1.48,-9.73 8.72,-18.562 22.75,-18.562 15.05,0 23.76,7.582 23.76,17.879"/><path
            id="path142"
            style="fill:#ed1c24;fill-opacity:1;fill-rule:nonzero;stroke:none"
            d="m 2416.06,507.645 c 7.36,0 10.4,-5.317 10.4,-15.95 0,-9.054 -3.04,-15.39 -10.17,-15.39 -6.68,0 -10.41,4.863 -10.41,15.84 0,10.519 2.94,15.5 10.18,15.5 z m -24.22,12.113 v -76.492 h 14.6 v 24.324 c 3.06,-2.375 6.11,-4.188 12.67,-4.188 13.25,0 22.07,12.676 22.07,27.95 0,20.253 -11.44,29.195 -22.28,29.195 -6,0 -9.97,-2.371 -12.46,-4.414 v 3.625 h -14.6"/><path
            id="path144"
            style="fill:#ed1c24;fill-opacity:1;fill-rule:nonzero;stroke:none"
            d="m 2462.69,492.367 c 0,9.621 3.29,15.387 10.53,15.387 7.24,0 10.52,-5.766 10.52,-15.387 0,-11.09 -3.28,-15.953 -10.52,-15.953 -7.24,0 -10.53,4.863 -10.53,15.953 z m 35.77,0.227 c 0,16.293 -9.06,28.058 -25.24,28.058 -16.18,0 -25.24,-11.761 -25.24,-28.054 0,-18.332 9.39,-29.082 25.24,-29.082 15.83,0 25.24,10.746 25.24,29.078"/><path
            id="path146"
            style="fill:#ed1c24;fill-opacity:1;fill-rule:nonzero;stroke:none"
            d="m 2522.9,514.094 -0.23,5.656 h -14.37 v -55.441 h 14.6 v 26.359 c 0,11.77 4.53,16.07 11.2,16.07 h 6.11 v 13.012 c -1.58,0.676 -3.05,0.793 -5.54,0.793 -3.63,0 -8.61,-2.043 -11.77,-6.449"/><path
            id="path148"
            style="fill:#ed1c24;fill-opacity:1;fill-rule:nonzero;stroke:none"
            d="m 2568.17,463.961 c 4.42,0 8.49,1.355 8.49,1.355 V 476.52 H 2571 c -1.81,0 -4.08,1.25 -4.08,4.078 v 26.472 h 11.32 v 12.676 h -11.32 V 540 l -14.59,0.004 V 519.75 h -8.37 v -12.676 h 8.37 v -26.703 c 0,-13.351 7.92,-16.406 15.84,-16.41"/><path
            id="path150"
            style="fill:#ed1c24;fill-opacity:1;fill-rule:nonzero;stroke:none"
            d="m 2617.86,497.566 c -12.23,2.715 -16.42,2.039 -16.42,6.45 0,2.718 2.84,4.64 7.37,4.64 4.86,0 7.01,-2.379 7.58,-5.883 h 14.14 c -0.9,9.614 -7.81,17.762 -21.72,17.762 -15.05,0 -21.97,-8.937 -21.97,-17.648 0,-8.145 6.68,-13.692 14.6,-15.387 11.1,-2.383 15.74,-1.816 15.74,-6.793 0,-2.602 -3.28,-4.863 -8.61,-4.863 -5.43,0 -8.37,2.597 -9.04,6.336 h -14.37 c 1.47,-9.731 8.71,-18.563 22.74,-18.563 15.05,0 23.76,7.582 23.76,17.883 0,9.395 -6.67,14.48 -13.8,16.066"/><path
            id="path152"
            style="fill:#ed1c24;fill-opacity:1;fill-rule:nonzero;stroke:none"
            d="m 877.973,375.855 c -13.813,3.622 -23.203,3.739 -23.203,10.75 0,5.43 5.21,8.598 11.996,8.598 7.464,0 11.425,-4.414 12.222,-9.73 h 16.297 c -1.359,11.203 -8.836,23.422 -28.519,23.422 -16.629,0 -28.063,-8.938 -28.063,-22.516 0,-12.902 10.188,-18.668 18.899,-20.934 15.496,-3.957 23.535,-3.957 23.535,-11.656 0,-6.109 -5.996,-9.957 -14.485,-9.957 -7.922,0 -13.117,4.981 -13.914,11.543 h -16.519 c 1.234,-12.445 10.176,-25.453 30.097,-25.453 18.332,0 30.774,9.949 30.774,24.211 0,11.652 -6.215,18.328 -19.117,21.722"/><path
            id="path154"
            style="fill:#ed1c24;fill-opacity:1;fill-rule:nonzero;stroke:none"
            d="m 907.859,392.145 h 14.821 v 15.613 h -14.821 v -15.613"/><path
            id="path156"
            style="fill:#ed1c24;fill-opacity:1;fill-rule:nonzero;stroke:none"
            d="m 907.973,331.27 h 14.597 v 55.445 H 907.973 V 331.27"/><path
            id="path158"
            style="fill:#ed1c24;fill-opacity:1;fill-rule:nonzero;stroke:none"
            d="m 963.422,387.398 c -4.41,0 -9.391,-1.699 -13.238,-4.531 l -0.231,3.848 H 935.59 V 331.27 h 14.594 v 28.285 c 0,11.543 3.398,14.941 9.617,14.941 3.621,0 8.148,-2.148 8.148,-9.848 V 331.27 h 14.598 v 34.289 c 0,12.898 -7.133,21.839 -19.125,21.839"/><path
            id="path160"
            style="fill:#ed1c24;fill-opacity:1;fill-rule:nonzero;stroke:none"
            d="m 1016.73,343.379 c -7.36,0 -10.41,5.312 -10.41,15.953 0,9.051 3.05,15.391 10.18,15.391 6.68,-0.004 10.41,-4.875 10.41,-15.844 0,-10.524 -2.94,-15.504 -10.18,-15.5 z m 9.61,40.051 c -3.05,2.375 -6.11,4.187 -12.67,4.191 -13.23,0 -22.061,-12.676 -22.061,-27.949 0,-20.258 11.431,-29.195 22.291,-29.195 6,0 9.96,2.375 12.44,4.406 l 0.23,-3.613 h 14.37 v 76.484 h -14.6 V 383.43"/><path
            id="path162"
            style="fill:#ed1c24;fill-opacity:1;fill-rule:nonzero;stroke:none"
            d="m 1076.04,343.375 c -7.36,0 -10.64,5.086 -10.64,16.066 0,9.391 3.39,15.278 10.64,15.278 6.89,0 10.17,-4.754 10.17,-15.617 0,-10.864 -3.28,-15.727 -10.17,-15.727 z m 24.09,3.164 v 40.168 h -14.36 l -0.23,-3.168 c -2.72,2.492 -6.34,4.078 -10.98,4.078 -13.69,0 -23.87,-11.887 -23.87,-27.836 0,-17.769 8.94,-29.304 24.44,-29.304 4.87,0 9.39,1.582 13.46,4.972 2.5,-3.164 5.78,-4.519 10.31,-4.519 3.28,0 4.86,0.449 6.55,1.011 v 11.434 h -2.59 c -1.7,0 -2.73,1.355 -2.73,3.164"/><path
            id="path164"
            style="fill:#ed1c24;fill-opacity:1;fill-rule:nonzero;stroke:none"
            d="m 1137.94,343.367 c -7.58,0 -11.42,5.324 -11.42,15.735 0,10.632 3.84,15.609 10.97,15.609 4.41,0 7.47,-2.035 8.71,-7.129 h 14.83 c -1.81,11.77 -10.07,20.031 -23.54,20.031 -15.62,0.004 -25.68,-10.75 -25.68,-28.511 0,-17.879 10.06,-28.625 26.13,-28.633 12.57,0 20.94,7.59 23.43,19.574 h -14.71 c -1.36,-4.75 -4.19,-6.676 -8.72,-6.676"/><path
            id="path166"
            style="fill:#ed1c24;fill-opacity:1;fill-rule:nonzero;stroke:none"
            d="m 1192.73,343.367 c -7.36,0 -10.64,5.09 -10.64,16.071 0,9.39 3.4,15.273 10.64,15.273 6.89,0 10.17,-4.75 10.17,-15.613 0,-10.868 -3.28,-15.731 -10.17,-15.731 z m 24.09,3.172 v 40.164 h -14.37 l -0.22,-3.168 c -2.72,2.488 -6.34,4.078 -10.98,4.078 -13.69,0 -23.87,-11.886 -23.87,-27.84 0,-17.765 8.94,-29.304 24.44,-29.304 4.87,0 9.38,1.582 13.46,4.98 2.5,-3.176 5.78,-4.531 10.3,-4.531 3.29,0 4.87,0.461 6.57,1.023 v 11.426 h -2.61 c -1.69,0 -2.72,1.36 -2.72,3.172"/><path
            id="path168"
            style="fill:#ed1c24;fill-opacity:1;fill-rule:nonzero;stroke:none"
            d="m 1249.87,406.953 -14.59,0.004 v -20.254 h -8.37 v -12.672 h 8.37 v -26.703 c 0,-13.355 7.92,-16.41 15.84,-16.41 4.41,0 8.49,1.355 8.49,1.355 v 11.204 h -5.66 c -1.81,0 -4.08,1.246 -4.08,4.074 v 26.476 h 11.32 v 12.672 h -11.32 v 20.254"/><path
            id="path170"
            style="fill:#ed1c24;fill-opacity:1;fill-rule:nonzero;stroke:none"
            d="m 1293.45,343.363 c -7.25,0 -10.52,4.864 -10.52,15.953 0,9.618 3.27,15.391 10.52,15.391 7.24,0 10.52,-5.773 10.52,-15.391 0,-11.089 -3.28,-15.953 -10.52,-15.953 z m 0,44.242 c -16.18,0 -25.23,-11.765 -25.23,-28.066 0,-18.328 9.39,-29.07 25.23,-29.07 15.85,0 25.24,10.742 25.24,29.07 0,16.301 -9.06,28.066 -25.24,28.066"/><path
            id="path172"
            style="fill:#ed1c24;fill-opacity:1;fill-rule:nonzero;stroke:none"
            d="m 1379.58,343.359 c -7.35,0 -10.41,5.317 -10.41,15.954 0,9.054 3.06,15.39 10.18,15.39 6.67,0 10.41,-4.871 10.41,-15.84 0,-10.523 -2.94,-15.504 -10.18,-15.504 z m 9.62,40.059 c -3.06,2.371 -6.11,4.184 -12.67,4.184 -13.25,0 -22.07,-12.676 -22.07,-27.95 0,-20.25 11.43,-29.195 22.29,-29.195 6,0 9.96,2.375 12.45,4.414 l 0.22,-3.621 h 14.38 v 76.488 h -14.6 v -24.32"/><path
            id="path174"
            style="fill:#ed1c24;fill-opacity:1;fill-rule:nonzero;stroke:none"
            d="m 1428.59,364.52 c 1.14,6.675 4.42,10.406 10.41,10.406 6.22,0 9.62,-4.41 10.07,-10.406 z m 10.52,23.082 c -15.84,0 -25.57,-10.977 -25.57,-28.516 0,-17.992 9.85,-28.629 25.46,-28.629 12.67,0 20.36,7.238 23.76,18.559 l -14.82,0.117 c -1.82,-4.645 -5.32,-5.774 -8.83,-5.774 -5.09,0 -9.73,2.262 -10.63,10.297 l 35.07,-0.004 c 0.12,0.567 0.57,3.395 0.57,6.336 0,15.164 -8.94,27.614 -25.01,27.614"/><path
            id="path176"
            style="fill:#ed1c24;fill-opacity:1;fill-rule:nonzero;stroke:none"
            d="m 1487.9,347.09 v 60.648 h -14.6 v -60.875 c 0,-13.347 7.46,-15.957 14.93,-15.957 3.62,0 6.46,1.36 6.46,1.36 v 10.976 h -2.61 c -2.03,0 -4.18,1.016 -4.18,3.848"/><path
            id="path178"
            style="fill:#ed1c24;fill-opacity:1;fill-rule:nonzero;stroke:none"
            d="m 1556.93,343.242 c -6.68,0 -10.41,4.863 -10.41,15.84 0,10.523 2.93,15.504 10.18,15.504 7.35,0 10.42,-5.324 10.42,-15.953 0,-9.055 -3.07,-15.391 -10.19,-15.391 z m 2.6,44.242 c -6,0 -9.96,-2.371 -12.44,-4.414 v 3.625 h -14.6 v -76.492 h 14.6 v 24.328 c 3.05,-2.375 6.1,-4.187 12.66,-4.187 13.25,0 22.07,12.668 22.07,27.941 0,20.254 -11.42,29.195 -22.29,29.199"/><path
            id="path180"
            style="fill:#ed1c24;fill-opacity:1;fill-rule:nonzero;stroke:none"
            d="m 1603.68,364.512 c 1.12,6.676 4.4,10.406 10.4,10.406 6.23,0 9.62,-4.41 10.08,-10.406 z m 10.52,23.082 c -15.84,0 -25.57,-10.977 -25.57,-28.516 0,-17.984 9.84,-28.629 25.45,-28.629 12.68,0 20.37,7.246 23.76,18.559 l -14.81,0.113 c -1.82,-4.641 -5.33,-5.766 -8.83,-5.766 -5.09,0 -9.74,2.254 -10.64,10.293 h 35.08 c 0.11,0.567 0.57,3.391 0.57,6.336 0,15.161 -8.95,27.61 -25.01,27.61"/><path
            id="path182"
            style="fill:#ed1c24;fill-opacity:1;fill-rule:nonzero;stroke:none"
            d="m 1663.65,381.031 -0.21,5.657 h -14.38 v -55.45 h 14.59 v 26.367 c 0,11.77 4.53,16.071 11.2,16.071 l 6.12,-0.004 v 13.012 c -1.59,0.683 -3.05,0.796 -5.55,0.796 -3.61,0 -8.6,-2.042 -11.77,-6.449"/><path
            id="path184"
            style="fill:#ed1c24;fill-opacity:1;fill-rule:nonzero;stroke:none"
            d="m 1718.89,364.508 c -12.23,2.715 -16.41,2.035 -16.41,6.445 0,2.719 2.83,4.645 7.34,4.645 4.88,0 7.02,-2.379 7.59,-5.887 h 14.14 c -0.9,9.613 -7.8,17.766 -21.73,17.766 -15.05,0 -21.94,-8.942 -21.94,-17.653 0,-8.144 6.68,-13.691 14.6,-15.386 11.08,-2.383 15.72,-1.817 15.72,-6.793 0,-2.602 -3.28,-4.864 -8.59,-4.864 -5.43,0 -8.38,2.602 -9.05,6.336 h -14.38 c 1.47,-9.73 8.71,-18.558 22.74,-18.558 15.05,0 23.76,7.586 23.76,17.879 0,9.394 -6.68,14.484 -13.79,16.07"/><path
            id="path186"
            style="fill:#ed1c24;fill-opacity:1;fill-rule:nonzero;stroke:none"
            d="m 1764.72,343.348 c -7.24,0 -10.52,4.867 -10.52,15.953 0,9.621 3.28,15.387 10.52,15.387 7.24,0 10.52,-5.766 10.52,-15.387 0,-11.086 -3.28,-15.953 -10.52,-15.953 z m 0,44.242 c -16.19,0 -25.23,-11.77 -25.23,-28.063 0,-18.336 9.4,-29.078 25.23,-29.078 15.85,0 25.23,10.742 25.23,29.078 0,16.293 -9.05,28.063 -25.23,28.063"/><path
            id="path188"
            style="fill:#ed1c24;fill-opacity:1;fill-rule:nonzero;stroke:none"
            d="m 1827.54,387.359 c -4.42,0 -9.4,-1.695 -13.24,-4.527 l -0.23,3.848 h -14.37 v -55.45 h 14.6 v 28.29 c 0,11.543 3.39,14.937 9.6,14.937 3.64,0 8.16,-2.148 8.16,-9.844 V 331.23 h 14.6 v 34.293 c 0,12.899 -7.14,21.836 -19.12,21.836"/><path
            id="path190"
            style="fill:#ed1c24;fill-opacity:1;fill-rule:nonzero;stroke:none"
            d="m 1881.07,343.344 c -7.35,0 -10.63,5.09 -10.63,16.066 0,9.391 3.39,15.278 10.63,15.278 6.9,0 10.18,-4.754 10.18,-15.622 0,-10.859 -3.28,-15.722 -10.18,-15.722 z m 24.09,3.16 v 40.172 l -14.36,0.004 -0.23,-3.168 c -2.71,2.488 -6.33,4.078 -10.97,4.078 -13.69,0 -23.88,-11.887 -23.88,-27.84 0,-17.77 8.95,-29.312 24.44,-29.312 4.88,0 9.39,1.582 13.47,4.984 2.49,-3.164 5.77,-4.524 10.3,-4.531 3.29,0 4.87,0.457 6.56,1.023 v 11.426 h -2.6 c -1.7,0 -2.73,1.355 -2.73,3.164"/><path
            id="path192"
            style="fill:#ed1c24;fill-opacity:1;fill-rule:nonzero;stroke:none"
            d="m 1933.82,347.07 v 60.649 h -14.6 v -60.871 c 0,-13.352 7.46,-15.957 14.93,-15.957 3.63,0 6.45,1.355 6.45,1.355 v 10.977 h -2.6 c -2.03,0 -4.18,1.019 -4.18,3.847"/><path
            id="path194"
            style="fill:#ed1c24;fill-opacity:1;fill-rule:nonzero;stroke:none"
            d="m 1961.54,364.496 c 1.13,6.68 4.42,10.41 10.41,10.41 6.23,0 9.62,-4.414 10.07,-10.41 z m 10.53,23.086 c -15.85,0 -25.58,-10.98 -25.58,-28.516 0,-17.992 9.85,-28.628 25.46,-28.628 12.68,0 20.36,7.238 23.76,18.554 l -14.81,0.117 c -1.82,-4.64 -5.33,-5.769 -8.83,-5.769 -5.1,0 -9.74,2.262 -10.64,10.297 h 35.08 c 0.11,0.566 0.57,3.39 0.57,6.336 0,15.16 -8.95,27.609 -25.01,27.609"/><path
            id="path196"
            style="fill:#ed1c24;fill-opacity:1;fill-rule:nonzero;stroke:none"
            d="m 2057.97,343.336 c -7.36,0 -10.41,5.312 -10.41,15.949 0,9.055 3.05,15.395 10.18,15.395 6.67,0 10.4,-4.871 10.4,-15.84 0,-10.524 -2.93,-15.504 -10.17,-15.504 z m 9.61,40.055 c -3.05,2.375 -6.11,4.187 -12.67,4.187 -13.23,0 -22.06,-12.676 -22.06,-27.949 0,-20.254 11.43,-29.199 22.3,-29.199 5.98,0 9.95,2.383 12.43,4.414 l 0.23,-3.614 h 14.37 v 76.485 h -14.6 v -24.324"/><path
            id="path198"
            style="fill:#ed1c24;fill-opacity:1;fill-rule:nonzero;stroke:none"
            d="m 2106.97,364.492 c 1.13,6.68 4.42,10.41 10.41,10.41 6.22,-0.004 9.62,-4.418 10.07,-10.41 z m 10.53,23.086 c -15.84,0 -25.58,-10.976 -25.58,-28.515 0,-17.989 9.85,-28.633 25.46,-28.633 12.68,0 20.37,7.246 23.77,18.554 l -14.83,0.118 c -1.8,-4.645 -5.32,-5.766 -8.82,-5.766 -5.1,0 -9.73,2.262 -10.65,10.297 l 35.08,-0.004 c 0.12,0.566 0.57,3.387 0.57,6.332 0,15.16 -8.94,27.613 -25,27.617"/><path
            id="path200"
            style="fill:#ed1c24;fill-opacity:1;fill-rule:nonzero;stroke:none"
            d="m 2152.48,392.094 h 14.81 v 15.617 h -14.81 v -15.617"/><path
            id="path202"
            style="fill:#ed1c24;fill-opacity:1;fill-rule:nonzero;stroke:none"
            d="m 2152.59,331.223 h 14.6 v 55.441 h -14.6 v -55.441"/><path
            id="path204"
            style="fill:#ed1c24;fill-opacity:1;fill-rule:nonzero;stroke:none"
            d="m 2227.63,406.918 h -14.6 v -20.254 h -8.37 v -12.676 h 8.37 v -26.703 c 0,-13.351 7.92,-16.406 15.85,-16.406 4.4,0 8.47,1.355 8.47,1.355 v 11.204 l -5.66,0.003 c -1.8,0 -4.06,1.247 -4.06,4.075 v 26.472 l 11.3,-0.004 v 12.676 l -11.3,0.004 v 20.254"/><path
            id="path206"
            style="fill:#ed1c24;fill-opacity:1;fill-rule:nonzero;stroke:none"
            d="m 2263.61,381 -0.22,5.66 h -14.38 v -55.437 h 14.6 v 26.355 c 0,11.774 4.53,16.074 11.2,16.074 h 6.12 v 13.008 c -1.59,0.684 -3.06,0.789 -5.55,0.789 -3.62,0 -8.6,-2.035 -11.77,-6.449"/><path
            id="path208"
            style="fill:#ed1c24;fill-opacity:1;fill-rule:nonzero;stroke:none"
            d="m 2311.6,343.324 c -7.35,0 -10.63,5.09 -10.63,16.071 0,9.39 3.38,15.273 10.63,15.273 6.89,0 10.18,-4.75 10.18,-15.613 0,-10.867 -3.29,-15.731 -10.18,-15.731 z m 24.09,3.168 v 40.168 h -14.36 l -0.23,-3.168 c -2.72,2.488 -6.34,4.074 -10.97,4.074 -13.7,0 -23.88,-11.882 -23.88,-27.836 0,-17.765 8.93,-29.3 24.44,-29.3 4.88,0 9.39,1.582 13.47,4.968 2.49,-3.164 5.77,-4.519 10.29,-4.519 3.28,0 4.87,0.449 6.56,1.016 v 11.429 h -2.59 c -1.7,0 -2.73,1.36 -2.73,3.168"/><path
            id="path210"
            style="fill:#ed1c24;fill-opacity:1;fill-rule:nonzero;stroke:none"
            d="m 2379.96,364.48 c -12.22,2.715 -16.42,2.036 -16.42,6.45 0,2.718 2.84,4.64 7.37,4.64 4.86,0 7.01,-2.382 7.57,-5.886 h 14.15 c -0.9,9.617 -7.81,17.765 -21.72,17.765 -15.05,0 -21.97,-8.937 -21.97,-17.652 0,-8.149 6.68,-13.688 14.6,-15.387 11.1,-2.379 15.74,-1.812 15.74,-6.793 0,-2.601 -3.29,-4.863 -8.61,-4.863 -5.43,0 -8.37,2.601 -9.04,6.34 h -14.38 c 1.48,-9.731 8.72,-18.567 22.75,-18.567 15.05,0 23.76,7.586 23.76,17.879 0,9.403 -6.67,14.489 -13.8,16.074"/><path
            id="path212"
            style="fill:#ed1c24;fill-opacity:1;fill-rule:nonzero;stroke:none"
            d="m 2427.95,343.207 c -6.68,0 -10.41,4.863 -10.41,15.84 0,10.523 2.94,15.5 10.17,15.5 7.36,0 10.42,-5.32 10.42,-15.949 0,-9.059 -3.06,-15.391 -10.18,-15.391 z m 2.6,44.242 c -6,0 -9.97,-2.375 -12.45,-4.414 v 3.621 h -14.6 v -76.492 h 14.6 v 24.328 c 3.05,-2.375 6.12,-4.187 12.67,-4.187 13.24,0 22.07,12.679 22.07,27.953 0,20.254 -11.43,29.191 -22.29,29.191"/><path
            id="path214"
            style="fill:#ed1c24;fill-opacity:1;fill-rule:nonzero;stroke:none"
            d="m 2484.87,343.316 c -7.24,0 -10.53,4.864 -10.53,15.95 0,9.621 3.29,15.39 10.53,15.39 7.24,0 10.52,-5.769 10.52,-15.39 0,-11.086 -3.28,-15.95 -10.52,-15.95 z m 0,44.243 c -16.18,0 -25.22,-11.77 -25.22,-28.067 0,-18.332 9.38,-29.07 25.22,-29.07 15.84,0 25.24,10.738 25.24,29.07 0,16.297 -9.06,28.067 -25.24,28.067"/><path
            id="path216"
            style="fill:#ed1c24;fill-opacity:1;fill-rule:nonzero;stroke:none"
            d="m 2534.56,380.996 -0.23,5.66 h -14.36 v -55.445 h 14.59 v 26.363 c 0,11.766 4.52,16.067 11.2,16.067 h 6.1 v 13.015 c -1.58,0.676 -3.04,0.789 -5.53,0.789 -3.63,0 -8.6,-2.039 -11.77,-6.449"/><path
            id="path218"
            style="fill:#ed1c24;fill-opacity:1;fill-rule:nonzero;stroke:none"
            d="m 2578.58,406.898 -14.6,0.004 v -20.246 h -8.37 V 373.98 h 8.37 v -26.707 c 0,-13.347 7.92,-16.414 15.84,-16.414 4.42,0 8.5,1.36 8.5,1.36 v 11.203 h -5.66 c -1.81,0 -4.08,1.246 -4.08,4.074 v 26.477 h 11.32 v 12.675 h -11.32 v 20.25"/><path
            id="path220"
            style="fill:#ed1c24;fill-opacity:1;fill-rule:nonzero;stroke:none"
            d="m 2600.1,392.078 h 14.81 v 15.617 h -14.81 v -15.617"/><path
            id="path222"
            style="fill:#ed1c24;fill-opacity:1;fill-rule:nonzero;stroke:none"
            d="m 2600.2,331.199 h 14.6 v 55.449 h -14.6 v -55.449"/></g></g></svg>
