<?xml version="1.0" encoding="UTF-8" standalone="no"?>
<svg
        xmlns:dc="http://purl.org/dc/elements/1.1/"
        xmlns:cc="http://creativecommons.org/ns#"
        xmlns:rdf="http://www.w3.org/1999/02/22-rdf-syntax-ns#"
        xmlns="http://www.w3.org/2000/svg"
        viewBox="0 0 87.973335 94.493332"
        height="94.493332"
        width="87.973335"
        xml:space="preserve"
        id="svg2"
        version="1.1"><metadata
     id="metadata8"><rdf:RDF><cc:Work
         rdf:about=""><dc:format>image/svg+xml</dc:format><dc:type
        rdf:resource="http://purl.org/dc/dcmitype/StillImage"/></cc:Work></rdf:RDF></metadata>
    <defs
            id="defs6"/>
    <g
            transform="matrix(1.3333333,0,0,-1.3333333,0,94.493333)"
            id="g10"><g
       transform="scale(0.1)"
       id="g12"><path
         id="path14"
         style="fill:#ed1c24;fill-opacity:1;fill-rule:nonzero;stroke:none"
         d="m 391.797,192.82 c 24.902,0 41.371,19.778 48.336,45.774 9.148,34.414 9.148,54.922 26.355,54.922 11.715,0 18.309,-12.09 18.301,-33.321 0,-18.308 -9.883,-30.031 -23.059,-31.855 v -40.637 c 31.848,2.563 58.583,26.36 58.583,72.121 0,45.762 -23.434,73.223 -55.657,73.223 -27.093,0 -44.301,-16.477 -51.25,-44.297 -9.531,-38.074 -9.89,-56.387 -24.176,-56.387 -8.789,0 -18.664,8.789 -18.664,27.102 0,17.937 9.524,28.551 23.071,30.75 v 40.644 c -32.594,-2.929 -57.856,-28.925 -57.856,-71.394 0,-45.766 27.824,-66.645 56.016,-66.645" /><path
            id="path16"
            style="fill:#ed1c24;fill-opacity:1;fill-rule:nonzero;stroke:none"
            d="m 410.48,479.848 -0.007,-75.789 c -24.528,2.562 -38.801,17.945 -38.801,38.812 0,22.699 16.109,36.246 38.808,36.977 z m 17.571,-117.524 c 58.941,0 92.262,30.387 92.265,79.817 0,37.707 -21.597,65.168 -58.578,74.683 V 475.82 c 16.473,-5.855 22.328,-19.039 22.328,-33.316 0,-19.035 -10.25,-36.25 -40.64,-38.809 v 116.426 c 0,0 -6.227,1.094 -17.938,1.094 -51.25,0 -89.699,-26.356 -89.699,-78.711 -0.008,-47.598 33.313,-80.18 92.262,-80.18"/><path
            id="path18"
            style="fill:#ed1c24;fill-opacity:1;fill-rule:nonzero;stroke:none"
            d="m 518.125,644.949 -179.762,63.711 -0.011,-42.84 123.757,-39.902 -123.757,-39.91 v -43.203 l 179.773,63.711 v 38.433"/><path
            id="path20"
            style="fill:#ed1c24;fill-opacity:1;fill-rule:nonzero;stroke:none"
            d="M 620.605,329.91 C 620.605,169.617 490.211,39.2188 329.93,39.2188 169.637,39.2188 39.2305,169.617 39.2305,329.91 c 0,149.153 118.4175,271.106 266.1675,276.93 v 39.223 C 136.02,640.215 0,500.688 0,329.91 0,147.996 148.012,0 329.93,0 511.84,0 659.84,147.996 659.84,329.91 v 1.36 h -39.235 v -1.36"/></g></g></svg>
