<?xml version="1.0" encoding="UTF-8" standalone="no"?>
<svg
        xmlns="http://www.w3.org/2000/svg"
        version="1.0"
        width="719"
        height="330"
        viewBox="-0.383 -0.837 719 330"
        id="svg2"
        xml:space="preserve">
	<defs
            id="defs4">
	</defs>
    <g
            transform="matrix(0.9860815,0,0,0.9695725,4,6)"
            id="g6">
		<path
                d="M 264.414,241.283 C 264.414,241.283 277.539,249.674 303.668,249.674 C 327.059,249.674 342.856,241.58 354.848,221.194 L 461.907,221.194 C 444.516,293.753 376.169,328.303 304.833,328.303 C 270.177,328.303 239.132,320.643 212.414,307.686 C 237.922,293.646 257.289,271.669 264.414,241.283 L 264.414,241.283 z M 261.988,182.166 L 465.277,182.166 L 465.277,170.904 C 465.277,65.964 403.512,0 296.77,0 C 271.35,0 247.848,3.853 226.95,11.469 C 237.669,14.342 248.18,18.028 258.38,22.646 L 222.064,91.706 C 205.395,82.776 182.176,76.822 163.721,76.822 C 151.219,76.822 129.786,82.18 129.786,97.66 C 129.786,118.497 163.721,121.473 178.604,124.45 C 218.008,132.33 249.832,148.684 261.988,182.166 L 261.988,182.166 z"
                id="path8"
                style="fill:#ffffff"/>
        <path
                d="M 418.262,183.432 L 435.688,217.096 L 435.723,221.193 L 355.012,221.193 C 342.914,241.759 327.223,249.65 303.629,249.65 C 288.309,249.65 274.047,246.607 264.563,241.259 L 262.731,237.193 C 264.225,229.841 265.227,221.998 265.227,213.651 C 265.227,202.018 262.512,191.194 259.514,182.167 L 415.139,182.167 L 418.262,183.432 L 418.262,183.432 z M 489.98,325.193 L 489.98,320.302 L 453.671,250.958 L 451.144,250.618 C 429.96,292.583 384.96,318.891 340.718,325.192 L 489.98,325.192 L 489.98,325.193 L 489.98,325.193 L 489.98,325.193 z M 236.494,117.972 L 363.117,117.972 C 357.715,88.566 330.711,69.363 301.304,69.363 C 269.5,69.362 243.094,86.165 236.494,117.972 L 236.494,117.972 z"
                id="path10"
                style="fill:#ff2a0c"/>
        <path
                d="M 451.145,250.619 C 455.877,241.521 459.364,232.033 461.961,221.193 L 435.465,221.193 L 414.973,182.166 L 465.278,182.166 L 465.278,170.904 C 465.278,100.891 437.882,47.089 385.796,19.868 L 451.161,19.868 L 524.388,176.443 L 597.02,19.868 L 718.469,19.868 L 558.916,325.193 L 489.855,325.193 L 451.145,250.619 L 451.145,250.619 z M 261.988,181.994 C 249.832,148.514 218.008,132.33 178.603,124.449 C 163.719,121.472 129.785,118.496 129.785,97.659 C 129.785,82.18 151.218,76.821 163.72,76.821 C 182.175,76.821 205.394,82.775 222.063,91.705 L 258.379,22.645 C 226.826,8.357 192.296,3 157.767,3 C 91.088,3 23.219,36.339 23.219,111.352 C 23.219,166.123 57.154,182.791 91.088,191.721 C 125.023,200.655 158.957,201.842 158.957,225.658 C 158.957,242.326 138.715,248.877 125.022,248.877 C 98.231,248.877 61.321,233.397 39.293,217.916 L 0,293.525 C 36.912,316.15 79.776,328.65 123.236,328.65 C 194.082,328.65 267.308,295.31 267.308,214.94 C 267.309,202.424 265.441,191.51 261.988,181.994 L 261.988,181.994 L 261.988,181.994 z"
                id="path12"/>
	</g>
</svg>
